<?xml version="1.0" standalone="no"?>
<!DOCTYPE svg PUBLIC "-//W3C//DTD SVG 20010904//EN"
 "http://www.w3.org/TR/2001/REC-SVG-20010904/DTD/svg10.dtd">
<svg version="1.0" xmlns="http://www.w3.org/2000/svg"
 width="700.000000pt" height="700.000000pt" viewBox="0 0 700.000000 700.000000"
 preserveAspectRatio="xMidYMid meet">
<metadata>
Created by potrace 1.11, written by Peter Selinger 2001-2013
</metadata>
<g transform="translate(0.000000,700.000000) scale(0.100000,-0.100000)"
fill="#000000" stroke="none">
<path d="M4144 6773 c-175 -216 -425 -523 -482 -592 -21 -24 -44 -54 -52 -65
-8 -12 -23 -30 -33 -41 -11 -11 -31 -36 -45 -55 -15 -19 -29 -37 -32 -40 -5
-4 -87 -105 -123 -150 -7 -8 -140 -172 -297 -365 -156 -192 -324 -399 -373
-460 -49 -60 -98 -121 -110 -135 -12 -14 -60 -72 -106 -130 -46 -58 -95 -119
-110 -136 -14 -17 -39 -48 -56 -69 -16 -21 -35 -43 -40 -49 -6 -6 -69 -83
-140 -171 -71 -88 -132 -162 -135 -165 -3 -3 -30 -36 -60 -75 -62 -78 -81
-103 -126 -154 -16 -20 -88 -108 -159 -196 -70 -88 -134 -167 -141 -176 -12
-14 17 -33 249 -165 321 -183 293 -167 347 -197 25 -13 205 -116 400 -227 195
-111 373 -212 395 -224 98 -54 136 -79 132 -90 -4 -10 -300 -894 -723 -2156
l-163 -485 82 86 c45 47 123 130 173 185 50 54 109 118 130 140 22 23 80 86
129 140 50 53 101 109 115 124 39 42 222 240 250 270 14 15 72 78 130 140 58
62 112 121 120 130 8 10 67 73 130 141 63 68 138 148 166 179 29 30 68 73 89
95 31 34 112 121 249 269 15 17 74 81 131 141 56 61 114 124 129 140 15 17 71
77 124 134 53 57 108 116 122 131 14 15 70 76 125 135 55 60 111 120 125 135
119 129 236 256 291 314 36 39 78 85 94 101 15 17 71 77 124 135 54 58 122
131 152 164 30 32 66 72 82 88 15 17 27 32 27 33 0 2 -17 9 -37 16 -21 6 -76
26 -123 45 -47 18 -267 100 -490 183 -223 83 -412 154 -420 158 -8 3 -19 7
-25 9 -17 5 -88 32 -120 45 -16 7 -34 13 -40 14 -5 2 -41 15 -80 30 -38 15
-104 40 -145 55 -205 77 -325 123 -329 126 -2 2 26 124 63 271 36 147 99 405
140 573 41 168 86 352 101 410 14 58 28 114 30 125 3 11 27 112 56 225 28 113
52 214 55 225 8 39 14 64 89 365 76 306 98 398 115 478 5 24 12 48 15 53 24
37 -24 -18 -161 -188z"/>
</g>
</svg>
