<?xml version="1.0" standalone="no"?>
<!DOCTYPE svg PUBLIC "-//W3C//DTD SVG 20010904//EN"
 "http://www.w3.org/TR/2001/REC-SVG-20010904/DTD/svg10.dtd">
<svg version="1.0" xmlns="http://www.w3.org/2000/svg"
 width="1000.000000pt" height="1000.000000pt" viewBox="0 0 1000.000000 1000.000000"
 preserveAspectRatio="xMidYMid meet">
<metadata>
Created by potrace 1.11, written by Peter Selinger 2001-2013
</metadata>
<g transform="translate(0.000000,1000.000000) scale(0.100000,-0.100000)"
fill="#000000" stroke="none">
<path d="M5988 9378 c-183 -217 -3492 -4296 -3494 -4308 -3 -11 276 -173 966
-564 534 -302 970 -554 970 -560 0 -6 -252 -764 -561 -1684 -308 -921 -558
-1676 -556 -1679 3 -2 598 636 1324 1419 725 782 1663 1796 2086 2251 422 456
767 832 767 837 0 4 -8 11 -17 15 -10 4 -522 196 -1138 427 -616 231 -1124
423 -1129 428 -5 5 173 752 414 1735 232 949 420 1728 417 1731 -2 3 -25 -19
-49 -48z"/>
</g>
</svg>
