<?xml version="1.0" standalone="no"?>
<!DOCTYPE svg PUBLIC "-//W3C//DTD SVG 20010904//EN"
 "http://www.w3.org/TR/2001/REC-SVG-20010904/DTD/svg10.dtd">
<svg version="1.0" xmlns="http://www.w3.org/2000/svg"
 width="128.000000pt" height="128.000000pt" viewBox="0 0 128.000000 128.000000"
 preserveAspectRatio="xMidYMid meet">
<metadata>
Created by potrace 1.11, written by Peter Selinger 2001-2013
</metadata>
<g transform="translate(0.000000,128.000000) scale(0.100000,-0.100000)"
fill="#000000" stroke="none">
<path d="M885 1213 c-81 -44 -107 -122 -73 -221 15 -47 16 -58 4 -87 -20 -46
-50 -62 -128 -68 -83 -5 -133 -30 -177 -88 -18 -24 -42 -50 -51 -56 -48 -34
-113 -13 -151 48 -66 108 -213 107 -286 -1 -44 -63 -20 -172 46 -220 74 -52
168 -33 244 49 68 74 133 55 202 -60 26 -44 87 -77 155 -84 77 -9 109 -23 131
-59 23 -38 24 -77 2 -119 -21 -41 -22 -116 0 -147 26 -37 69 -60 112 -60 78 0
128 48 131 129 2 41 -2 54 -27 84 -21 25 -43 40 -72 47 -67 16 -105 40 -118
73 -18 43 -13 72 22 135 42 74 46 146 14 222 -33 78 -20 131 40 156 19 8 48
14 65 14 17 0 47 9 68 19 153 78 95 311 -78 310 -25 0 -58 -7 -75 -16z"/>
<path d="M413 1193 c-36 -7 -73 -59 -73 -102 0 -45 23 -79 66 -97 44 -19 89
-8 119 28 67 80 -7 193 -112 171z"/>
<path d="M1153 678 c-27 -13 -47 -60 -39 -90 11 -40 33 -60 74 -65 34 -5 45
-1 66 20 72 72 -9 179 -101 135z"/>
<path d="M330 308 c-42 -29 -60 -61 -60 -111 0 -61 25 -98 85 -123 97 -40 203
56 174 159 -23 84 -128 123 -199 75z"/>
</g>
</svg>
