<?xml version="1.0" standalone="no"?>
<!DOCTYPE svg PUBLIC "-//W3C//DTD SVG 20010904//EN"
 "http://www.w3.org/TR/2001/REC-SVG-20010904/DTD/svg10.dtd">
<svg version="1.0" xmlns="http://www.w3.org/2000/svg"
 width="824.000000pt" height="824.000000pt" viewBox="0 0 824.000000 824.000000"
 preserveAspectRatio="xMidYMid meet">
<metadata>
Created by potrace 1.11, written by Peter Selinger 2001-2013
</metadata>
<g transform="translate(0.000000,824.000000) scale(0.100000,-0.100000)"
fill="#000000" stroke="none">
<path d="M5885 7740 c-22 -38 -44 -70 -49 -70 -5 0 -7 -3 -4 -6 6 -5 -26 -60
-52 -91 -5 -7 -10 -15 -10 -18 0 -3 -12 -24 -27 -48 -16 -23 -30 -46 -33 -52
-6 -12 -160 -265 -242 -398 -31 -51 -63 -103 -71 -117 -7 -14 -78 -131 -157
-260 -79 -129 -152 -251 -163 -270 -10 -19 -23 -37 -26 -40 -4 -3 -14 -18 -23
-35 -18 -37 -84 -146 -96 -160 -4 -5 -11 -17 -15 -25 -4 -8 -13 -24 -20 -35
-7 -11 -26 -42 -42 -70 -16 -27 -33 -54 -38 -60 -8 -11 -241 -394 -264 -435
-8 -14 -32 -54 -53 -89 -22 -34 -40 -67 -40 -71 0 -5 -4 -10 -8 -12 -5 -1 -24
-29 -43 -62 -19 -32 -44 -75 -57 -95 -13 -20 -25 -44 -29 -53 -3 -10 -9 -18
-13 -18 -4 0 -15 -18 -25 -40 -10 -22 -21 -40 -24 -40 -3 0 -15 -18 -25 -40
-28 -58 -37 -63 -88 -49 -24 7 -47 16 -52 21 -6 4 -17 8 -25 8 -12 0 -265 77
-376 115 -22 8 -107 35 -190 60 -82 26 -157 49 -165 52 -8 4 -17 7 -20 8 -3 0
-16 5 -30 9 -14 4 -104 32 -200 63 -96 30 -182 57 -190 60 -8 3 -20 7 -26 8
-7 2 -54 17 -105 33 -133 43 -134 43 -135 7 -1 -37 -14 -232 -19 -300 -2 -27
-6 -90 -10 -140 -3 -49 -7 -119 -10 -155 -4 -66 -12 -185 -20 -295 -2 -33 -6
-96 -9 -140 -10 -135 -15 -206 -21 -304 -3 -52 -7 -121 -10 -155 -2 -34 -7
-99 -10 -146 -9 -115 -12 -168 -19 -280 -3 -52 -8 -124 -11 -160 -6 -81 -14
-203 -20 -295 -5 -84 -13 -205 -20 -300 -6 -76 -11 -156 -19 -280 -3 -44 -8
-111 -11 -150 -8 -115 -16 -236 -20 -305 -2 -36 -6 -99 -9 -140 -13 -179 -16
-220 -21 -300 -2 -47 -7 -119 -10 -160 -8 -108 -14 -194 -20 -280 -5 -82 -13
-208 -21 -310 -4 -58 -7 -104 -18 -282 -1 -27 0 -48 3 -48 3 1 38 55 76 122
39 66 76 127 83 134 7 8 11 14 7 14 -5 0 23 49 35 60 3 3 35 55 72 115 36 61
102 170 147 244 44 73 81 137 81 141 0 5 3 10 8 12 4 2 40 59 81 128 41 69 94
155 118 192 24 37 43 72 43 77 0 6 5 11 10 11 6 0 10 4 10 9 0 12 63 115 73
119 4 2 7 8 7 13 0 5 22 46 50 90 27 44 50 83 50 87 0 3 6 13 14 21 8 9 23 32
34 51 11 19 57 96 102 170 46 74 99 162 118 195 20 33 40 63 46 67 6 4 7 8 2
8 -5 0 -1 9 9 20 18 19 36 48 51 80 4 8 42 71 84 140 118 191 162 264 245 403
43 70 79 127 81 127 3 0 20 -7 39 -14 19 -8 35 -12 35 -9 0 3 7 -1 17 -8 9 -8
17 -12 17 -10 1 4 194 -53 231 -68 11 -5 56 -19 100 -32 44 -12 85 -26 90 -30
6 -4 22 -10 35 -12 14 -2 32 -7 40 -10 28 -11 151 -49 163 -51 7 -1 26 -7 42
-13 17 -7 84 -28 150 -48 66 -20 129 -40 140 -46 11 -5 29 -10 40 -12 11 -1
25 -5 30 -8 13 -8 64 -20 68 -17 2 2 11 -3 20 -11 10 -7 17 -10 17 -7 0 4 9 2
21 -4 11 -6 28 -13 37 -15 9 -2 49 -14 87 -26 85 -27 95 -30 119 -32 20 -2 19
-12 31 183 4 58 8 123 10 145 2 22 6 81 9 130 3 50 8 126 11 170 4 44 8 107
10 140 3 53 6 100 20 300 6 80 15 214 20 292 2 39 6 102 9 140 3 37 8 109 11
158 3 50 8 113 10 140 3 28 7 93 10 145 4 52 8 127 11 165 2 39 6 104 9 145 2
41 7 104 9 140 3 36 8 101 11 145 12 195 20 307 30 440 4 59 15 213 21 305 2
36 6 101 9 145 3 44 7 113 10 153 3 41 7 101 9 135 3 34 8 107 12 162 3 55 8
118 9 140 2 22 6 83 9 135 8 121 14 214 22 315 3 44 7 109 9 145 2 36 7 101
10 145 12 169 12 185 6 185 -3 0 -24 -32 -46 -70z"/>
</g>
</svg>
