<svg width="175" height="50" viewBox="0 0 175 50" fill="none" xmlns="http://www.w3.org/2000/svg">
<path d="M70.2042 27.9188L67.1708 19.6938C67.0542 19.3438 66.5583 19.3438 66.4417 19.6938L63.4083 27.9188C63.3208 28.1813 63.4958 28.4438 63.7583 28.4438H69.8542C70.1167 28.4438 70.3208 28.1813 70.2042 27.9188ZM71.6333 32.5563H62.0083C61.8333 32.5563 61.7167 32.6438 61.6583 32.8188L59.7625 37.9229C59.7042 38.0688 59.5583 38.1854 59.4125 38.1854H55.2417C54.9792 38.1854 54.775 37.9229 54.8917 37.6604L64.4875 13.7146C64.5458 13.5688 64.6917 13.4813 64.8375 13.4813H68.8333C68.9792 13.4813 69.125 13.5688 69.1833 13.7146L78.7792 37.6604C78.8667 37.9229 78.6917 38.1854 78.4292 38.1854H74.2583C74.0833 38.1854 73.9667 38.0979 73.9083 37.9229L72.0125 32.8188C71.925 32.6438 71.7792 32.5563 71.6333 32.5563ZM80.7333 21.8521H84.2917C84.4958 21.8521 84.6708 22.0271 84.6708 22.2313V37.7771C84.6708 37.9813 84.4958 38.1563 84.2917 38.1563H80.7333C80.5292 38.1563 80.3542 37.9813 80.3542 37.7771V22.2313C80.3542 22.0271 80.5292 21.8521 80.7333 21.8521ZM97.7083 25.6146C97.7083 25.8188 97.5333 25.9938 97.3292 25.9938H97.2125C95.4333 25.9938 94.15 26.4313 93.3333 27.2771C92.5167 28.1229 92.1083 29.5229 92.1083 31.4771V37.7771C92.1083 37.9813 91.9333 38.1563 91.7292 38.1563H88.2C87.9958 38.1563 87.8208 37.9813 87.8208 37.7771V22.2313C87.8208 22.0271 87.9958 21.8521 88.2 21.8521H91.7C91.9042 21.8521 92.0792 22.0271 92.0792 22.2313V25.2938H92.1375C92.575 24.0104 93.2458 23.0479 94.15 22.3771C95.0542 21.7063 96.1917 21.3563 97.5333 21.3563H97.7083V25.6146ZM107.479 25.4979C107.275 25.4979 107.1 25.6729 107.1 25.8771V32.3521C107.1 33.0229 107.217 33.4896 107.479 33.7521C107.742 34.0438 108.179 34.1896 108.821 34.1896H109.171C109.375 34.1896 109.55 34.3646 109.55 34.5688V37.8354C109.55 38.0396 109.375 38.2146 109.171 38.2146H107.654C106.079 38.2146 104.854 37.8063 104.008 36.9896C103.163 36.1729 102.725 34.9771 102.725 33.3729V25.8771C102.725 25.6729 102.55 25.4979 102.346 25.4979H100.129C99.925 25.4979 99.75 25.3229 99.75 25.1188V22.2604C99.75 22.0563 99.925 21.8813 100.129 21.8813H102.346C102.55 21.8813 102.725 21.7063 102.725 21.5021V15.7563C102.725 15.5521 102.9 15.3771 103.104 15.3771H106.663C106.867 15.3771 107.042 15.5521 107.042 15.7563V21.5021C107.042 21.7063 107.217 21.8813 107.421 21.8813H110.017C110.221 21.8813 110.396 22.0563 110.396 22.2604V25.1188C110.396 25.3229 110.221 25.4979 110.017 25.4979H107.479ZM123.813 33.3146C124.629 32.4688 125.038 31.3604 125.038 29.9896C125.038 28.6188 124.629 27.5104 123.813 26.6646C122.996 25.8188 121.946 25.3813 120.604 25.3813C119.292 25.3813 118.213 25.8188 117.396 26.6646C116.579 27.5104 116.171 28.6188 116.171 29.9896C116.171 31.3604 116.579 32.4688 117.396 33.3146C118.213 34.1604 119.263 34.5979 120.604 34.5979C121.946 34.5979 122.996 34.1604 123.813 33.3146ZM115.588 37.6604C114.392 36.9896 113.429 35.9979 112.758 34.6854C112.058 33.3729 111.708 31.8271 111.708 30.0187C111.708 28.2104 112.058 26.6354 112.758 25.3521C113.458 24.0396 114.392 23.0479 115.588 22.3771C116.783 21.7063 118.096 21.3563 119.554 21.3563C120.838 21.3563 121.917 21.5896 122.821 22.0854C123.725 22.5813 124.454 23.2813 124.979 24.1563H125.038V22.2604C125.038 22.0563 125.213 21.8813 125.417 21.8813H128.946C129.15 21.8813 129.325 22.0563 129.325 22.2604V37.8063C129.325 38.0104 129.15 38.1854 128.946 38.1854H125.417C125.213 38.1854 125.038 38.0104 125.038 37.8063V35.9104H124.979C124.425 36.8146 123.725 37.4854 122.821 37.9813C121.917 38.4771 120.838 38.7104 119.554 38.7104C118.096 38.6813 116.783 38.3604 115.588 37.6604ZM144.054 33.3146C144.871 32.4688 145.279 31.3604 145.279 29.9896C145.279 28.6188 144.871 27.5104 144.054 26.6646C143.238 25.8188 142.188 25.3813 140.846 25.3813C139.533 25.3813 138.454 25.8188 137.638 26.6646C136.821 27.5104 136.412 28.6188 136.412 29.9896C136.412 31.3604 136.821 32.4688 137.638 33.3146C138.454 34.1604 139.504 34.5979 140.846 34.5979C142.158 34.5979 143.238 34.1604 144.054 33.3146ZM138.688 37.9521C137.783 37.4563 137.054 36.7563 136.529 35.8813H136.471V37.7771C136.471 37.9813 136.296 38.1563 136.092 38.1563H132.533C132.329 38.1563 132.154 37.9813 132.154 37.7771V13.8313C132.154 13.6271 132.329 13.4521 132.533 13.4521H136.092C136.296 13.4521 136.471 13.6271 136.471 13.8313V24.1563H136.529C137.083 23.2521 137.783 22.5813 138.688 22.0854C139.592 21.5896 140.671 21.3563 141.954 21.3563C143.383 21.3563 144.696 21.7063 145.921 22.3771C147.117 23.0479 148.079 24.0396 148.75 25.3521C149.45 26.6646 149.8 28.2104 149.8 30.0187C149.8 31.8271 149.45 33.4021 148.75 34.6854C148.05 35.9979 147.117 36.9896 145.921 37.6604C144.725 38.3313 143.412 38.6813 141.954 38.6813C140.671 38.6813 139.592 38.4479 138.688 37.9521ZM155.808 38.1563H152.25C152.046 38.1563 151.871 37.9813 151.871 37.7771V13.8313C151.871 13.6271 152.046 13.4521 152.25 13.4521H155.808C156.013 13.4521 156.188 13.6271 156.188 13.8313V37.7771C156.188 37.9813 156.013 38.1563 155.808 38.1563ZM164.208 25.6146C163.625 26.0813 163.217 26.7521 163.013 27.6271C162.954 27.8604 163.129 28.0938 163.392 28.0938H170.188C170.421 28.0938 170.596 27.8896 170.567 27.6563C170.421 26.8396 170.071 26.1688 169.517 25.6729C168.846 25.0896 167.971 24.7979 166.892 24.7979C165.783 24.8271 164.908 25.0896 164.208 25.6146ZM172.929 23.6021C174.329 25.1187 175 27.2771 175 30.0479V30.5146C175 30.7188 174.825 30.8937 174.621 30.8937H163.275C163.042 30.8937 162.837 31.0979 162.896 31.3604C163.071 32.3813 163.537 33.1979 164.267 33.8104C165.113 34.5104 166.162 34.8604 167.417 34.8604C169.05 34.8604 170.567 34.2188 171.967 32.9354C172.142 32.7896 172.404 32.8188 172.55 32.9938L174.3 35.4729C174.417 35.6188 174.388 35.8521 174.242 35.9688C173.396 36.7271 172.463 37.3396 171.412 37.8354C170.275 38.3896 168.962 38.6521 167.417 38.6521C165.637 38.6521 164.121 38.3021 162.779 37.5729C161.467 36.8438 160.446 35.8521 159.717 34.5396C158.988 33.2271 158.608 31.7104 158.608 29.9896C158.608 28.2688 158.958 26.7521 159.658 25.4396C160.358 24.1271 161.35 23.1063 162.633 22.3771C163.917 21.6479 165.375 21.2688 167.096 21.2688C169.575 21.3271 171.529 22.0854 172.929 23.6021ZM85.1667 16.1063C85.1667 17.5646 84 18.7313 82.5417 18.7313C81.0833 18.7313 79.9167 17.5646 79.9167 16.1063C79.9167 14.6479 81.0833 13.4813 82.5417 13.4813C83.9708 13.4813 85.1667 14.6479 85.1667 16.1063Z" fill="#C7C7C7"/>
<path d="M20.3292 6.48125L3.35415 13.5104C2.42082 13.8896 2.42082 15.2312 3.38332 15.6104L20.4166 22.3771C21.9042 22.9604 23.5958 22.9604 25.0833 22.3771L42.1167 15.6104C43.0792 15.2312 43.0792 13.8896 42.1458 13.5104L25.1708 6.48125C23.625 5.83958 21.875 5.83958 20.3292 6.48125Z" fill="#C7C7C7"/>
<path d="M24.2667 26.0812V42.9688C24.2667 43.7854 25.0833 44.3104 25.8125 44.0187L44.8 36.6396C45.2375 36.4646 45.5292 36.0563 45.5292 35.5896V18.7021C45.5292 17.8854 44.7125 17.3604 43.9833 17.6521L24.9958 25.0313C24.5583 25.1771 24.2667 25.6146 24.2667 26.0812Z" fill="#C7C7C7"/>
<path d="M19.8333 26.9271L14.2042 29.6396L13.6208 29.9021L1.72083 35.5896C0.9625 35.9396 0 35.4146 0 34.5687V18.7312C0 18.4396 0.145833 18.1771 0.35 17.9729C0.4375 17.8854 0.525 17.8271 0.641666 17.7687C0.933333 17.5937 1.34167 17.5646 1.6625 17.6812L19.7167 24.8271C20.65 25.2354 20.7083 26.5187 19.8333 26.9271Z" fill="#C7C7C7"/>
<path d="M19.8333 26.9271L14.2041 29.6396L0.379143 17.9729C0.466643 17.8854 0.554143 17.8271 0.670809 17.7687C0.962476 17.5937 1.37081 17.5646 1.69164 17.6812L19.7458 24.8271C20.65 25.2354 20.7083 26.5187 19.8333 26.9271Z" fill="#C7C7C7"/>
</svg>
