<svg width="175" height="50" viewBox="0 0 175 50" fill="none" xmlns="http://www.w3.org/2000/svg">
<g clip-path="url(#clip0)">
<path d="M78.5003 24.2056C73.7897 24.2056 71.5451 27.4543 71.5451 32.416C71.5451 37.3776 73.7897 40.6115 78.5003 40.6115C83.2109 40.6115 85.3521 37.2742 85.3521 32.416C85.3521 27.5577 83.1961 24.2056 78.5003 24.2056ZM78.5003 38.4261C75.3992 38.4261 74.4542 35.9452 74.4542 32.416C74.4542 28.5914 75.4878 26.4059 78.5003 26.4059C81.5127 26.4059 82.5316 28.5914 82.5316 32.416C82.5316 35.9452 81.4832 38.4261 78.5003 38.4261Z" fill="#C7C7C7"/>
<path d="M102.157 24.3976L99.3214 24.3976L99.3214 36.9937C98.9523 37.2742 98.5683 37.4662 98.1105 37.7468C97.1488 38.2354 96.0882 38.498 95.0095 38.5147C92.7502 38.5147 92.0562 37.038 92.0562 33.553L92.0562 24.501L89.2948 24.501L89.2948 33.6564C89.2948 38.5147 90.9044 40.7149 94.3746 40.7149C95.7612 40.7427 97.1276 40.3793 98.3173 39.6665C98.8598 39.3938 99.3577 39.0403 99.794 38.618L100.163 40.6115L102.23 40.4196L102.23 24.3976L102.157 24.3976ZM106.114 32.5046C106.114 38.5146 109.496 40.6115 112.774 40.6115C113.853 40.6069 114.928 40.478 115.978 40.2276C116.389 40.1214 116.793 39.9933 117.189 39.8437L117.485 37.6582C117.101 37.7468 116.628 37.9387 116.156 38.0421C115.19 38.2857 114.198 38.4146 113.202 38.426C110.47 38.426 108.964 36.6097 108.964 32.5193C108.964 28.4289 110.441 26.4207 113.202 26.4207C114.198 26.4321 115.19 26.561 116.156 26.8046C116.628 26.8932 117.012 27.0852 117.485 27.1885L117.293 25.0769C116.904 24.8951 116.491 24.7708 116.067 24.7077C115.023 24.4504 113.952 24.3214 112.877 24.3238C109.511 24.2056 106.114 26.1105 106.114 32.5046ZM121.147 40.6115L123.982 40.6115L123.982 28.3108C125.333 27.4744 126.84 26.9217 128.412 26.6865C130.287 26.6865 131.232 27.7349 131.232 31.9287L131.232 40.6115L134.053 40.6115L134.053 31.7515C134.053 26.5979 132.576 24.5896 129.165 24.5896C127.247 24.5139 125.37 25.1622 123.908 26.4059L123.908 18.3875L121.088 18.6829L121.088 40.6115L121.147 40.6115ZM152.482 20.2038C150.438 18.8238 147.984 18.183 145.527 18.3875L139.192 18.3875L139.192 40.5377L146.132 40.5377C153.752 40.5377 155.539 35.96 155.539 28.9901C155.553 24.2056 154.313 21.7248 152.482 20.2038ZM145.246 38.426L142.145 38.426L142.145 20.7059L146.28 20.7059C151.345 20.7059 152.762 23.4821 152.762 29.1968C152.733 36.3292 151.138 38.426 145.217 38.426L145.246 38.426ZM172.55 29.3592C171.783 28.9648 170.954 28.7051 170.099 28.5914C171.18 28.473 172.178 27.9513 172.892 27.1302C173.607 26.3092 173.985 25.2491 173.953 24.1613C173.953 19.9676 171.885 18.3432 166.245 18.3432L160.234 18.3432L160.234 40.5229L167.382 40.5229C172.447 40.5229 174.986 38.5147 174.986 34.1289C175.055 33.1872 174.864 32.2447 174.434 31.4038C174.005 30.563 173.353 29.8559 172.55 29.3592V29.3592ZM162.966 20.6764L165.92 20.6764C169.774 20.6764 171.28 21.3556 171.28 24.117C171.28 26.4945 170.054 27.8383 166.569 27.8383L162.966 27.8383L162.966 20.6764V20.6764ZM166.628 38.3965L162.966 38.3965L162.966 29.7875L166.628 29.7875C170.483 29.7875 172.269 30.7473 172.269 34.2175C172.269 37.6877 170.394 38.426 166.643 38.426L166.628 38.3965ZM62.3158 40.6115C63.7752 40.5881 65.229 40.4249 66.6573 40.1242C67.1983 39.9366 67.7507 39.7837 68.3112 39.6665L68.5917 37.2742L66.9083 37.8501C65.5302 38.2181 64.1113 38.4116 62.685 38.426C58.6389 38.426 56.6602 35.7533 56.6602 29.1673C56.6602 22.3007 59.0081 20.1152 62.9656 20.1152C64.3214 20.144 65.6713 20.3023 66.9969 20.5878C67.6614 20.6764 68.134 20.9717 68.6951 21.0603L68.4145 18.5795C67.942 18.3875 67.3809 18.2989 66.8197 18.107C65.424 17.823 64.0056 17.6648 62.5817 17.6344C57.4133 17.6344 53.5591 20.3958 53.5591 28.9753C53.5591 33.4053 54.5042 36.3587 56.099 38.1307C56.8867 38.979 57.8531 39.6417 58.9283 40.0707C60.0034 40.4998 61.1605 40.6845 62.3158 40.6115Z" fill="#C7C7C7"/>
<path d="M37.3009 30.4077C37.3427 30.8058 37.295 31.2082 37.1614 31.5855C37.0277 31.9628 36.8115 32.3055 36.5284 32.5886C36.2454 32.8716 35.9027 33.0879 35.5254 33.2215C35.1481 33.3552 34.7456 33.4028 34.3476 33.3611L11.4886 33.3611C11.0869 33.4209 10.6769 33.3857 10.2912 33.2584C9.90564 33.1312 9.55522 32.9153 9.26808 32.6282C8.98095 32.3411 8.76509 31.9906 8.63782 31.605C8.51055 31.2194 8.4754 30.8093 8.5352 30.4077C8.49343 30.0096 8.54111 29.6072 8.67476 29.2299C8.80841 28.8526 9.02465 28.5099 9.30769 28.2268C9.59074 27.9438 9.93343 27.7275 10.3107 27.5939C10.6881 27.4602 11.0905 27.4126 11.4886 27.4543L34.51 27.4543C34.8983 27.4245 35.2884 27.4818 35.6518 27.6221C36.0151 27.7624 36.3425 27.9821 36.6101 28.2652C36.8776 28.5483 37.0784 28.8876 37.198 29.2582C37.3175 29.6289 37.3527 30.0217 37.3009 30.4077ZM34.4805 34.8377L11.4886 34.8377C11.0875 34.7811 10.6788 34.8185 10.2947 34.9469C9.91053 35.0753 9.56149 35.2912 9.27509 35.5776C8.9887 35.864 8.77278 36.2131 8.64438 36.5972C8.51597 36.9813 8.4786 37.39 8.5352 37.7911C8.49343 38.1892 8.54111 38.5916 8.67476 38.9689C8.80841 39.3462 9.02465 39.6889 9.30769 39.972C9.59074 40.255 9.93343 40.4713 10.3107 40.6049C10.6881 40.7385 11.0905 40.7862 11.4886 40.7445L34.51 40.7445C34.911 40.8011 35.3198 40.7637 35.7039 40.6353C36.088 40.5069 36.4371 40.291 36.7235 40.0046C37.0098 39.7182 37.2258 39.3691 37.3542 38.985C37.4826 38.6009 37.5199 38.1921 37.4633 37.7911C37.3009 35.6942 36.4001 34.7934 34.51 34.7934L34.4805 34.8377ZM41.6276 18.7272C41.2346 18.6648 40.8324 18.6945 40.4529 18.814C40.0733 18.9335 39.7267 19.1396 39.4404 19.4159C39.154 19.6922 38.9358 20.0312 38.8028 20.4063C38.6699 20.7814 38.6258 21.1822 38.6742 21.5772L38.6742 37.6582C38.6324 38.0563 38.6801 38.4587 38.8138 38.836C38.9474 39.2133 39.1637 39.556 39.4467 39.8391C39.7298 40.1221 40.0724 40.3384 40.4498 40.472C40.8271 40.6057 41.2295 40.6533 41.6276 40.6116C44.448 40.523 45.9542 37.6582 45.9542 31.8401L45.9542 24.5896C45.9838 20.6764 44.4776 18.7715 41.6571 18.6829L41.6276 18.7272ZM4.32667 18.7272C1.50621 18.8158 -6.16981e-08 20.7207 -8.42187e-08 24.6339L-1.25946e-07 31.8844C-1.59429e-07 37.7025 1.47668 40.5673 4.32667 40.6559C4.72831 40.7157 5.13838 40.6805 5.52399 40.5532C5.90959 40.426 6.26001 40.2101 6.54715 39.923C6.83428 39.6358 7.05014 39.2854 7.17741 38.8998C7.30468 38.5142 7.33983 38.1041 7.28003 37.7025L7.28003 21.6362C7.31314 21.2426 7.26047 20.8464 7.12566 20.4751C6.99086 20.1037 6.77711 19.766 6.49918 19.4853C6.22124 19.2046 5.88572 18.9874 5.51576 18.8489C5.14579 18.7104 4.75018 18.6537 4.3562 18.6829L4.32667 18.7272ZM41.6276 17.2505C41.6276 12.3775 39.0877 10.0886 34.4805 10L11.4886 10C6.79272 10.0886 4.3562 12.4808 4.3562 17.2505C4.95025 17.1779 5.55303 17.2436 6.1175 17.4424C6.68197 17.6412 7.19285 17.9678 7.61027 18.3967C8.02769 18.8255 8.34035 19.3451 8.52385 19.9147C8.70735 20.4843 8.75672 21.0887 8.6681 21.6805C8.58209 22.2732 8.63379 22.8778 8.8192 23.4472C9.0046 24.0167 9.31871 24.5358 9.73717 24.9643C10.1556 25.3927 10.6672 25.719 11.2321 25.9178C11.7971 26.1166 12.4002 26.1826 12.9948 26.1106L33.1071 26.1106C33.7017 26.1826 34.3048 26.1166 34.8698 25.9178C35.4347 25.719 35.9463 25.3927 36.3647 24.9643C36.7832 24.5358 37.0973 24.0167 37.2827 23.4472C37.4681 22.8778 37.5198 22.2732 37.4338 21.6805C37.3304 18.7272 38.9105 17.3834 41.6571 17.2505L41.6276 17.2505Z" fill="#C7C7C7"/>
</g>
<defs>
<clipPath id="clip0">
<rect width="175" height="50" fill="white"/>
</clipPath>
</defs>
</svg>
