<svg id="Layer_1" data-name="Layer 1" xmlns="http://www.w3.org/2000/svg" viewBox="0 0 437.99 436.25"><defs><style>.cls-1{fill:#662d91;}.cls-2{fill:#f7941d;}.cls-3{fill:#27aae1;}.cls-4{fill:#fff200;}.cls-5{fill:#ed1c24;}.cls-6{fill:#f15a29;}.cls-7{fill:#8dc63f;}.cls-8{fill:#1b75bc;}.cls-9{fill:#00a79d;}.cls-10{opacity:0.5;}</style></defs><title>database</title><g id="dot"><g id="dot-2" data-name="dot"><circle class="cls-1" cx="356.17" cy="349.83" r="1.6" transform="translate(-97.01 593.2) rotate(-75.66)"/><circle class="cls-1" cx="347.01" cy="385.88" r="2.98" transform="translate(-138.84 611.44) rotate(-75.66)"/><circle class="cls-1" cx="362.32" cy="376.8" r="1.6" transform="translate(-118.53 619.43) rotate(-75.66)"/><circle class="cls-1" cx="371.41" cy="341.08" r="2.63" transform="translate(-77.07 601.38) rotate(-75.66)"/><circle class="cls-1" cx="382.94" cy="395.07" r="2.46" transform="translate(-120.7 653.17) rotate(-75.66)"/><circle class="cls-1" cx="398.26" cy="385.99" r="1.6" transform="translate(-100.38 661.18) rotate(-75.66)"/><circle class="cls-1" cx="392.11" cy="359.01" r="2.65" transform="translate(-78.87 634.93) rotate(-75.66)"/><circle class="cls-1" cx="315.09" cy="326.12" r="2.71"/><circle class="cls-1" cx="372.76" cy="381.3" r="2.71"/><circle class="cls-1" cx="383" cy="353.33" r="1.77"/><circle class="cls-1" cx="380.89" cy="335.12" r="1.77"/><circle class="cls-1" cx="313.68" cy="357.88" r="1.84"/><circle class="cls-1" cx="330.27" cy="386.39" r="1.84"/></g><g id="dot-3" data-name="dot"><circle class="cls-2" cx="249.24" cy="388.21" r="1.6" transform="translate(-214.65 518.45) rotate(-75.66)"/><circle class="cls-2" cx="240.07" cy="424.26" r="2.98" transform="translate(-256.48 536.72) rotate(-75.66)"/><circle class="cls-2" cx="255.39" cy="415.18" r="1.6" transform="translate(-236.16 544.71) rotate(-75.66)"/><circle class="cls-2" cx="264.47" cy="379.46" r="2.63" transform="translate(-194.71 526.65) rotate(-75.66)"/><circle class="cls-2" cx="276" cy="433.45" r="2.46" transform="translate(-238.34 578.45) rotate(-75.66)"/><circle class="cls-2" cx="291.32" cy="424.37" r="1.6" transform="translate(-218.03 586.43) rotate(-75.66)"/><circle class="cls-2" cx="285.17" cy="397.39" r="2.65" transform="translate(-196.51 560.2) rotate(-75.66)"/><circle class="cls-2" cx="208.15" cy="364.5" r="2.71"/><circle class="cls-2" cx="265.82" cy="419.68" r="2.71"/><circle class="cls-2" cx="276.07" cy="391.71" r="1.77"/><circle class="cls-2" cx="273.95" cy="373.5" r="1.77"/><circle class="cls-2" cx="206.75" cy="396.26" r="1.84"/><circle class="cls-2" cx="223.33" cy="424.77" r="1.84"/></g><g id="dot-4" data-name="dot"><circle class="cls-3" cx="138.27" cy="334.79" r="2.64" transform="translate(-246.38 370.77) rotate(-75.66)"/><circle class="cls-3" cx="123.19" cy="394.09" r="4.89" transform="translate(-315.18 400.77) rotate(-75.66)"/><circle class="cls-3" cx="148.38" cy="379.15" r="2.64" transform="matrix(0.25, -0.97, 0.97, 0.25, -281.75, 413.94)"/><circle class="cls-3" cx="163.32" cy="320.4" r="4.33" transform="translate(-213.59 384.22) rotate(-75.66)"/><circle class="cls-3" cx="182.28" cy="409.19" r="4.05" transform="translate(-285.35 469.39) rotate(-75.66)"/><circle class="cls-3" cx="207.48" cy="394.26" r="2.64" transform="translate(-251.93 482.56) rotate(-75.66)"/><circle class="cls-3" cx="197.36" cy="349.9" r="4.36" transform="translate(-216.56 439.39) rotate(-75.66)"/><circle class="cls-3" cx="87.49" cy="305.52" r="4.46"/><circle class="cls-3" cx="182.33" cy="396.26" r="4.46"/><circle class="cls-3" cx="199.17" cy="350.27" r="2.9"/><circle class="cls-3" cx="195.7" cy="320.32" r="2.9"/><circle class="cls-3" cx="85.17" cy="357.75" r="3.03"/><circle class="cls-3" cx="112.45" cy="404.64" r="3.03"/></g><g id="dot-5" data-name="dot"><circle class="cls-4" cx="391.03" cy="121.6" r="1.6" transform="translate(150.33 455.27) rotate(-75.66)"/><circle class="cls-4" cx="381.86" cy="157.66" r="2.98" transform="translate(108.5 473.51) rotate(-75.66)"/><circle class="cls-4" cx="397.18" cy="148.57" r="1.6" transform="translate(128.83 481.52) rotate(-75.66)"/><circle class="cls-4" cx="406.27" cy="112.85" r="2.63" transform="translate(170.26 463.44) rotate(-75.66)"/><circle class="cls-4" cx="417.8" cy="166.84" r="2.46" transform="translate(126.63 515.23) rotate(-75.66)"/><circle class="cls-4" cx="433.12" cy="157.76" r="1.6" transform="translate(146.96 523.24) rotate(-75.66)"/><circle class="cls-4" cx="426.97" cy="130.78" r="2.65" transform="translate(168.46 496.99) rotate(-75.66)"/><circle class="cls-4" cx="349.95" cy="97.9" r="2.71"/><circle class="cls-4" cx="407.62" cy="153.07" r="2.71"/><circle class="cls-4" cx="417.86" cy="125.1" r="1.77"/><circle class="cls-4" cx="415.75" cy="106.89" r="1.77"/><circle class="cls-4" cx="348.54" cy="129.66" r="1.84"/><circle class="cls-4" cx="365.12" cy="158.17" r="1.84"/></g><g id="dot-6" data-name="dot"><circle class="cls-5" cx="81.05" cy="246.39" r="1.6" transform="translate(-203.78 248.83) rotate(-75.66)"/><circle class="cls-5" cx="71.89" cy="282.45" r="2.98" transform="translate(-245.61 267.07) rotate(-75.66)"/><circle class="cls-5" cx="87.2" cy="273.37" r="1.6" transform="translate(-225.29 275.1) rotate(-75.66)"/><circle class="cls-5" cx="96.29" cy="237.64" r="2.63" transform="translate(-183.84 257.01) rotate(-75.66)"/><circle class="cls-5" cx="107.82" cy="291.63" r="2.46" transform="translate(-227.48 308.8) rotate(-75.66)"/><circle class="cls-5" cx="123.14" cy="282.55" r="1.6" transform="translate(-207.15 316.81) rotate(-75.66)"/><circle class="cls-5" cx="116.99" cy="255.58" r="2.65" transform="translate(-185.65 290.55) rotate(-75.66)"/><circle class="cls-5" cx="39.97" cy="222.69" r="2.71"/><circle class="cls-5" cx="97.64" cy="277.86" r="2.71"/><circle class="cls-5" cx="107.88" cy="249.9" r="1.77"/><circle class="cls-5" cx="105.77" cy="231.68" r="1.77"/><circle class="cls-5" cx="38.56" cy="254.45" r="1.84"/><circle class="cls-5" cx="55.15" cy="282.96" r="1.84"/></g><g id="dot-7" data-name="dot"><g id="dot-8" data-name="dot"><circle class="cls-6" cx="331.37" cy="125.85" r="1.6" transform="translate(18.44 318.97) rotate(-56.77)"/><circle class="cls-6" cx="311.01" cy="156.99" r="2.98" transform="translate(-16.81 316.01) rotate(-56.76)"/><circle class="cls-6" cx="328.45" cy="153.36" r="1.6" transform="translate(-5.9 328.95) rotate(-56.76)"/><circle class="cls-6" cx="348.61" cy="122.51" r="2.63" transform="translate(29.02 331.87) rotate(-56.76)"/><circle class="cls-6" cx="342.04" cy="177.32" r="2.46" transform="translate(-19.79 351.15) rotate(-56.76)"/><circle class="cls-6" cx="359.47" cy="173.69" r="1.6" transform="translate(-8.88 364.09) rotate(-56.76)"/><circle class="cls-6" cx="362.39" cy="146.18" r="2.65" transform="translate(15.45 354.1) rotate(-56.76)"/><circle class="cls-6" cx="319.94" cy="112.81" r="2.71" transform="translate(83.54 363.89) rotate(-71.1)"/><circle class="cls-6" cx="356.63" cy="183.69" r="2.71" transform="translate(41.29 446.53) rotate(-71.1)"/><circle class="cls-6" cx="375.37" cy="160.55" r="1.77" transform="translate(75.86 448.62) rotate(-71.1)"/><circle class="cls-6" cx="379.27" cy="142.63" r="1.77" transform="translate(95.45 440.2) rotate(-71.1)"/><circle class="cls-6" cx="308.32" cy="142.4" r="1.84" transform="translate(47.68 372.91) rotate(-71.1)"/><circle class="cls-6" cx="314.77" cy="174.75" r="1.84" transform="translate(21.45 400.89) rotate(-71.1)"/></g><g id="dot-9" data-name="dot"><circle class="cls-6" cx="411.34" cy="199.84" r="1.6" transform="translate(-7.32 419.26) rotate(-56.76)"/><circle class="cls-6" cx="390.99" cy="230.98" r="2.98" transform="translate(-42.56 416.34) rotate(-56.76)"/><circle class="cls-6" cx="408.42" cy="227.35" r="1.6" transform="translate(-31.65 429.27) rotate(-56.76)"/><circle class="cls-6" cx="428.59" cy="196.5" r="2.63" transform="translate(3.28 432.21) rotate(-56.76)"/><circle class="cls-6" cx="422.01" cy="251.31" r="2.46" transform="translate(-45.54 451.48) rotate(-56.76)"/><circle class="cls-6" cx="439.45" cy="247.68" r="1.6" transform="translate(-34.63 464.41) rotate(-56.76)"/><circle class="cls-6" cx="442.36" cy="220.17" r="2.65" transform="matrix(0.55, -0.84, 0.84, 0.55, -10.29, 454.42)"/><circle class="cls-6" cx="399.91" cy="186.8" r="2.71" transform="translate(67.61 489.59) rotate(-71.1)"/><circle class="cls-6" cx="436.6" cy="257.68" r="2.71" transform="translate(25.36 572.22) rotate(-71.1)"/><circle class="cls-6" cx="455.35" cy="234.54" r="1.77" transform="translate(59.92 574.3) rotate(-71.1)"/><circle class="cls-6" cx="459.25" cy="216.62" r="1.77" transform="translate(79.51 565.89) rotate(-71.1)"/><circle class="cls-6" cx="388.29" cy="216.39" r="1.84" transform="matrix(0.32, -0.95, 0.95, 0.32, 31.75, 498.59)"/><circle class="cls-6" cx="394.75" cy="248.74" r="1.84" transform="translate(5.52 526.58) rotate(-71.1)"/></g><g id="dot-10" data-name="dot"><circle class="cls-6" cx="291.9" cy="49.19" r="1.6" transform="translate(64.71 251.3) rotate(-56.76)"/><circle class="cls-6" cx="271.54" cy="80.34" r="2.98" transform="translate(29.47 248.36) rotate(-56.77)"/><circle class="cls-6" cx="288.98" cy="76.71" r="1.6" transform="translate(40.38 261.3) rotate(-56.76)"/><circle class="cls-6" cx="309.14" cy="45.85" r="2.63" transform="translate(75.31 264.22) rotate(-56.76)"/><circle class="cls-6" cx="302.57" cy="100.67" r="2.46" transform="translate(26.48 283.49) rotate(-56.76)"/><circle class="cls-6" cx="320" cy="97.04" r="1.6" transform="translate(37.39 296.43) rotate(-56.76)"/><circle class="cls-6" cx="322.92" cy="69.52" r="2.65" transform="translate(61.73 286.44) rotate(-56.76)"/><circle class="cls-6" cx="280.47" cy="36.16" r="2.71" transform="translate(129.37 274.72) rotate(-71.1)"/><circle class="cls-6" cx="317.15" cy="107.03" r="2.71" transform="translate(87.13 357.36) rotate(-71.1)"/><circle class="cls-6" cx="335.9" cy="83.89" r="1.77" transform="translate(121.7 359.45) rotate(-71.1)"/><circle class="cls-6" cx="339.8" cy="65.98" r="1.77" transform="matrix(0.32, -0.95, 0.95, 0.32, 141.28, 351.03)"/><circle class="cls-6" cx="268.85" cy="65.75" r="1.84" transform="translate(93.52 283.74) rotate(-71.1)"/><circle class="cls-6" cx="275.3" cy="98.09" r="1.84" transform="translate(67.29 311.72) rotate(-71.1)"/></g><g id="dot-11" data-name="dot"><circle class="cls-6" cx="382.34" cy="215.02" r="2.64" transform="translate(-33.11 401.9) rotate(-56.76)"/><circle class="cls-6" cx="348.87" cy="266.24" r="4.89" transform="translate(-91.08 397.05) rotate(-56.76)"/><circle class="cls-6" cx="377.54" cy="260.27" r="2.64" transform="translate(-73.13 418.32) rotate(-56.76)"/><circle class="cls-6" cx="410.71" cy="209.53" r="4.33" transform="translate(-15.7 423.13) rotate(-56.76)"/><circle class="cls-6" cx="399.89" cy="299.67" r="4.05" transform="translate(-95.99 454.83) rotate(-56.76)"/><circle class="cls-6" cx="428.56" cy="293.7" r="2.64" transform="translate(-78.04 476.11) rotate(-56.76)"/><circle class="cls-6" cx="433.36" cy="248.46" r="4.36" transform="translate(-38.02 459.68) rotate(-56.76)"/><circle class="cls-6" cx="363.55" cy="193.58" r="4.46" transform="translate(36.61 459.76) rotate(-71.1)"/><circle class="cls-6" cx="423.88" cy="310.14" r="4.46" transform="translate(-32.88 595.66) rotate(-71.1)"/><circle class="cls-6" cx="454.72" cy="272.09" r="2.9" transform="translate(23.98 599.11) rotate(-71.1)"/><circle class="cls-6" cx="461.13" cy="242.63" r="2.9" transform="translate(56.18 585.24) rotate(-71.1)"/><circle class="cls-6" cx="344.44" cy="242.25" r="3.03" transform="translate(-22.36 474.59) rotate(-71.1)"/><circle class="cls-6" cx="355.06" cy="295.44" r="3.03" transform="translate(-65.5 520.6) rotate(-71.1)"/></g></g><g id="dot-12" data-name="dot"><circle class="cls-4" cx="88.04" cy="102.28" r="1.6" transform="translate(-45.27 169.11) rotate(-86.64)"/><circle class="cls-4" cx="85.91" cy="139.42" r="2.98" transform="translate(-84.35 201.95) rotate(-86.64)"/><circle class="cls-4" cx="99.21" cy="127.59" r="1.6" transform="translate(-60.01 204.1) rotate(-86.64)"/><circle class="cls-4" cx="101.33" cy="90.79" r="2.63" transform="translate(-21.29 171.56) rotate(-86.64)"/><circle class="cls-4" cx="122.93" cy="141.59" r="2.46" transform="translate(-51.66 240.96) rotate(-86.64)"/><circle class="cls-4" cx="136.24" cy="129.76" r="1.6" transform="translate(-27.32 243.1) rotate(-86.64)"/><circle class="cls-4" cx="125.06" cy="104.45" r="2.65" transform="translate(-12.58 208.12) rotate(-86.64)"/><circle class="cls-4" cx="71.63" cy="96.67" r="2.71" transform="translate(-43.15 0.35) rotate(-10.98)"/><circle class="cls-4" cx="138.75" cy="139.85" r="2.71" transform="translate(-50.15 13.93) rotate(-10.98)"/><circle class="cls-4" cx="143.48" cy="110.44" r="1.77" transform="translate(-44.46 14.29) rotate(-10.98)"/><circle class="cls-4" cx="137.94" cy="92.97" r="1.77" transform="translate(-41.23 12.92) rotate(-10.99)"/><circle class="cls-4" cx="76.3" cy="128.12" r="1.84" transform="translate(-49.06 1.81) rotate(-10.98)"/><circle class="cls-4" cx="98.01" cy="152.94" r="1.84" transform="translate(-53.39 6.4) rotate(-10.98)"/></g><g id="dot-13" data-name="dot"><circle class="cls-7" cx="70.46" cy="129.89" r="2.64" transform="translate(-89.38 177.56) rotate(-86.64)"/><circle class="cls-7" cx="66.95" cy="190.98" r="4.89" transform="translate(-153.66 231.57) rotate(-86.64)"/><circle class="cls-7" cx="88.84" cy="171.52" r="2.64" transform="translate(-113.63 235.1) rotate(-86.64)"/><circle class="cls-7" cx="92.31" cy="111" r="4.33" transform="translate(-49.94 181.58) rotate(-86.64)"/><circle class="cls-7" cx="127.85" cy="194.55" r="4.05" transform="translate(-99.9 295.72) rotate(-86.64)"/><circle class="cls-7" cx="149.73" cy="175.09" r="2.64" transform="translate(-59.87 299.24) rotate(-86.64)"/><circle class="cls-7" cx="131.35" cy="133.46" r="4.36" transform="translate(-35.62 241.71) rotate(-86.64)"/><circle class="cls-7" cx="43.48" cy="120.67" r="4.46" transform="translate(-48.24 -4.57) rotate(-10.98)"/><circle class="cls-7" cx="153.87" cy="191.67" r="4.46" transform="translate(-59.75 17.76) rotate(-10.98)"/><circle class="cls-7" cx="161.64" cy="143.31" r="2.9" transform="translate(-50.39 18.35) rotate(-10.98)"/><circle class="cls-7" cx="152.52" cy="114.57" r="2.9" transform="translate(-45.08 16.08) rotate(-10.98)"/><circle class="cls-7" cx="51.15" cy="172.38" r="3.03" transform="translate(-57.95 -2.17) rotate(-10.98)"/><circle class="cls-7" cx="86.86" cy="213.21" r="3.03" transform="translate(-65.08 5.38) rotate(-10.98)"/></g><g id="dot-14" data-name="dot"><circle class="cls-4" cx="379.46" cy="151.68" r="1.31" transform="translate(112.47 466.68) rotate(-75.66)"/><circle class="cls-4" cx="371.94" cy="181.25" r="2.44" transform="translate(78.17 481.65) rotate(-75.66)"/><circle class="cls-4" cx="384.5" cy="173.8" r="1.31" transform="translate(94.83 488.21) rotate(-75.66)"/><circle class="cls-4" cx="391.95" cy="144.5" r="2.16" transform="translate(128.85 473.4) rotate(-75.66)"/><circle class="cls-4" cx="401.41" cy="188.79" r="2.02" transform="translate(93.04 515.86) rotate(-75.66)"/><circle class="cls-4" cx="413.97" cy="181.34" r="1.31" transform="translate(109.72 522.44) rotate(-75.66)"/><circle class="cls-4" cx="408.93" cy="159.21" r="2.18" transform="translate(127.35 500.9) rotate(-75.66)"/><circle class="cls-4" cx="341.08" cy="129.53" r="2.22"/><circle class="cls-4" cx="388.38" cy="174.78" r="2.22"/><circle class="cls-4" cx="396.78" cy="151.84" r="1.45"/><circle class="cls-4" cx="395.04" cy="136.91" r="1.45"/><circle class="cls-4" cx="339.92" cy="155.58" r="1.51"/><circle class="cls-4" cx="353.53" cy="178.96" r="1.51"/></g></g><g id="global"><path class="cls-3" d="M244.55,404c16.68.08,18.82.09,32.09-1.34l.28-.19c-17.66,1.59-18.72,1.68-31.77,1.41l-.59.12m17.11-5.34c7.51-1.33,17.48-3.4,24.88-5.22l.27-.33c-7.27,1.78-17,3.92-24.39,5.22l-.76.33m15.24-8.32,12.38-.6.21-.31-12.13.6-.47.31m29.1,7.53c2.4-.9,4.68-2.18,4-2.88l-11.23,4.31c2,.23,5.47-.79,7.19-1.43m-9.72-21.18.07.14.06-.14h-.13M341.58,345l1-.82,6.56-11-.07,0-.51.12c-2.1,3.51-4.81,8.25-7,11.69m44.86-20.66c1.46-2.27,2.39-5.12,1.34-6.2l-3.08,8.39a14.66,14.66,0,0,0,1.73-2.2M379.07,307l.41-.55-1.14-3.52-.43.47,1.16,3.6m-70.26,87.8a19.34,19.34,0,0,0-4.43.82c-.3-1.71-.71-4-1.1-5.67,5.07-1.45,9.61-4.49,8.12-6.9,17.09-8.85,42.91-22.22,69.16-54.75l.33.21H381c-36.85,55.94-71.89,66.28-72.17,66.28m-10.26,4.47,11.32-4.35-.29-.08c21.89-11.59,47.28-27.23,71.72-66.29,2.22-.5,2.22-.5,6.21-10.58a4.78,4.78,0,0,0-1.82.3c3-14.14,3.34-15.62,5-28.24l-.46.78c-2.07,14.26-2.44,16.83-5,27.72-.45.34-1,.82-1.45,1.21-1.3-3.86-3-9-4.2-12.89l-.41.55c1.21,3.9,2.81,9.11,4,13-3.74,4.57-3,6.9-2.79,7.66-12.32,14.43-30.94,36.24-69.21,54.77l-.75-.39c17.11-17.19,18.89-19,31.57-37.27l-1.05.81c-12.28,17.46-16,22.12-31.62,36.22a17.85,17.85,0,0,0-8.59,1.69l-3.65-7.19-.37.8,3.39,6.68c-3.18,1.73-4.38,2.7-4.78,4.7l-5.17.5-.21.31,5.44-.52a4,4,0,0,0,1,1l-8.8,2.76-.27.34,9.44-2.95c1.47.3,2.54.52,5.84-.18.36,1.7.87,4,1.12,5.7-14.8,4.94-14.8,4.94-26.12,6.6l-.28.19c6.29-1,14.66-2.44,20.88-3.8.16-.05.24.32.34.46M390.32,290l.45-.78.24-2.06-.43.61-.26,2.24m.34-2.93.43-.61.09-.82a9.22,9.22,0,0,1-.23-1.25l-.29,2.68M131.07,357.2l-.33-.14a272.11,272.11,0,0,1-25.63-32,73.13,73.13,0,0,1,.4-7.61c1.16,1.3,1.95,1.55,2.81.89,7.69,15.15,13.33,25.33,22.8,38.88l0,0M84,253.63a4.58,4.58,0,0,0,1.16-2.22c3.14,13.35,7,30,18.7,57.94-1.23,2.07,0,5.88,1.41,7.84a69.38,69.38,0,0,0-.36,7.55c-4.07-9.25-14.87-33.8-20.92-71.11m51.18,107.42c0-.39-.1-1.58-3.83-3.7-9.6-13.79-15.25-24-22.93-39.17a5.79,5.79,0,0,0,.35-.67c25.94,25.58,44.42,39.22,62.6,52.06-.13,1.31.11,1.7,1.37,3.1a14.35,14.35,0,0,0,8,3.41,229.57,229.57,0,0,0,16.13,18.8,10.74,10.74,0,0,1-2.26,0c-11.93-5.08-34.13-14.53-59.46-33.86m-30.49-52.2a1.81,1.81,0,0,0-.69.33c-2.61-6.39-10.57-25.84-15.2-43.71-1.12-4.32-3-10-3.52-14.45-.4-3.72,1.05-7.32.78-11,2.17-5,5.45-11.56,8.15-16.32a11.67,11.67,0,0,0,.57,1.77c1.16,2.38,2.19,3.17,4.09,3.11-.45,16.37-1.2,43.77,5.93,80.3h-.11m4.15,8.38a8.69,8.69,0,0,0-.91-5.38c5.14-5.37,11.53-12.06,36.67-26.49a21.72,21.72,0,0,0,1.25,2c4.9,6.08,9.36,8.29,16.43,8.16,2.55,17.66,2.55,17.66,12.58,72.4-1.28,0-2.68.22-3.39,1.37a458.88,458.88,0,0,1-62.63-52.06m-1.1-5.76c-1.19-2.09-2-2.38-2.72-2.61a341.55,341.55,0,0,1-5.83-80.39c1.48-.44,3.7-1.59,5.93-6.51a563.18,563.18,0,0,0,39.35,41.67c-3.66,7.31-3.7,13.25-.14,21.19-11.87,7-28.12,16.64-36.57,26.65M86,239.41c-.33-2.6-.82-4.19-1.56-5,5-33.11,12.74-59.35,37.39-95.5a2.44,2.44,0,0,0,1.1.57c-10.75,23.73-14.66,36-19.92,62.42-5.74-.77-10.57,10.75-8.91,21.26-2.68,4.74-5.94,11.24-8.1,16.24m97.73,132.25a13.55,13.55,0,0,0-8.33-3.71c-9.9-53.49-9.9-53.49-12.55-72.49A15.37,15.37,0,0,0,174,288.21c26.09,16,54.91,32.9,94.84,48.31a8.15,8.15,0,0,0,1.73,6.32c-34.07,18.11-56.79,25.65-86.81,28.81M158,255.94c-3.71-.09-9,1.08-13.18,7.2-11.35-11.12-23.08-22.62-39.41-41.74,2.09-5.83,2.41-10.26,1.12-15.29,13.93-17.3,32.23-37.62,73.42-59.79l.13.31a7.47,7.47,0,0,0,4.87,4c-16,40.33-21.07,67.14-25.28,105.39-.5,0-1.17-.12-1.67-.13m123.66,70c-1.06.11-10.41,1.32-12.69,9.95-27.89-11-53.45-22.84-94.65-48.21,3.12-6.29,3.34-11.35.82-18.64,82.77-36.25,84.36-36.94,109.34-49,2.93,2.95,5.48,4,9.74,3.9-4.94,33.84-7.16,68-11.34,101.91-.37,0-.86,0-1.22.08M174.87,268.45c-4.19-9-10.37-11.33-14.65-12.29,4.32-38.69,9.41-65.6,25.27-105.33,1.68.29,6.16,1.07,11.82-3.15,34,25.81,57.26,41.61,85.9,58.28-2.44,5.26-2.21,9.08.83,13.63-23,11-23,11-109.17,48.86M137.65,124.34c0-.34.07-.79.08-1.13,12.73-8.81,21.14-14.64,39.85-22.84,3,3.06,10.77-.11,13.72-4.57,20.09-1.83,26.08-2.1,49.64-1.15a8.14,8.14,0,0,0-.25.87c-22,1.64-63,4.69-103,28.82m-31.32,81.31c-.8-1.9-1.45-2.92-3-3.62,5.43-26.74,9.72-40.17,20-62.49,6-.54,12.49-8.21,14.26-14.7,16.13-9,46.15-25.75,103.08-28.94a7.59,7.59,0,0,0,.17,1.39,5.3,5.3,0,0,0,1.84,2.39c-15.67,8.63-26.43,15.06-43.82,31.61-8.8-3.72-21.09,3.93-19.09,14.54-25.09,14-51.35,31-73.41,59.82M293,198.59a15.13,15.13,0,0,0-9.49,6.79c-21.93-12.91-45-27.08-85.68-58.16a13.88,13.88,0,0,0,4.81-7.71c23.71-2.82,40.94-4.61,94-5.85a4.72,4.72,0,0,0,.69,2.77c1.58,2.23,3.4,3.21,6.94,3.75C300,153,296,165.1,293.86,198.42l-.84.17M202.73,139a7.22,7.22,0,0,0-3.43-7.39c12.53-11.36,23.36-21.18,43.75-31.6,6.93,3.87,15,1,16.57.38,10.58,7.15,25.08,16.95,42.9,27.32-3.54,1.43-5.11,3-5.78,5.61-34.55.79-63.4,1.71-94,5.69m91,192.85c-1.84-3.74-5.08-5.62-10.2-5.92,4.06-34,6.27-68.13,11.27-102a14.92,14.92,0,0,0,12.65-15.7c25.69-12.44,38-19.4,55.73-33.69a2,2,0,0,0,2.22-.06c-.94,18.27-.94,18.27,2.71,98-3.77,4-7.24,10.85-4.61,17.15C342,308,328.26,317.15,293.79,331.8h0m13.66-124.21c-.52-3-2.81-9.94-12.94-9.27,1.3-18.25,2.53-35.48,10.38-58.09a15.53,15.53,0,0,0,8.44-1.89c17.21,13.45,31.48,23.58,49.43,32.5-.52,1.51-.47,2.47.19,3.41-11.82,9.3-22,17.33-55.5,33.34m68.58,62c-3-1.18-6.32,1.52-7.41,2.41-3.84-79.74-3.84-79.74-2.79-97.8.15-.13.34-.3.48-.44,4.39,10,8.54,19.45,21.74,42.53-4.14,8.91-3,19.7,2.07,19.57-4.87,14.79-6,18.3-13.21,34.2a9.4,9.4,0,0,0-.88-.47M317.23,130.4c-4.69-5.61-13.74-3.06-14.13-2.95-9.79-5.81-22-13-42.94-27.36a13.67,13.67,0,0,0,1.73-.94c30.62,12.2,50.85,20.25,71.51,26.67-1.36,1.43-1.59,2.5-.87,4.11l-15.3.47m-3.44,7.67c3.62-2.48,4.63-4.54,3.62-7.34l15.29-.52c2.36,2.68,5.69,3.48,11.12,2.68a248.59,248.59,0,0,0,19.88,36.37,5.05,5.05,0,0,0-.75,1.11c-14.54-7.42-27.84-15.42-49.18-32.3m52.82,35.28c2.17-3.32,1.08-5.69-.77-5.47a3.77,3.77,0,0,0-1.8,1,248.89,248.89,0,0,1-19.72-36.1l.17,0a271.09,271.09,0,0,0,29.59,36.44c2.17,9.2,4.64,19.62,13.87,46-13.16-23.1-17.13-32.21-21.34-41.85M203.25,398.27c13.55,1.44,26.79,5.06,40.45,5.72l.59-.12c-12.76-.88-23.79-1.65-40.66-5.61,23.13,2.29,33.69,3.33,56.92.58l.76-.33c-21.16,2.24-33.69,2.89-57.17-.89-11.08-6.51-11.08-6.51-22.83-21.5a8.74,8.74,0,0,0,3.37-1.12c26,7.68,52.95,15.63,91.51,15.37l.47-.31c-17.59-.22-47-.59-91.75-15.59l-.38-1.79c32.56-6.1,48.9-9.16,86.41-29.38,3.2,2.8,4.46,3.15,8.93,3.52,5.74,8.88,5.74,8.88,11.95,21.14-3.27-7.94-3.27-7.94-9.85-21.29,4.11-.83,13.5-3.9,12-14.32,17.71-7.53,44.46-18.92,69.82-42.35a10.52,10.52,0,0,0,2.74,2.12c-5.47,16.09-5.47,16.09-11.24,28.28,7.37-15,7.37-15,12.17-28.11,2.87-.31,2.87-.31,5.23-1.82,1.65,3.7,3.83,8.65,5.09,12.5l.43-.47c-1.29-3.91-3-9.13-4.34-13,1.55-1.7,9-10.6,3.32-19.15,6.45-14.59,8-18.05,13.23-34.5l1.76-.95c1.07,13.3,1.36,16.87-.61,42.8.77-2.69,1.91-18.61,1.92-44.24,3.06-4.91,5.45-15.27.84-21.93-2.75-.33-2.75-.33-5.16,2.7-7.34-14.52-12.8-36.54-14.81-45.34l-.15.15.12-.22A269,269,0,0,1,345,132.64c3.53-1.13,9-3.53,6.06-6.91a18.34,18.34,0,0,0-14.8-1.51c-3.45,1.68-10.33,0-73.9-25.35,6.58-5.61-1.87-9.06-6.51-9.56-4.47-.48-10.64,0-14.68,5-23.44-.93-29.47-.8-49.59,1.08A5.48,5.48,0,0,0,191,92a47.73,47.73,0,0,0-12.51,4l-.46.57c-1.92,4.42-8.91,6.93-13.13,9.28-15,8.35-16.94,9.42-27.23,16.94l-.7-1.62a177.75,177.75,0,0,0-15.76,14.18l-.12.69c.32,4.84-4.88,10.23-7.34,14.41-16.88,28.71-24.86,51.43-29.47,83.81-9.55,4.06,10.24,68,20.7,90.8l0,0v.1A272.17,272.17,0,0,0,130.54,357c1.68,4,47.61,31.33,63.83,37.93.93,1.3,1.82,2.53,8.89,3.34" transform="translate(-26.05 -15.07)"/><path class="cls-3" d="M211,404c2.34.38,4.63,1,7,1.43l-.23.1L211,404m40.19,5.23c-17.31-.9-18-.94-29.15-2.86l-3.69-.71a1,1,0,0,1,.49-.06c1.5.28,6.54,1.18,8.46.94,3.86.32,9,.87,12.86,1.08,4.58.25,9.19-.87,13.74.37a32.19,32.19,0,0,0,7.11.47c-2.38.3-5.55.73-7.95.78l-1.88,0m28.89-1.91c-7.87.87-18.4,1.65-26.31,1.94,15.83-1.17,18-1.54,20.48-2,3.54-.15,8.26-.46,11.77-.94l-5.94,1m-52.66-.8c-.25-.42-.29-.49-2.33-1,12.5-.19,12.74-.19,19.42-1.48l.59-.12c5-1.33,11.66-3.38,16.52-5.22l.76-.33c4.43-2.25,10.27-5.38,14.49-8l.47-.31c5.19-3.85,11.86-9.31,16.69-13.6a10.75,10.75,0,0,0,2.22.27h.13l-.06.14c-1.92,3.85-4.61,8.93-6.86,12.6l-.21.31-2.47,3.37-.27.33a98.84,98.84,0,0,1-9.63,9l-.28.19a8,8,0,0,1-3.56,1.32c-5.06.07-18.54,1.5-20,3.4l.12.28c-7.71-.06-18-.5-25.68-1.14m107.9-17.1c-16.85,7.91-17.17,8.06-27,11.29-6.4,1.79-15,4.08-21.47,5.47-3.59.45-8.4.89-12,1,3.26-.67,4.46-1.05,5.57-1.76l.13-.63-.45-.27c5.65-1.46,13.17-3.43,18.73-5.21L310,395c25.8-12.23,35.94-19.22,57.15-39.34l.15,0c1.5,0,2.33-.23,4.61-1.6-5,10.63-8.75,17.62-19.17,25-5.17,3.19-12,7.61-17.42,10.35m67-60.54c-10.55,14.85-11,15.43-18,23.13-13.18,13.19-13.7,13.71-22.13,20.27l-8.73,6.34A79.72,79.72,0,0,0,364,368.77c3.72-4.48,5.08-10.3,8.47-15,2-2.8,5.25-4.34,7.43-7,.57-.69,1.24-1.64,1.49-2,12.19-7.08,18.06-11.43,27.17-26.15l-6.2,10.24m-11.55-39.68-.45.78c-3.16,5-7.41,11.62-10.83,16.42l-.41.55c-13.79,17.16-18.45,22.25-36.45,37.19l-1,.82c-14,10.18-16.57,12-30.22,19.7a8.36,8.36,0,0,0-.68-.78c12.89-9.44,21.41-15.68,35.79-30.59,5.17.67,11.11-5.43,10.42-10.7,13.18-11,14-11.69,21-19.23l.43-.47c3.77-4.46,8.76-10.45,12.23-15.14l.43-.61.45-.65c.12.23.28.54.42.76l-1.11,1.95M309.87,394.9l-11.32,4.35c-16.38,4.9-16.38,4.9-23.46,4.73l2.24-1.39.28-.19a99.78,99.78,0,0,0,9.72-9.17l.27-.34,2.34-3.2.21-.31c2.09-3.49,4.76-8.23,6.55-11.88l.36-.8c8.81-.55,16.27-6.56,14.5-11.69,15.72-9.19,17.75-10.37,29.36-19l1.05-.81c17.87-14.91,22.64-19.43,37.23-37.79l.41-.55c3.26-4.76,7.61-11.11,10.61-16l.46-.78,1.4-2.45a5.78,5.78,0,0,0,.93.74,2.91,2.91,0,0,0,2.29-.08c-3.3,15-3.9,17.69-7.78,29.74L384.18,327c-1.47,3.36-2.35,9.09-5.54,10.91-4.89,2.8-15.46,14.54-11.68,17.64-10.7,10.14-28.61,27.12-57.09,39.32M425.52,276.09c-4.92,16.6-5.21,17.6-9.42,27.33-2.11,4.35-4.83,10.2-7.14,14.45-7.83,12.4-12.2,17.89-27.25,26.41,1.77-2.84,2.42-4.47,2.46-6.22,12.52-14.68,33.47-39.26,40.95-83.25l.31.44.36,0c.57-.81,1-1.45,1.72-5.72.63,5.59,1.28,11.37.25,16.69l-2.23,9.89m-41.4,61.7c-.55-1.91-2.35-1.4-4-.64l4.61-10.63,3.08-8.39c4.51-14.7,5.09-16.59,7.86-30.08,5.64-3.59,7.16-12.41,7.4-14.14,6.21-4.69,15.59-11.77,21.48-27.7-.07,4.53.06,6.64.51,8.38-3.8,18.52-10.16,49.52-40.91,83.21m46.28-90.51c-.68,5.49-1.57,12.82-2.53,18.26.16-1.42.52-3.31.53-4.74,0-4-.76-7.9-.82-11.88,0-2.47.5-4.9.52-7.36,0-1,0-1.59,0-2.35,1.66-7.15,3.54-15.25,1.27-31.87,1.33,12.63,2.59,24.56,1.06,39.94m-4-15.69c-1.15,3.94-1.58,5.41-1.86,13.91-3.53,8.35-7.93,18.73-21.42,27.77a20.8,20.8,0,0,0,.12-2.15c7.93-10.17,21.19-27.2,20.82-60.31.89,2.91,1.15,3,1.57,3.05.31,5.31,2.25,12.62.76,17.73m2.8-25.32c1.08,9.34,2.31,19.93-1.14,32.31-.27-4.76-.76-6.93-1.56-7.06-.11-3.91-.16-9.12-.38-13-.08-1.42-.29-3.31-.4-4.72,0-.17.14-.36.2-.52s.76-2.15-1.1-11.74c1.91-1,3.25-2.25,1.84-8.94.81,4.1,2,9.55,2.55,13.68M423.89,182c.78,3,1.9,6.92,2.6,9.91.71,3.8,1.45,7.73-1.82,9l-.05-.24c1.11-2.88,2.63-6.83-.79-18.91l.07.24m0,0-.36-1.2c1.89,7,3.39,13.7.93,19.2-1.51-6-2.13-7.67-3.79-11.23l-.81-.14c3.38,50.49,3.89,58.25-16.62,82-.28-3-.28-3-1.64-5-11-.93-6.79,14.05-10.51,20.92l-.43.61c-3.63,4.71-8.53,11-12.45,15.43l-.43.47c-11.86,11.86-12.57,12.57-21,19.2-3.89-5.94-11.56,1.9-12.62,5.7-.92,3.28.85,4.6,1.7,5.24-10.07,10.22-18,18.29-35.52,30.52-9.39-4.86-21.54,4.72-20.38,9.48a5.77,5.77,0,0,0,2.19,2.63c-8.08,9.35-8.08,9.35-15.46,14.32l-.47.31c-4.38,2.6-10.3,5.94-14.89,8.14l-.76.33c-4.81,1.73-11.3,3.81-16.26,5l-.59.12c-12.43,1.66-12.43,1.66-19,1.41a151.63,151.63,0,0,0-16.64-2.87,12.47,12.47,0,0,0,3.25,1.43l-.87-.08,11.63,2.52c16.07,2.33,17.75,2.57,29.15,2.86,17.25-.38,18.29-.4,28.89-1.91,17.56-3.31,18.24-3.44,28.21-6.61,17.07-6.26,17.73-6.51,27-11.29,15.83-9,17.12-9.78,26.82-17.14,14.68-12.32,15-12.55,22.13-20.27,12.09-14.21,12.32-14.48,18-23.13,9.21-15.41,9.57-16,13.78-25.47,6.49-16.47,6.74-17.11,9.42-27.33,3.62-16.72,3.84-17.72,4.88-28.81.71-13.82,1.17-23-1.16-40.65-2-11.67-2.64-15.2-5.36-24.66" transform="translate(-26.05 -15.07)"/><path class="cls-3" d="M84.08,180.66l3.72-11c2.69-6.42,6.44-14.91,9.54-21.14,4.45-6.87,4.72-7.28,9.63-11.21a6.78,6.78,0,0,0-.47,1.63v0c-8.56,11.3-16,21.06-22.42,41.72m-4.25,17.19.07-.35c1.12-4.75,2.54-11.12,3.88-15.81,4.72-13.64,8.8-25.42,22.72-42.49l.16.42c.36.08.64.15,1.74-.67-4.07,13.72-4.07,13.72-5.39,15.81a18.38,18.38,0,0,0-2.12,4.77c-7.84,8-16.73,17.08-21.07,38.32m17.87-50,2.43-4.36c9.63-15.32,10-15.91,16.59-24l7.33-8.36c-1.53,1.88-3.78,4.23-5.11,6.25-.09.14-10.77,17.35-11.75,19.4-5.69,5.06-6.28,5.59-9.49,11m9.3,4c-.88-.36-.88-.36-2,.5,3.46-13.39,3.46-13.39,4.36-14.23s5.48-5.85,7.35-11.1c13.11-11.83,31.07-28,69.81-39l-.05.49,0,.08C163,99.7,139.71,112.3,113,144.36q-3.14,3.69-6,7.5m9.5-26.41c-.95-.13-3,2.06-3.71,2.89,4.87-9.17,5.75-10.83,11.85-17.83,6-5.88,14.31-13.42,20.76-18.8C161,80.61,161.32,80.4,170.6,75.41l12-5.84c9.1-3.46,18.52-7,33.11-8.85a7.88,7.88,0,0,0-.93.61l-.12.54c-21.06,6-60.27,17.09-98,63.7-.07,0-.14-.11-.21-.12m.26,1.23a3.91,3.91,0,0,0,0-1c51.67-61,101.68-63.21,102.17-63.22a144.77,144.77,0,0,0-14,9.2c-3.72,2.8-7,8.37-10.58,11.36-1.69,1.41-4.11,1-5.83,2.38a5.63,5.63,0,0,0-2,2.26c-17.28,5.36-43.38,13.47-69.84,39m79.89-43.58A6.1,6.1,0,0,0,195,83c16.62-19.66,25-20.54,25.13-20.55,2.8-.12,14.53-1.36,18.46-3.75,11.85-.11,29.77-.28,40.16,3.52-16.41-.45-47-1.27-81.85,20.93l-.2-.05m-13-14c4.17-1.6,9.67-3.88,13.91-5.31,17.22-5,17.89-5.21,28.15-6.9,17.54-2.11,18.22-2.2,28.86-2.21,16.66.7,18,.76,29.14,2.56,4.67,1,10.9,2.2,15.52,3.38-52.48-12.11-81.94-.58-83.17-.08-9.41,1.54-20.07,3.28-32.41,8.56m55.2-10.85c-.44-.55-.72-.91-4.68-1,15.05-2.08,35.67-4.93,68.22,4.19l10.47,3.33c4.66,1.8,10.85,4.25,15.42,6.26C307.23,62,277,59.39,275.55,60l-.13.33.27.39c-18.87-2.39-19.6-2.48-37-2.17a1,1,0,0,1,.16-.28m90,13.09c1.15.52,4.15,2,5.53,2.7h0L341,77.61c-1.56-.82-3.66-1.86-5.27-2.57C322.8,69,312.33,64.54,295,62.62c7.88.35,16,.71,33.83,8.76M100.63,160.93A162.33,162.33,0,0,1,118,138.72c11.88-12.69,31.77-33.93,68.51-49.8,4.78,3.44,11.46-3,11.58-3.84a4.45,4.45,0,0,0-.36-1.46c9.33-6,37.72-24.26,81.41-21.24.15,0,15.84,4.77,21.63,3.8-1.4-1.7-1.4-1.7-5.86-3.42,10.22,1.29,20.8,2.63,41.2,12.54l-.2-.12.26.15c1.65.75,3.83,1.81,5.43,2.66a198.75,198.75,0,0,0-28.78-13.14c-14-4.39-16.46-5.18-29.15-7.57-16.46-2.21-17.8-2.39-29.14-2.56-17.27.56-18.3.59-28.86,2.21-17.54,3.49-18.23,3.63-28.15,6.9-17,6.45-17.69,6.7-26.95,11.58-16.09,9.42-16.72,9.79-25.21,16.29-13.16,11-16.28,13.66-28.69,27.8-11.18,14.76-11.4,15-16.59,24-8.3,15.81-8.62,16.43-12.32,26.15C82.36,186,82,187,79.9,197.5l-.21,1.1c2.59-10.47,6.15-24.81,21.09-38.52.15-.21-.1.59-.14.85" transform="translate(-26.05 -15.07)"/><path class="cls-8" d="M399,154.76c-8.3-14.47-9.37-16.32-17.27-27.08l-.3-.15c10.24,14.48,10.85,15.34,17.17,26.77l.4.45m-13.21-12.12c-4.92-5.83-11.71-13.41-17-18.9l-.42-.06c5.19,5.39,11.93,12.76,16.76,18.47l.67.49m-14.85-9-6.74-10.41-.38,0,6.61,10.19.5.25m-8.1-28.94c-2-1.62-4.24-3-4.52-2.05l9.37,7.55c-.82-1.87-3.43-4.34-4.85-5.5m-13.44,19,.08-.13-.15,0h0l.06.11m-50.17-23.24L298,100l-12.82-.15.06.05.36.38c4.09.05,9.55,0,13.63.2M258.82,72.06c-2.7-.13-5.63.5-6,2l8.8-1.56a14.66,14.66,0,0,0-2.77-.4M247.51,87.14l-.68-.08-2.47,2.75L245,90l2.53-2.81m111.21,16.68a19.34,19.34,0,0,0,2.93,3.42c-1.32,1.12-3.09,2.61-4.35,3.8-3.79-3.66-8.71-6.05-10-3.56-16.23-10.34-40.76-26-82.07-32.33v-.39l0-.08c66.88,3.78,93.41,28.89,93.56,29.14m9,6.63-9.44-7.6.08.29C337.37,90,311.1,75.91,265,74.39c-1.55-1.67-1.55-1.67-12.27-.06a4.79,4.79,0,0,0,1.17,1.42c-13.75,4.49-15.19,5-26.93,9.87h.91c13.37-5.37,15.78-6.34,26.46-9.64.52.22,1.23.48,1.77.65-2.68,3.06-6.29,7.11-9,10.11l.68.08c2.76-3,6.46-7,9.28-10,5.83.94,7.48-.85,8-1.44C283.77,78.84,312,84,347.22,107.79l0,.85c-23.46-6.16-25.91-6.81-48.09-8.59l1.23.5c21.27,1.86,27.18,2.78,47.2,9.16a17.85,17.85,0,0,0,5.78,6.58L349,123.05l.88-.08,4.07-6.29c3.09,1.88,4.53,2.43,6.47,1.77l3,4.22.38,0-3.18-4.44a4,4,0,0,0,.33-1.36l6.8,6.22.42.06-7.29-6.68c-.48-1.43-.82-2.46-3.09-5,1.29-1.17,3-2.74,4.36-3.83C373.86,118,373.86,118,381,127l.3.15c-4-4.93-9.47-11.45-13.77-16.15-.13-.11.16-.37.23-.53M227.19,85.94h-.91l-1.9.83.74.06,2.07-.89m-2.71,1.18-.74-.06-.76.34a9.2,9.2,0,0,1-1,.82l2.46-1.1m191,189.29c0,.11,0,.24,0,.35A272.12,272.12,0,0,1,400.7,315a73.11,73.11,0,0,1-6.78,3.48c.54-1.66.36-2.46-.64-2.88,9.25-14.26,15.21-24.24,22.17-39.23v.05m-66,92.68a4.58,4.58,0,0,0-2.5.11c10-9.42,22.38-21.14,40.72-45.26,2.41,0,5.07-3,6.07-5.16a69.4,69.4,0,0,0,6.71-3.48c-6,8.16-21.77,29.83-51,53.79m67.21-98.2c-.32.22-1.31.88-1.27,5.17-7.1,15.23-13.11,25.25-22.37,39.5a5.79,5.79,0,0,0-.76,0c9.09-35.28,11.62-58.1,13.59-80.28,1.2-.55,1.42-.95,2-2.74a14.35,14.35,0,0,0-1.08-8.66A229.58,229.58,0,0,0,415,200.51a10.74,10.74,0,0,1,1.16,1.94c1.6,12.87,4.57,36.82.57,68.43m-29.84,52.57a1.81,1.81,0,0,0,.63.43c-4.22,5.47-17,22.11-30.17,35.09-3.17,3.14-7.13,7.66-10.73,10.3-3,2.22-6.86,2.76-9.93,4.87-5.43.65-12.73,1.1-18.21,1.15a11.69,11.69,0,0,0,1.24-1.39c1.48-2.2,1.64-3.49.64-5.1,14.38-7.83,38.46-20.93,66.47-45.44l.06.09m5.16-7.8a8.69,8.69,0,0,0-4.19,3.49c-7.23-1.75-16.22-3.92-41.32-18.42a21.72,21.72,0,0,0,1.1-2.09c2.8-7.29,2.47-12.25-1.19-18.3,14-11.07,14-11.07,56.3-47.23.67,1.09,1.53,2.21,2.88,2.24A458.88,458.88,0,0,1,392,315.65m-4.42,3.84c-1.21,2.08-1,3-.89,3.67a341.54,341.54,0,0,1-66.59,45.41c-1.12-1.06-3.23-2.4-8.61-1.86a563.15,563.15,0,0,0,16.28-55c8.16-.5,13.32-3.45,18.4-10.51,12,6.74,28.51,16,41.41,18.25m-51.41,55c-2.09,1.59-3.21,2.81-3.53,3.85C301.53,390.63,275,397.12,231.32,394a2.44,2.44,0,0,0-.06-1.23c25.92-2.62,38.47-5.39,64-14.11,2.22,5.35,14.61,3.74,22.85-3,5.44-.06,12.7-.51,18.11-1.15m65.31-150.92a13.55,13.55,0,0,0,1,9.07c-41.29,35.42-41.29,35.42-56.39,47.25a15.37,15.37,0,0,0-11.85-6c.73-30.6.89-64-5.84-106.28A8.15,8.15,0,0,0,333,163c32.76,20.37,50.69,36.23,68.5,60.61M314.38,304c1.78,3.26,5.46,7.25,12.85,7.78-3.92,15.4-8,31.32-16.31,55-6.09,1.12-10.09,3.07-13.78,6.71-22-3.36-48.72-9-88.57-33.48l.21-.27a7.47,7.47,0,0,0,1.06-6.24c42.92-6.4,68.64-15.48,103.83-31,.22.45.48,1.07.72,1.51m-1.53-142.1c.63.86,6.37,8.34,15,6,4.53,29.62,7.08,57.7,5.83,106.06-7,.46-11.49,2.81-16.53,8.65-72.9-53.39-74.3-54.41-97.26-70,1.08-4,.68-6.73-1.52-10.38,31.75-12.72,62.39-27.94,93.83-41.36.21.31.47.72.68,1m3.86,121.21c-5.68,8.14-4.59,14.65-3.27,18.84-35.63,15.69-61.46,24.79-103.78,31-.59-1.6-2.16-5.86-8.66-8.64,5.27-42.35,7.24-70.41,7.28-103.55,5.77-.53,9-2.65,11.37-7.56,21.07,14.37,21.07,14.37,97.07,69.88M210.78,387.62c-.31.14-.72.34-1,.5-14-6.59-23.27-10.94-39.76-23,1.12-4.16-5.51-9.26-10.84-9.57-11.67-16.46-14.91-21.5-25.92-42.35a8.11,8.11,0,0,0,.88-.22c12.48,18.22,35.7,52.14,76.66,74.65m86-13.73c-1.24,1.65-1.8,2.72-1.63,4.4C269.34,387,255.57,390,231.13,392.4c-3.49-4.93-13.37-6.68-19.88-5-15.88-9.43-45.44-27-76.78-74.61a7.61,7.61,0,0,0,1.12-.84,5.3,5.3,0,0,0,1.14-2.79c15.32,9.22,26.29,15.3,49.34,22,1.2,9.48,14,16.26,22.16,9.21,24.72,14.66,52.57,28.86,88.59,33.45M197,216a15.13,15.13,0,0,0,10.64,4.8c-.16,25.45-.83,52.5-7.28,103.3a13.88,13.88,0,0,0-9.08-.29c-14.35-19.09-24.55-33.09-52.27-78.37a4.72,4.72,0,0,0,2-2c1.14-2.49,1.07-4.55-.24-7.88,13.22-2.75,25.71-5.35,55.61-20.21.17.19.39.46.57.65m-6.25,108a7.22,7.22,0,0,0-4.67,6.68c-16.12-5.13-30-9.57-49.3-22-.13-7.94-6.68-13.49-8-14.52.87-12.74,2.07-30.2,2.09-50.82,3,2.34,5.12,2.94,7.75,2.18,18,29.48,33.31,54,52.12,78.44M311.81,148.45c-2.31,3.47-2.31,7.22,0,11.79C280.41,173.78,249.75,189,218,201.69A14.92,14.92,0,0,0,198,198.63c-23.65-16-35.84-23.1-57.12-31.28a2,2,0,0,0-1.17-1.89c16.27-8.36,16.27-8.36,83.38-51.54,5.33,1.27,13,.82,17.14-4.63C267,118.66,281.82,126,311.8,148.43h0M197.53,199c-2.34,2-7.19,7.42-1.52,15.85-16.43,8-32,15.63-55.45,20.18a15.53,15.53,0,0,0-5.87-6.35c3-21.64,4.59-39.07,3.29-59.07,1.57-.31,2.37-.83,2.85-1.87,14,5.55,26,10.35,56.7,31.26m19.18-90.44c.49,3.2,4.49,4.71,5.81,5.2-67,43.36-67,43.36-83.18,51.52-.19-.06-.43-.15-.62-.19,6.45-8.82,12.54-17.16,25.86-40.15,9.78-.9,18.54-7.3,15.89-11.61,15.24-3.21,18.86-4,36.21-5.75a9.42,9.42,0,0,0,0,1M125.86,229.28c-2.5,6.87,4.26,13.42,4.54,13.7-.11,11.38-.24,25.54-2.1,50.88a13.66,13.66,0,0,0-1.68-1c-4.83-32.61-8-54.15-12.84-75.23,1.92.46,3,.12,4-1.31,2.42,3.9,5.66,9.1,8.09,13m8.36-.88c-4-1.88-6.25-1.73-8.17.55-2.44-3.89-5.69-9.07-8.13-13,1.13-3.39.15-6.67-3.27-11a248.6,248.6,0,0,0,21.47-35.45,5.05,5.05,0,0,0,1.33.09c.88,16.31.65,31.82-3.24,58.74m4-63.4c-4-.21-5.46,1.92-4.35,3.41a3.77,3.77,0,0,0,1.79,1,248.89,248.89,0,0,1-21.32,35.18l-.12-.13a271.08,271.08,0,0,0,16.66-43.89c6.86-6.5,14.64-13.86,32.83-35.09-13.37,23-19.25,31-25.48,39.47m276.52,28.36c-5.55-12.44-9.07-25.71-15.36-37.85l-.4-.46c5.64,11.48,10.52,21.4,15.56,38-9.63-21.15-14-30.81-28.08-49.51l-.66-.49c12.56,17.17,19.41,27.69,27.94,49.89-.06,12.85-.06,12.85-7.14,30.54a8.73,8.73,0,0,0-2.66-2.36c-6.42-26.37-13.07-53.64-32.65-86.86l-.5-.25c8.64,15.32,23.1,41,32.58,87.17L402,222.39c-21.62-25.09-32.47-37.69-68.79-60,.82-4.18.48-5.44-1.44-9.49,4.8-9.43,4.8-9.43,12.28-20.94-5.22,6.82-5.22,6.82-13.47,19.21-2.78-3.13-10.15-9.72-18.4-3.18-15.4-11.53-38.68-29-71.68-39.12a10.52,10.52,0,0,0,.46-3.44c16.66-3.35,16.66-3.35,30.1-4.48-16.65,1.14-16.65,1.14-30.42,3.59-1.71-2.33-1.71-2.33-4.2-3.61,2.37-3.29,5.56-7.65,8.25-10.68l-.63-.14c-2.73,3.08-6.38,7.2-9.1,10.29-2.25-.49-13.68-2.44-18.23,6.75-15.85,1.75-19.62,2.16-36.48,5.88l-1.71-1c11-7.6,13.91-9.65,37.32-21-2.71.68-17.05,7.69-39.22,20.55-5.78-.18-15.94,3-19.38,10.28,1.1,2.55,1.1,2.55,4.92,3.11-8.87,13.64-25.18,29.42-31.77,35.57l.2.05h-.25a269,269,0,0,1-16.51,43.55c-2.75-2.49-7.58-6-9-1.77A18.34,18.34,0,0,0,111,216c3.19,2.14,5.19,8.93,15.18,76.64-8.16-2.87-6.9,6.17-5,10.43,1.83,4.1,5.34,9.2,11.67,10.2,11,20.74,14.11,25.88,25.83,42.35a5.48,5.48,0,0,0-2.63,2.1,47.73,47.73,0,0,0,9.73,8.82l.72.11c4.79-.56,10.47,4.23,14.61,6.7,14.76,8.79,16.65,9.92,28.32,15l-1.05,1.42a177.76,177.76,0,0,0,20.18,6.51l.66-.24c4-2.71,11.3-.92,16.15-.89,33.31.18,57-4.32,87.28-16.59,8.3,6.22,53.64-43,68.13-63.49l0,0,.08-.05a272.17,272.17,0,0,0,14.74-38c2.65-3.48,3.19-56.91.76-74.24.66-1.46,1.28-2.84-1.58-9.37" transform="translate(-26.05 -15.07)"/><path class="cls-8" d="M415.81,183.74c-.85-2.21-1.48-4.5-2.25-6.73l.2.15,2.05,6.58m-15.66-37.38c7.91,15.42,8.22,16,12.17,26.64l1.24,3.55a1,1,0,0,1-.3-.4c-.51-1.44-2.26-6.25-3.43-7.79-1.66-3.5-3.76-8.22-5.52-11.67-2.08-4.08-5.37-7.51-6.58-12.07a32.19,32.19,0,0,0-3.16-6.39c1.46,1.9,3.42,4.43,4.67,6.48l.93,1.63m-16.16-24c4.7,6.37,10.67,15.08,14.88,21.78-9-13.1-10.36-14.78-12-16.72-1.9-3-4.54-6.91-6.73-9.7l3.84,4.64m25.74,45.94c-.24.42-.28.5.28,2.54-6.44-10.71-6.56-10.92-11-16l-.4-.45c-3.67-3.67-8.78-8.39-12.81-11.66l-.67-.49c-4.17-2.7-9.81-6.18-14.18-8.52l-.5-.25c-5.94-2.55-14-5.59-20.15-7.61a10.75,10.75,0,0,0-.89-2.05l-.06-.12.15,0c4.29-.27,10-.5,14.34-.39l.38,0,4.16.45.42.06a98.84,98.84,0,0,1,12.65,3.8l.3.15a8,8,0,0,1,2.93,2.41c2.6,4.34,10.6,15.28,13,15.63l.18-.25c3.82,6.7,8.6,15.82,11.91,22.78m-69-84.73c15.3,10.6,15.6,10.8,23.34,17.71,4.76,4.63,11,10.9,15.51,15.82,2.19,2.88,5,6.81,6.89,9.89-2.22-2.48-3.15-3.33-4.32-3.93l-.61.21v.53c-4.09-4.15-9.58-9.67-13.91-13.58l-9.37-7.55C334.77,86.47,323.63,81.21,295.58,73l0-.15c-.76-1.29-1.37-1.9-3.69-3.18,11.69-1,19.63-1.28,31.23,4,5.36,2.87,12.6,6.55,17.69,9.87M254.8,56c18.13,1.67,18.84,1.73,29,4,18,4.78,18.73,5,28.64,9l9.86,4.37a79.72,79.72,0,0,0-13.81-4.14c-5.75-1-11.46.78-17.2.2C287.9,69,285,67,281.57,66.45c-.88-.15-2-.24-2.48-.28-12.24-7-19-9.88-36.26-10.37l12,.22M226.28,85.94h.91c5.9.23,13.77.57,19.64,1.12l.68.08C269.28,90.45,276,91.93,298,100l1.23.49c15.85,7,18.71,8.3,32.21,16.24a8.33,8.33,0,0,0-.34,1c-14.64-6.41-24.31-10.64-44.42-15.6-2-4.81-10.27-6.88-14.48-3.64C256,92.62,255,92.27,245,90l-.63-.14c-5.75-1-13.43-2.32-19.24-3l-.74-.06-.79-.06c.14-.22.33-.51.45-.74l2.24,0m132,16.91,9.44,7.6c12.46,11.71,12.46,11.71,15.87,17.91l-2.33-1.23L381,127a99.8,99.8,0,0,0-12.81-3.8l-.42-.06-3.94-.42-.38,0c-4.07,0-9.5,0-13.56.3l-.88.09c-4.9-7.35-13.84-10.78-17.39-6.68-15.84-9-17.87-10.14-31.2-15.84l-1.23-.5c-21.86-8-28.17-9.82-51.37-13.22l-.68-.08c-5.75-.43-13.43-1-19.19-1.12H227l-2.82,0a5.78,5.78,0,0,0,.17-1.17,2.91,2.91,0,0,0-1.22-1.94c14.62-4.67,17.26-5.51,29.62-8.2l9.53-1.67c3.65-.42,9-2.53,12.22-.69,4.88,2.83,20.34,6.07,21.12,1.25,14.14,4.16,37.82,11.13,62.67,29.63M197.49,62.48c16.83-4.08,17.83-4.33,28.37-5.58,4.82-.36,11.25-.94,16.08-1.08,14.65.54,21.6,1.57,36.52,10.31-3.35-.11-5.08.15-6.61,1-19-3.46-50.76-9.24-92.56,6.39l.23-.49-.21-.3c-1-.09-1.76-.16-5.8,1.39,4.52-3.35,9.19-6.81,14.31-8.6l9.67-3m74.14,4.82c-1.37,1.44,0,2.73,1.47,3.81l-11.51,1.35L252.79,74c-15,3.49-16.9,3.93-30,8.3-5.94-3.07-14.33,0-15.95.7-7.17-3-18-7.57-34.74-4.67,4-2.21,5.72-3.38,7-4.65,17.92-6,47.92-16.07,92.5-6.39M170.12,72.72c5.09-2.17,11.87-5.08,17.07-7-1.31.58-3.12,1.22-4.37,1.92-3.46,2-6.45,4.62-9.86,6.67-2.12,1.27-4.49,2-6.63,3.25-.84.48-1.38.8-2,1.2-7,2.15-15,4.59-28.2,14.9,10.25-7.49,19.94-14.57,34-21M158.57,84.06c4-1,5.47-1.35,13-5.38,9-1.14,20.18-2.55,34.77,4.58a20.8,20.8,0,0,0-1.92,1c-12.78-1.75-34.16-4.68-62.61,12.27,2.07-2.23,2-2.48,1.85-2.89,4.44-2.93,9.78-8.28,14.95-9.56m-23.3,10.29c7.54-5.62,16.08-12,28.52-15.24-4,2.63-5.62,4.14-5.32,4.89-3.32,2.06-7.8,4.72-11.07,6.87-1.19.78-2.71,1.91-3.88,2.72-.14.09-.38.06-.55.09s-2.24.43-9.6,6.85c-1.8-1.16-3.58-1.69-8.65,2.89,3.14-2.76,7.26-6.51,10.56-9.07m-18.36,16.79c2.18-2.17,5-5.12,7.27-7.22,2.93-2.52,6-5.13,8.69-2.94l-.18.16c-3.05.49-7.23,1.16-16,10.18l.17-.18m0,0-.86.91c5.08-5.14,10.14-9.8,16.14-10.44-4.41,4.31-5.57,5.7-7.81,8.92l.29.77c42-28.27,48.42-32.61,79.23-26.78-2.44,1.75-2.44,1.75-3.53,3.94,4.72,10,15.56-1.18,23.37-1.41l.74.06c5.9.77,13.76,1.87,19.59,3l.63.14c16.22,4.3,17.19,4.56,27.16,8.53-3.19,6.35,7.44,9,11.27,8.05,3.29-.85,3.55-3,3.68-4.1,13.89,3.58,24.87,6.4,44.22,15.39.51,10.56,14.89,16.26,18.43,12.86a5.77,5.77,0,0,0,1.18-3.21c12.15,2.29,12.15,2.29,20.14,6.19l.5.25c4.45,2.48,10.3,5.93,14.51,8.79l.66.49c3.91,3.29,9,7.87,12.52,11.53l.4.46c7.68,9.92,7.68,9.92,10.75,15.72A151.67,151.67,0,0,0,416,187.06a12.47,12.47,0,0,0-.4-3.53l.37.79L412.32,173c-6.06-15.07-6.69-16.64-12.17-26.64-9-14.73-9.53-15.61-16.16-24-11.68-13.52-12.13-14-19.88-21.08-14-11.61-14.53-12.07-23.34-17.71-15.77-9.15-17.05-9.89-28.29-14.59-18-6.52-18.37-6.64-28.64-9-18.35-3.32-18.7-3.38-29-4-18-.23-18.65-.24-28.95.88-17.5,2.66-18.19,2.76-28.37,5.58-16.28,5.26-17.25,5.58-27.37,10.24C157.81,79,149.68,83.23,135.54,94.13c-9.08,7.61-11.82,9.91-18.64,17" transform="translate(-26.05 -15.07)"/><path class="cls-8" d="M286.38,405.68,275,408c-6.9.9-16.13,1.92-23.07,2.36-8.18-.4-8.67-.42-14.53-2.7a6.78,6.78,0,0,0,1.65-.41l0,0c14.07,1.73,26.23,3.23,47.34-1.55m17-5-.34.12c-4.68,1.41-10.89,3.38-15.63,4.58-14.17,2.76-26.41,5.15-48.16,1.68l.29-.35c-.11-.35-.2-.63-1.45-1.17,13.91-3.37,13.91-3.37,16.38-3.28a18.38,18.38,0,0,0,5.19-.57c10.86,2.76,23.17,5.89,43.72-1m-52.23,9.66-5,.09c-18.08-.64-18.79-.67-29.07-2.31L206.19,406c2.39.38,5.55,1.14,8,1.28.17,0,20.41.61,22.68.42,7.23,2.38,8,2.63,14.32,2.66M250,400.32c.13.94.13.94,1.46,1.52-13.31,3.73-13.31,3.73-14.49,3.37-1-.32-7.81-1.8-13.3-.79-16.82-5.4-39.85-12.8-68.76-40.81l.45-.2.06-.07c21.36,14.73,43.95,28.53,85.08,35.54q4.77.86,9.5,1.44m-27.61,5c.36.89,3.27,1.52,4.36,1.76-10.38.39-12.25.46-21.37-1.29-8.1-2.24-18.79-5.64-26.68-8.52-17.44-7.94-17.77-8.1-26.74-13.62l-11.09-7.48c-7.57-6.13-15.39-12.48-24.28-24.2a7.89,7.89,0,0,0,1,.49l.53-.16c15.74,15.22,45,43.54,104.29,52.77,0,.07,0,.18,0,.25m.93-.85a3.91,3.91,0,0,0-.86.46c-78.7-14.05-105.72-56.2-106-56.62a144.77,144.77,0,0,0,15,7.49c4.29,1.81,10.76,1.86,15.13,3.45,2.07.75,3,3,5,3.85a5.63,5.63,0,0,0,2.94.55c13.31,12.25,33.43,30.76,68.79,40.82m-77.8-47.21a6.1,6.1,0,0,0,.76,1.51c-25.34-4.5-30.34-11.35-30.38-11.41-1.51-2.36-8.47-11.88-12.51-14.08-6-10.19-15.19-25.6-17.12-36.5,7.85,14.42,22.48,41.25,59.2,60.28l.06.2m-5.54,18.25c-3.48-2.8-8.22-6.42-11.58-9.36-13-12.37-13.49-12.86-20.1-20.88-10.63-14.11-11-14.66-16.4-23.85-7.76-14.76-8.39-16-12.42-26.49-1.51-4.52-3.57-10.54-4.87-15.12,15.88,51.47,40.64,71.16,41.69,72,6.05,7.37,12.91,15.71,23.68,23.73m-37.09-42.29c-.26.65-.43,1.08,1.52,4.52-9.36-12-22.17-28.38-30.63-61.11L71.37,266C70.59,261,69.6,254.45,69,249.49c2.65,22.8,15.57,50.19,16.87,51.17l.35-.05.2-.44c7.41,17.52,7.7,18.2,16.7,33.09a1,1,0,0,1-.32,0M69,248.87c-.13-1.25-.37-4.58-.45-6.14v0l-.26-7.51c.08,1.76.22,4.1.42,5.85,1.24,14.2,2.66,25.49,9.69,41.43-3.65-7-7.43-14.21-9.41-33.65m192,152.4a162.32,162.32,0,0,1-27.95-3.9c-16.94-3.9-45.3-10.44-77.46-34.25.57-5.86-8.34-8.41-9.13-8.09-.42.17-.76.73-1.08,1-9.87-5.06-39.92-20.44-59.24-59.74,0-.16-3.83-16.1-7.58-20.61-.77,2.06-.77,2.06,0,6.78-4-9.49-8.17-19.3-9.84-41.93v-.07c-.19-1.8-.36-4.22-.42-6A198.76,198.76,0,0,0,71.37,266c3.21,14.27,3.78,16.84,8.09,29,6.35,15.34,6.87,16.6,12.42,26.49,9.15,14.65,9.7,15.53,16.4,23.85,11.83,13.42,12.29,13.94,20.1,20.88,14.12,11.48,14.67,11.93,23.55,17.49,16.22,9.19,16.86,9.55,26.74,13.62,16.15,5.84,20,7.23,38.44,10.85,18.38,2.26,18.73,2.31,29.07,2.31,17.84-.76,18.54-.79,28.8-2.48,16.92-3.53,17.93-3.74,28.07-7.15l1.06-.37c-10.36,3-24.55,7.14-43.9,1.1-.26,0,.56-.21.8-.3" transform="translate(-26.05 -15.07)"/></g><g id="net"><path id="net-2" data-name="net" class="cls-9" d="M74.82,305a2.63,2.63,0,0,0,2.59.95l1.18,6.56L59.52,321a2.63,2.63,0,1,0-1,4.15l19.54,44a3.93,3.93,0,1,0,5.29,5l18.58,7.16a2.39,2.39,0,0,0,2.31,3.51L107,404.07a3.88,3.88,0,1,0,.12,0l-2.78-19.24a2.38,2.38,0,0,0,1.87-3.28l44.47-19.81a4.41,4.41,0,0,0,1.62,1.87L147,377.67a2.67,2.67,0,1,0,.12,0l5.32-14a4.44,4.44,0,1,0,.55-7.88l-5.84-13.15,14.76-6.86a2.81,2.81,0,1,0,0-.11l-14.76,6.86L133.8,312.62a3.67,3.67,0,1,0-4.95-4.7l-19.14-7.37a2.37,2.37,0,0,0-.38-2.29l6.89-5.92a4,4,0,1,0-.29-.33l.21.24-6.89,5.91a2.39,2.39,0,0,0-4,2.49L78.7,312.44l-1.17-6.53a2.63,2.63,0,1,0-2.7-.92Zm54.1,5.84a3.67,3.67,0,0,0,3.06,2.12l-1,16.69L119.53,315Zm2.1,19-1,18.11a2.38,2.38,0,0,0-1,.18l-13.84-31.17,4.25-1.89Zm-45.7,3.26,8.17,3.17-4.59,12-5.69-12.83A3.94,3.94,0,0,0,85.32,333.08Zm8.29,3.21,34.06,13.21a2.38,2.38,0,0,0,0,1.72L96.4,365.17,89,348.45Zm56.92,25.05-33.16,5.28,11.13-14.39a2.39,2.39,0,0,0,3.62-1l18.42,7.09A4.42,4.42,0,0,0,150.52,361.34Zm-54.23,3.88L83.24,371a3.91,3.91,0,0,0-2.11-2l7.78-20.43Zm-13,5.92,13.05-5.81,1.92,4.33L83.54,372A3.93,3.93,0,0,0,83.29,371.15Zm13.16-5.86,31.3-13.94a2.38,2.38,0,0,0,.65.82l-11.21,14.49-18.8,3Zm20.63,1.51L106,381.12a2.39,2.39,0,0,0-2.9-.89l-4.65-10.47Zm-11,14.44,11.19-14.47,33.31-5.31.06.15-44.47,19.81Zm44.52-23-18.42-7.09a2.38,2.38,0,0,0,0-1.54l10.52-4.89,9.21,11.72A4.43,4.43,0,0,0,150.58,358.21Zm-18.44-8.75,0-.12a2.39,2.39,0,0,0-2-1.41l1-18,11.49,14.62Zm-17-32.63-6.63-14.93a2.39,2.39,0,0,0,.4-.24L119.34,315Zm-6.74-14.88L115,316.88l-16.85,7.48L106.67,302A2.38,2.38,0,0,0,108.37,301.95Zm6.68,15,13.84,31.17a2.38,2.38,0,0,0-1.18,1.24L93.65,336.18l4.44-11.66ZM93.53,336.14,85.35,333a3.94,3.94,0,0,0-.19-2.7h0l12.77-5.67ZM78,330.06l-17.93-6.94a2.62,2.62,0,0,0-.51-2.06l19-8.44,2.75,15.31A3.94,3.94,0,0,0,78,330.06Zm-18-6.77L78,330.22a4,4,0,0,0,5.14,5.29l5.74,12.94L81,369a3.91,3.91,0,0,0-2.88.08l-19.54-44a2.6,2.6,0,0,0,1.47-1.77ZM83.36,374a3.92,3.92,0,0,0,.2-1.91l14.75-2.35,4.66,10.5a2.38,2.38,0,0,0-1,.92Zm69.48-18.21a4.44,4.44,0,0,0-.84.51l-9.19-11.7,4.2-1.95Zm-10.11-11.29-11.59-14.76,1-16.83a3.65,3.65,0,0,0,1.58-.29L147,342.57ZM128.81,308a3.66,3.66,0,0,0,.07,2.69l-9.42,4.18L109,301.58a2.38,2.38,0,0,0,.68-.93Zm-23.5-7.26a2.38,2.38,0,0,0,1.25,1.19L98,324.43l-12.88,5.72a4,4,0,0,0-3.63-2.24l-2.76-15.35Z" transform="translate(-26.05 -15.07)"/><path id="net-3" data-name="net" class="cls-9" d="M115.2,175.32a2.63,2.63,0,0,0,0,2.75l-5.73,3.39L94.9,166.54a2.63,2.63,0,1,0-4.25.48L56.2,200.67a3.93,3.93,0,1,0-2.87,6.71l-.23,19.91a2.39,2.39,0,0,0-2.49,3.39L33.53,240a3.88,3.88,0,1,0,.07.1l17.07-9.3a2.38,2.38,0,0,0,3.73.61l34.06,34.78a4.42,4.42,0,0,0-1.19,2.17l-15.06-.1a2.68,2.68,0,1,0,0,.12l15,.1a4.44,4.44,0,1,0,7.58-2.23L105.1,256.2l11.57,11.45a2.81,2.81,0,1,0,.09-.08l-11.57-11.45,23.41-22.86a3.67,3.67,0,1,0,2.69-6.27l.24-20.51a2.37,2.37,0,0,0,2-1.15l7.95,4.4a4,4,0,1,0,.2-.38c-.05.09-.1.18-.15.28l-7.94-4.4a2.39,2.39,0,0,0-3.73-2.88l-20.3-20.78,5.71-3.37a2.63,2.63,0,1,0-.08-2.86Zm13.37,52.75a3.67,3.67,0,0,0-.92,3.6l-16,4.92,9.71-15.88Zm-17.07,8.58L94.17,242a2.38,2.38,0,0,0-.51-.86L118,217.29l3.25,3.33Zm-19-41.71-.13,8.77-12.88-.1,10-9.81A3.94,3.94,0,0,0,92.52,194.94Zm-.13,8.89-.52,36.53a2.38,2.38,0,0,0-1.6.64l-24-24.49,13.09-12.79Zm-3.66,62.08-16.5-29.24,17.36,5.42a2.39,2.39,0,0,0,2.21,3l-.23,19.74A4.42,4.42,0,0,0,88.74,265.91ZM66.22,216.42l-10-10.21a3.91,3.91,0,0,0,1.14-2.67l21.87.18ZM56.13,206.3l10,10.21-3.39,3.31-7.33-13A3.92,3.92,0,0,0,56.13,206.3Zm10.08,10.3,24,24.49a2.38,2.38,0,0,0-.55.89l-17.49-5.46L62.8,219.93ZM72,236.46l-17.3-5.4a2.39,2.39,0,0,0-.18-3l8.2-8Zm-17.37-5.3,17.46,5.45L88.65,266l-.12.11L54.47,231.32ZM91.7,264.87l.23-19.74a2.38,2.38,0,0,0,1.45-.52l8.24,8.16-7.78,12.72A4.43,4.43,0,0,0,91.7,264.87Zm1.78-20.34.09-.08a2.39,2.39,0,0,0,.63-2.36l17.2-5.3-9.71,15.87Zm24.65-27.33,11.69-11.41a2.39,2.39,0,0,0,.37.29l-8.83,14.43Zm11.6-11.5L118,217.12l-12.88-13.19,23.93.19A2.38,2.38,0,0,0,129.74,205.71ZM118,217.21,93.57,241a2.38,2.38,0,0,0-1.57-.67l.52-36.53,12.48.1Zm-25.44-13.5.13-8.77a3.94,3.94,0,0,0,2.46-1.11h0l9.76,10Zm.3-16.65.26-19.22a2.62,2.62,0,0,0,1.76-1.19l14.53,14.88L96,189.43a3.94,3.94,0,0,0-3.16-2.37Zm.09-19.2L92.64,187a4,4,0,0,0-3.17,6.66L79.34,203.6l-22-.18a3.91,3.91,0,0,0-1.07-2.67L90.74,167.1a2.6,2.6,0,0,0,2.18.76ZM53.44,207.38a3.92,3.92,0,0,0,1.86-.48l7.34,13-8.22,8a2.38,2.38,0,0,0-1.22-.64Zm41.28,58.79a4.44,4.44,0,0,0-.77-.61l7.77-12.69,3.29,3.25Zm7.07-13.41,9.79-16,16.11-5a3.65,3.65,0,0,0,.82,1.38L105.1,256ZM131.16,227a3.66,3.66,0,0,0-2.5,1l-7.2-7.37,8.84-14.45a2.38,2.38,0,0,0,1.11.32Zm-1.38-24.56a2.38,2.38,0,0,0-.68,1.59L105,203.81,95.2,193.73a4,4,0,0,0,.83-4.18l13.43-7.93Z" transform="translate(-26.05 -15.07)"/><path id="net-4" data-name="net" class="cls-9" d="M106.11,87.6a2.63,2.63,0,0,0,2.24,1.6l-.62,6.63L87.1,98.9a2.63,2.63,0,1,0-2.1,3.73l7.08,47.64a3.93,3.93,0,1,0,3.75,6.26l16,11.86a2.39,2.39,0,0,0,1.29,4l-2.46,19.29a3.88,3.88,0,1,0,.12,0l2.46-19.28a2.38,2.38,0,0,0,2.68-2.66l48.14-7.21a4.42,4.42,0,0,0,1.07,2.24l-8.9,12.14a2.67,2.67,0,1,0,.11.06l8.88-12.11a4.44,4.44,0,1,0,2.64-7.44l-2.11-14.23,16.05-2.67a2.82,2.82,0,1,0,0-.12l-16.05,2.67L160.9,110.7a3.67,3.67,0,1,0-3.51-5.85L140.91,92.63a2.37,2.37,0,0,0,.25-2.3l8.22-3.86a4,4,0,1,0-.19-.39c0,.1.09.19.14.28l-8.22,3.86a2.39,2.39,0,0,0-4.52,1.33l-28.74,4.27.61-6.61a2.63,2.63,0,1,0-2.36-1.61Zm50.57,20.08a3.67,3.67,0,0,0,2.38,2.86l-5.37,15.83-7.17-17.17Zm-3.05,18.86-5.83,17.17a2.38,2.38,0,0,0-1-.09l-5-33.73,4.6-.68Zm-44.91-9.06,7,5.24-7.63,10.38-2.06-13.88A3.94,3.94,0,0,0,108.72,117.47Zm7.13,5.31,29.29,21.83a2.38,2.38,0,0,0-.42,1.67l-33.89,5.08-2.69-18.1ZM164,162.13l-33.36-3.77,14.57-10.89a2.39,2.39,0,0,0,3.76,0l15.86,11.76A4.42,4.42,0,0,0,164,162.13Zm-53.3-10.75L96.58,153.5a3.91,3.91,0,0,0-1.5-2.48l13-17.61ZM96.6,153.62l14.13-2.12.7,4.69-14.81-1.67A3.93,3.93,0,0,0,96.6,153.62Zm14.25-2.14,33.89-5.08a2.38,2.38,0,0,0,.4,1l-14.67,11-18.92-2.14Zm19.48,7L115.81,169.3a2.39,2.39,0,0,0-2.56-1.63l-1.68-11.34Zm-14.48,11,14.65-11L164,162.25c0,.05,0,.11,0,.16l-48.14,7.21C115.88,169.55,115.87,169.49,115.85,169.42Zm49.05-10.3L149,147.37a2.38,2.38,0,0,0,.43-1.48l11.44-1.9,5.75,13.76A4.43,4.43,0,0,0,164.9,159.12Zm-15.44-13.36s0-.08,0-.12a2.39,2.39,0,0,0-1.54-1.89l5.79-17,7.17,17.16Zm-7.7-36-2.4-16.16a2.39,2.39,0,0,0,.45-.13l6.52,15.61Zm-2.52-16.14,2.4,16.16-18.24,2.71,14.18-19.28A2.38,2.38,0,0,0,139.25,93.63Zm2.42,16.28,5,33.73a2.38,2.38,0,0,0-1.47.88l-29.29-21.83,7.39-10Zm-25.85,12.7-7-5.24a3.94,3.94,0,0,0,.54-2.65h0l13.82-2.05Zm-13.31-10L87.09,101.14A2.62,2.62,0,0,0,87.15,99L107.72,96l-1.44,15.48a3.94,3.94,0,0,0-3.77,1.17ZM87,101.3l15.38,11.46a4,4,0,0,0,3.54,6.47l2.08,14L95,150.94a3.91,3.91,0,0,0-2.79-.69l-7.08-47.64A2.6,2.6,0,0,0,87,101.3Zm8.89,55.13a3.92,3.92,0,0,0,.7-1.79l14.84,1.68,1.69,11.37a2.38,2.38,0,0,0-1.23.61Zm71.83,1a4.43,4.43,0,0,0-.94.26L161,144l4.56-.76ZM161,143.85l-7.23-17.32,5.42-16a3.65,3.65,0,0,0,1.6.15l4.81,32.37Zm-3.68-38.9a3.66,3.66,0,0,0-.65,2.62l-10.2,1.51-6.53-15.63a2.38,2.38,0,0,0,.91-.71ZM136.61,91.67a2.38,2.38,0,0,0,.89,1.48l-14.25,19.38L109.3,114.6a4,4,0,0,0-2.9-3.12l1.44-15.53Z" transform="translate(-26.05 -15.07)"/><path id="net-5" data-name="net" class="cls-9" d="M242,146.59a2.63,2.63,0,0,0-2.74.23l-3.83-5.45,13.71-15.72a2.63,2.63,0,1,0-.82-4.2L212,89.8a3.93,3.93,0,1,0-6.92-2.33l-19.86,1.35a2.39,2.39,0,0,0-3.58-2.21L171,70.33a3.88,3.88,0,1,0-.1.07l10.63,16.27a2.38,2.38,0,0,0-.31,3.77l-32,36.72a4.42,4.42,0,0,0-2.26-1l-1.1-15a2.67,2.67,0,1,0-.12,0l1.1,15a4.44,4.44,0,1,0,2.82,7.37L160.57,143l-10.49,12.44a2.81,2.81,0,1,0,.09.08L160.66,143l24.66,21.51a3.67,3.67,0,1,0,6.47,2.18l20.46-1.39a2.37,2.37,0,0,0,1.31,1.91l-3.75,8.27a4,4,0,1,0,.4.17l-.29-.13,3.75-8.27a2.39,2.39,0,0,0,2.58-3.95l19.1-21.89,3.82,5.43a2.63,2.63,0,1,0,2.84-.3Zm-51.51,17.53a3.67,3.67,0,0,0-3.67-.63L180.64,148l16.6,8.42Zm-9.91-16.33-6.7-16.85a2.38,2.38,0,0,0,.82-.58l25.69,22.42-3.06,3.51Zm40.06-22.24-8.75.57L211,113.28l10.58,9.23A3.94,3.94,0,0,0,220.64,125.55Zm-8.87.58-36.45,2.39a2.38,2.38,0,0,0-.77-1.54L197,101.13l13.79,12Zm-62.17,1.31,27.83-18.78-4,17.74a2.39,2.39,0,0,0-2.86,2.44l-19.7,1.34A4.42,4.42,0,0,0,149.59,127.44ZM197.12,101l9.38-10.78a3.91,3.91,0,0,0,2.75.92L210.82,113Zm9.29-10.86L197,101l-3.57-3.12,12.36-8.34A3.92,3.92,0,0,0,206.41,90.18ZM197,101.05l-22.5,25.85a2.38,2.38,0,0,0-.93-.47l4.05-17.87,15.78-10.65Zm-19.34,7.34,4-17.67a2.39,2.39,0,0,0,3-.42l8.64,7.53Zm3.9-17.74-4,17.84-28,18.87-.12-.11,32-36.72Zm-30.65,39.66,19.7-1.34a2.38,2.38,0,0,0,.63,1.41l-7.47,8.87-13.3-6.74A4.43,4.43,0,0,0,150.86,130.31Zm20.41.15.09.09a2.39,2.39,0,0,0,2.4.44l6.65,16.72-16.59-8.41Zm29.21,22.4,12.31,10.74a2.39,2.39,0,0,0-.26.39l-15.09-7.65Zm12.39,10.65-12.31-10.74,12.12-13.9,1.72,23.87A2.38,2.38,0,0,0,212.87,163.51Zm-12.4-10.82-25.69-22.42a2.38,2.38,0,0,0,.55-1.62l36.45-2.39.89,12.44Zm11.43-26.44,8.75-.57A3.94,3.94,0,0,0,222,128h0l-9.18,10.52Zm16.62-1,19.18-1.27A2.62,2.62,0,0,0,249,125.6l-13.67,15.67-9-12.72a3.94,3.94,0,0,0,2.11-3.34Zm19.14-1.44L228.51,125a4,4,0,0,0-6.9-2.62L211,113.1l-1.58-21.93A3.91,3.91,0,0,0,212,89.89l36.29,31.66a2.6,2.6,0,0,0-.59,2.23ZM205.12,87.59a3.92,3.92,0,0,0,.62,1.82l-12.38,8.35-8.66-7.56a2.38,2.38,0,0,0,.54-1.26Zm-55.31,45.83a4.44,4.44,0,0,0,.55-.81l13.27,6.73-3,3.54Zm13.93,6,16.74,8.48,6.23,15.66a3.65,3.65,0,0,0-1.31.93L160.74,143Zm28,27.22a3.66,3.66,0,0,0-1.2-2.41l6.78-7.77,15.11,7.66a2.38,2.38,0,0,0-.23,1.13Zm24.37-3.34a2.38,2.38,0,0,0-1.63-.55l-1.72-24,9.27-10.62a4,4,0,0,0,4.23.5l9,12.75Z" transform="translate(-26.05 -15.07)"/><path id="net-6" data-name="net" class="cls-9" d="M410.44,362.52a3.68,3.68,0,0,0-3,2.38l-8.67-3.4,3.9-28.92a3.68,3.68,0,1,0-4.19-4.27l-66.76-9a5.49,5.49,0,1,0-9.87,2.61l-22.14,16.89a3.34,3.34,0,0,0-5.88.18l-25-10.8a5.43,5.43,0,1,0-.06.16l24.95,10.8a3.33,3.33,0,0,0,2.54,4.64l-9,67.49a6.18,6.18,0,0,0-3.42.56L271,395.16a3.74,3.74,0,1,0-.12.12l12.83,16.64a6.21,6.21,0,1,0,9,6.43L312.6,421l-2.65,22.61a3.94,3.94,0,1,0,.17,0l2.65-22.61,45.36,6.11a5.13,5.13,0,1,0,9.23-2.44l22.81-17.39a3.31,3.31,0,0,0,3,1.22l2,12.55a5.65,5.65,0,1,0,.6-.1l-.43.07-2-12.54a3.34,3.34,0,0,0,0-6.6l5.42-40.27,8.64,3.39a3.68,3.68,0,1,0,3.08-2.54Zm-46.62,60.16a5.13,5.13,0,0,0-4.76,2.09L339.88,411.4l25.86-3Zm-24.15-11.42-20.81-14.5a3.32,3.32,0,0,0,.51-1.31l47.27,6.37-.87,6.45Zm29.62-56.83-9.77,7.41-11-14.29L368,350.17A5.52,5.52,0,0,0,369.29,354.42Zm-9.9,7.51-40.71,30.88a3.33,3.33,0,0,0-2.08-1.21l6.34-47.51,25.37,3.42Zm-71.57,49.43,18-43.37,9,23.81a3.34,3.34,0,0,0-1.45,5.05l-22,16.74A6.18,6.18,0,0,0,287.82,411.37ZM323,343.93l2.64-19.81a5.47,5.47,0,0,0,3.92-1l18.64,24.25Zm2.47-19.83-2.64,19.81-6.57-.89,8-19.25A5.49,5.49,0,0,0,325.43,324.1Zm-2.67,20-6.34,47.51a3.32,3.32,0,0,0-1.46.17l-9-24,10.22-24.59Zm-16.92,23.47-8.94-23.71a3.34,3.34,0,0,0,3.18-2.81L316,343.16Zm-8.91-23.17,8.82,23.39L288,410.61l-.42-.11,8.81-66.06Zm-5.42,69.37,22-16.74a3.33,3.33,0,0,0,1.82,1.16l-1.89,16.11-20.72,2.38A6.2,6.2,0,0,0,291.51,413.74Zm23.94-15.55.17,0a3.34,3.34,0,0,0,3.14-1.33l20.65,14.39-25.84,3Zm51.35,3.64,22.65,3.05a3.36,3.36,0,0,0,0,.66l-23.5,2.7Zm22.67,2.88-22.65-3.05,3.44-25.56,20.4,26.54A3.33,3.33,0,0,0,389.47,404.71Zm-22.81-3.07-47.27-6.37a3.33,3.33,0,0,0-.61-2.31l40.71-30.88,10.63,13.84Zm-7-39.67,9.78-7.42a5.51,5.51,0,0,0,3.35,1.76h0l-2.61,19.36Zm18.6-14,21.41-16.26a3.67,3.67,0,0,0,2.83.91l-3.88,28.83-20.25-7.95a5.51,5.51,0,0,0-.11-5.52Zm21.23-16.43-21.37,16.22A5.53,5.53,0,0,0,368,350l-19.62-2.64L329.66,323a5.47,5.47,0,0,0,2-3.48l66.76,9a3.64,3.64,0,0,0,1,3.06Zm-77.53-9.47a5.48,5.48,0,0,0,2.13,1.64L316,343l-15.93-2.15a3.32,3.32,0,0,0-.35-1.89Zm-29.24,96.12a6.2,6.2,0,0,0,0-1.37l20.68-2.37-.75,6.43Zm20.86-3.76,26.08-3L359,424.91a5.1,5.1,0,0,0-.82,2.09l-45.36-6.11Zm53.7,10.17a5.11,5.11,0,0,0-3.26-1.9l1.92-14.29,23.54-2.7a3.34,3.34,0,0,0,.6,1.49Zm25.88-22.67a3.33,3.33,0,0,0-2.33.62l-20.5-26.68,2.63-19.54a5.54,5.54,0,0,0,5.33-2.68l20.3,8Z" transform="translate(-26.05 -15.07)"/><g id="net-7" data-name="net" class="cls-10"><path class="cls-9" d="M267.82,233.44a2.28,2.28,0,0,0,.46,2.34L264,239.61,249.08,229.3a2.28,2.28,0,1,0-3.54,1.11l-23.81,34.36a3.41,3.41,0,1,0-1.34,6.19l3.08,17a2.07,2.07,0,0,0-1.56,3.3l-13,10.75a3.36,3.36,0,1,0,.07.08l13-10.74a2.07,2.07,0,0,0,3.28-.09l34.76,24a3.83,3.83,0,0,0-.65,2l-12.85,2.4a2.32,2.32,0,1,0,0,.1l12.82-2.39a3.85,3.85,0,1,0,6.09-3.15L272.55,304l11.74,7.85a2.45,2.45,0,1,0,.06-.09l-11.75-7.85,16.18-23.34a3.19,3.19,0,1,0,1.25-5.79l-3.18-17.52a2.05,2.05,0,0,0,1.52-1.31l7.5,2.44a3.5,3.5,0,1,0,.11-.36c0,.09-.06.17-.08.26l-7.49-2.44a2.07,2.07,0,0,0-3.65-1.84L264,239.67l4.31-3.82a2.28,2.28,0,1,0-.54-2.42Zm20.09,42.74a3.18,3.18,0,0,0-.19,3.22l-12.8,6.83,5.66-15.13ZM274.78,286.3l-13.89,7.41a2.06,2.06,0,0,0-.58-.65l16.86-24.32,3.32,2.3Zm-23-32.41,1.34,7.49-11,2,6.94-10A3.42,3.42,0,0,0,251.74,253.89Zm1.36,7.59,5.58,31.21a2.07,2.07,0,0,0-1.26.81L232.95,276.6l9-13.06Zm7.12,53.5-18.88-22.2L257,294.55a2.07,2.07,0,0,0,2.38,2.23l3.06,16.86A3.84,3.84,0,0,0,260.22,315Zm-27.36-38.45-10.2-7.05a3.4,3.4,0,0,0,.53-2.46l18.66-3.46Zm-10.26-7,10.2,7.05L230.46,280l-8.38-9.85A3.41,3.41,0,0,0,222.6,269.57Zm10.29,7.11,24.47,16.91a2.06,2.06,0,0,0-.32.85l-15.8-1.77-10.71-12.59Zm8.19,16-15.63-1.75a2.07,2.07,0,0,0-.65-2.55l5.67-8.18ZM225.4,291l15.78,1.77,19,22.3-.09.11-34.76-24Zm37.16,22.61-3.06-16.86a2.07,2.07,0,0,0,1.15-.68l8.37,5.59L264.5,313.8A3.84,3.84,0,0,0,262.57,313.62ZM260.73,296l.07-.09a2.07,2.07,0,0,0,.15-2.11l13.78-7.35-5.65,15.12Zm16.5-27.35L285.31,257a2.07,2.07,0,0,0,.36.19l-5.14,13.75Zm8-11.71-8.08,11.65L264,259.47l20.43-3.78A2.06,2.06,0,0,0,285.22,256.93Zm-8.14,11.74L260.23,293a2.06,2.06,0,0,0-1.45-.32l-5.58-31.21,10.65-2Zm-23.91-7.31-1.34-7.5a3.42,3.42,0,0,0,1.92-1.36h0l10,6.91Zm-2.49-14.23-2.95-16.42a2.28,2.28,0,0,0,1.3-1.31l14.84,10.28-10.11,8.95a3.42,3.42,0,0,0-3.08-1.5Zm-3.09-16.37,2.93,16.39a3.43,3.43,0,0,0-1.6,6.2l-7,10.1-18.77,3.47a3.39,3.39,0,0,0-1.36-2.1l23.81-34.36a2.26,2.26,0,0,0,2,.29Zm-27.11,40.18a3.4,3.4,0,0,0,1.51-.71l8.4,9.87-5.68,8.2a2.06,2.06,0,0,0-1.14-.34Zm44.87,43.29a3.85,3.85,0,0,0-.75-.39l4.52-12.1,3.34,2.23Zm3.81-12.59,5.7-15.26,12.91-6.88a3.17,3.17,0,0,0,.93,1l-16.18,23.34Zm20.78-26.81a3.17,3.17,0,0,0-2,1.27l-7.35-5.1,5.15-13.77a2.07,2.07,0,0,0,1,.09Zm-5.23-20.7a2.07,2.07,0,0,0-.31,1.46l-20.53,3.8-10.05-7a3.44,3.44,0,0,0,0-3.7l10.13-9Z" transform="translate(-26.05 -15.07)"/><path class="cls-9" d="M326.69,294.55a2.28,2.28,0,0,0-2,1.25l-5.1-2.72L324,275.54a2.28,2.28,0,1,0-2.27-2.93l-40.5-10.35a3.41,3.41,0,1,0-6.27.9L260.13,272a2.07,2.07,0,0,0-3.64-.31l-14.61-8.46a3.36,3.36,0,1,0,0,.09l14.6,8.45a2.07,2.07,0,0,0,1.23,3l-10.41,40.95a3.83,3.83,0,0,0-2.15.1l-6.72-11.21a2.32,2.32,0,1,0-.08.06L245,315.87a3.85,3.85,0,1,0,5.07,4.61l12.1,3.09-3.26,13.74a2.44,2.44,0,1,0,.1,0l3.26-13.74,27.51,7a3.19,3.19,0,1,0,5.86-.84L311,320.71a2.05,2.05,0,0,0,1.76,1l.33,7.88a3.5,3.5,0,1,0,.38,0h-.27l-.33-7.87a2.07,2.07,0,0,0,.45-4.07l6.24-24.43,5.08,2.71a2.28,2.28,0,1,0,2.08-1.35Zm-33.07,33.72a3.18,3.18,0,0,0-3.09.95l-10.86-9.62,16.15,0Zm-14.06-8.78-11.78-10.44a2.06,2.06,0,0,0,.41-.77l28.67,7.33-1,3.91Zm22.35-32.89-6.56,3.86-5.74-9.6,11.8,3A3.42,3.42,0,0,0,301.91,286.6Zm-6.65,3.92L268,306.62a2.07,2.07,0,0,0-1.2-.9l7.33-28.83,15.39,3.93ZM247.6,315.83l14.23-25.43,3.82,15.32a2.07,2.07,0,0,0-1.26,3l-14.74,8.74A3.84,3.84,0,0,0,247.6,315.83Zm26.52-39,3.06-12a3.4,3.4,0,0,0,2.49-.36l9.74,16.29Zm3-12-3.06,12-4-1,6.32-11.29A3.4,3.4,0,0,0,277.07,264.75ZM274,276.87l-7.33,28.83a2.06,2.06,0,0,0-.91,0l-3.84-15.43L270,275.84Zm-12.12,13.25-3.8-15.26a2.07,2.07,0,0,0,2.17-1.5l9.64,2.46ZM258,274.85l3.84,15.41-14.3,25.55-.13,0,10.41-40.95Zm-8.25,42.71,14.74-8.74a2.07,2.07,0,0,0,1,.84l-2.33,9.79-12.94,0A3.84,3.84,0,0,0,249.7,317.56Zm15.88-7.86.1,0a2.07,2.07,0,0,0,2-.6l11.69,10.36-16.14,0ZM297,315.64l13.74,3.51a2.08,2.08,0,0,0-.05.41l-14.68,0ZM310.73,319,297,315.54,301,300l10.66,17.83A2.06,2.06,0,0,0,310.73,319Zm-13.84-3.54-28.67-7.33a2.07,2.07,0,0,0-.21-1.47l27.31-16.1,5.56,9.29Zm-1.48-25,6.56-3.87a3.42,3.42,0,0,0,1.94,1.32h0l-3,11.75Zm12.48-7.29,14.37-8.48a2.28,2.28,0,0,0,1.68.76L319.46,293l-11.91-6.36a3.42,3.42,0,0,0,.33-3.41Zm14.27-8.6-14.34,8.45a3.43,3.43,0,0,0-6.37.66l-11.9-3-9.79-16.38a3.39,3.39,0,0,0,1.49-2l40.5,10.35a2.26,2.26,0,0,0,.42,2Zm-47.11-11.42a3.4,3.4,0,0,0,1.19,1.16l-6.33,11.31-9.66-2.47a2.06,2.06,0,0,0-.08-1.19ZM250.1,320.38a3.85,3.85,0,0,0,.11-.84l12.92,0-.93,3.91Zm13.13-.82,16.29,0,10.95,9.7a3.17,3.17,0,0,0-.65,1.23l-27.52-7ZM295.6,329.7a3.17,3.17,0,0,0-1.87-1.4l2.22-8.67,14.71,0a2.07,2.07,0,0,0,.26,1Zm17.58-12.11a2.07,2.07,0,0,0-1.48.21L301,299.89,304,288a3.43,3.43,0,0,0,3.48-1.27l11.94,6.37Z" transform="translate(-26.05 -15.07)"/><path class="cls-9" d="M357,253.43a2.28,2.28,0,0,0-.18,2.38l-5.19,2.54L340,244.43a2.28,2.28,0,1,0-3.71.12l-32.12,26.75a3.41,3.41,0,1,0-2.95,5.61l-1.57,17.21a2.07,2.07,0,0,0-2.38,2.77l-15.41,6.88a3.37,3.37,0,1,0,0,.09l15.4-6.88a2.07,2.07,0,0,0,3.18.79l27.08,32.43a3.83,3.83,0,0,0-1.18,1.8l-13-1.12a2.32,2.32,0,1,0,0,.11l13,1.12a3.85,3.85,0,1,0,6.71-1.4l9.59-8,9.22,10.7a2.44,2.44,0,1,0,.08-.07l-9.22-10.7,21.82-18.17a3.19,3.19,0,1,0,2.75-5.24L369,281.5a2.06,2.06,0,0,0,1.82-.86l6.58,4.35a3.5,3.5,0,1,0,.2-.32l-.15.23-6.57-4.35a2.07,2.07,0,0,0-3-2.75l-16.14-19.38,5.17-2.53a2.28,2.28,0,1,0,.13-2.48ZM364.94,300a3.18,3.18,0,0,0-1,3.06l-14.16,3.16,9.49-13.07Zm-15.36,6.25-15.36,3.43a2.06,2.06,0,0,0-.38-.78l22.74-18.94,2.58,3.1ZM336,268.85l-.71,7.58-11.14-1,9.36-7.79A3.42,3.42,0,0,0,336,268.85Zm-.72,7.68-3,31.57a2.07,2.07,0,0,0-1.43.44l-19.06-22.83,12.21-10.16ZM327.89,330l-12.27-26.43,14.65,5.88a2.07,2.07,0,0,0,1.7,2.78l-1.56,17.06A3.84,3.84,0,0,0,327.89,330Zm-16.09-44.36-7.95-9.52a3.4,3.4,0,0,0,1.17-2.23l18.91,1.65Zm-8-9.45,7.95,9.52-3.16,2.63-5.45-11.73A3.41,3.41,0,0,0,303.77,276.18Zm8,9.6,19.06,22.83a2.06,2.06,0,0,0-.54.74l-14.75-5.93-7-15Zm3.63,17.58-14.59-5.86a2.07,2.07,0,0,0,.05-2.63l7.64-6.37Zm-14.67-5.78,14.73,5.92,12.33,26.55-.11.08-27.08-32.43Zm29.78,31.72,1.56-17.06a2.07,2.07,0,0,0,1.29-.35l6.57,7.62L332.34,330A3.84,3.84,0,0,0,330.52,329.3Zm2.93-17.47.09-.07a2.07,2.07,0,0,0,.71-2l15.24-3.4L340,319.42Zm23.21-22,10.9-9.07a2.08,2.08,0,0,0,.3.28L359.23,293Zm10.83-9.15-10.9,9.07-10.24-12.3L367,279.3A2.06,2.06,0,0,0,367.49,280.72Zm-11,9.14L333.77,308.8a2.07,2.07,0,0,0-1.31-.69l3-31.57,10.79.94Zm-21.09-13.43.71-7.58a3.42,3.42,0,0,0,2.21-.79h0l7.76,9.32Zm1.4-14.38,1.55-16.61a2.28,2.28,0,0,0,1.6-.91l11.55,13.87-12.13,5.92a3.42,3.42,0,0,0-2.57-2.27Zm1.4-16.6L336.67,262a3.43,3.43,0,0,0-3.2,5.55L324,275.44l-19-1.66a3.39,3.39,0,0,0-.75-2.38l32.12-26.75a2.26,2.26,0,0,0,1.83.81Zm-36.86,31.48a3.4,3.4,0,0,0,1.64-.29l5.46,11.76-7.67,6.38a2.06,2.06,0,0,0-1-.63ZM333,330.62a3.85,3.85,0,0,0-.62-.58L340,319.59l2.62,3Zm7-11.12,9.57-13.18,14.28-3.19a3.17,3.17,0,0,0,.62,1.25l-21.82,18.17Zm27.18-20.29a3.17,3.17,0,0,0-2.23.7L359.3,293l8.64-11.9a2.07,2.07,0,0,0,.93.35Zm.49-21.35a2.07,2.07,0,0,0-.69,1.33l-20.8-1.82-7.83-9.4a3.43,3.43,0,0,0,1-3.56l12.16-5.94Z" transform="translate(-26.05 -15.07)"/><path class="cls-9" d="M376.91,363.69a2.28,2.28,0,0,0-1.41-1.93l2.31-5.3,17.84,3.07a2.28,2.28,0,1,0,2.74-2.5l7.09-41.19a3.41,3.41,0,1,0-1.4-6.18l-10-14.11a2.07,2.07,0,0,0,0-3.65l7.27-15.24a3.37,3.37,0,1,0-.1,0L394,291.84a2.07,2.07,0,0,0-2.93,1.47l-41.65-7.11a3.83,3.83,0,0,0-.27-2.13l10.63-7.6a2.31,2.31,0,1,0-.07-.08L349.15,284a3.85,3.85,0,1,0-4.19,5.42l-2.12,12.3-14-2.16a2.44,2.44,0,1,0,0,.1l14,2.16-4.82,28a3.19,3.19,0,1,0,1.31,5.78l10.27,14.54a2.06,2.06,0,0,0-.83,1.83l-7.83,1a3.5,3.5,0,1,0,.05.37c0-.09,0-.18,0-.27l7.82-1a2.07,2.07,0,0,0,4.09.13l24.85,4.28-2.3,5.28a2.28,2.28,0,1,0,1.51,2Zm-36.25-30.27a3.18,3.18,0,0,0-1.19-3l8.72-11.59,1.26,16.11Zm7.63-14.72,9.47-12.58a2.06,2.06,0,0,0,.8.35l-5,29.17-4-.69Zm34.57,19.66-4.37-6.23,9.11-6.49-2.07,12A3.42,3.42,0,0,0,382.86,338.35ZM378.43,332,360.2,306.1a2.07,2.07,0,0,0,.8-1.26l29.32,5-2.69,15.65Zm-29-45.5,26.49,12.16-15,5a2.07,2.07,0,0,0-3.1-1l-9.89-14A3.84,3.84,0,0,0,349.39,286.54Zm41,23.32,12.22,2.09a3.4,3.4,0,0,0,.56,2.45l-15.46,11Zm12.24,2-12.22-2.09.7-4.06,11.76,5.4A3.41,3.41,0,0,0,402.66,311.84Zm-12.33-2.11-29.32-5a2.06,2.06,0,0,0-.07-.91L376,298.76l15,6.89Zm-14.17-11,14.91-5a2.07,2.07,0,0,0,1.67,2l-1.69,9.8Zm14.91-5.12L376,298.65l-26.61-12.21,0-.14,41.65,7.11C391.08,293.47,391.08,293.53,391.07,293.59Zm-43.24-4.82,9.89,14a2.07,2.07,0,0,0-.76,1.1L347,302.34l-1-12.9A3.85,3.85,0,0,0,347.84,288.78Zm9.1,15.2,0,.11a2.07,2.07,0,0,0,.76,2l-9.39,12.48L347,302.44Zm-3.42,31.76-2.4,14a2.08,2.08,0,0,0-.41,0l-1.14-14.63Zm-2.3,14,2.4-14,15.77,2.71-16.92,12A2.07,2.07,0,0,0,351.22,349.73Zm2.42-14.08,5-29.17a2.06,2.06,0,0,0,1.45-.33l18.23,25.94-8.82,6.28Zm24.76-3.46,4.38,6.23a3.42,3.42,0,0,0-1.17,2h0l-11.95-2.06ZM386.66,344l9.6,13.65a2.28,2.28,0,0,0-.63,1.73l-17.79-3.06L383.23,344a3.42,3.42,0,0,0,3.43.06Zm9.71,13.54L386.8,344a3.43,3.43,0,0,0-1.17-6.3l2.08-12.11,15.55-11.07a3.39,3.39,0,0,0,2.11,1.33L398.29,357a2.26,2.26,0,0,0-1.92.57ZM404,309.72a3.4,3.4,0,0,0-1.07,1.28l-11.78-5.41,1.69-9.83a2.06,2.06,0,0,0,1.18-.17ZM345.06,289.4a3.85,3.85,0,0,0,.85,0l1,12.88-4-.61Zm1.86,13,1.27,16.24-8.8,11.69a3.17,3.17,0,0,0-1.28-.55l4.82-28Zm-7.52,33.07a3.17,3.17,0,0,0,1.25-2l8.82,1.52,1.14,14.66a2.07,2.07,0,0,0-.94.34Zm13.47,16.56a2.07,2.07,0,0,0-.33-1.46l17-12.11,12.06,2.07a3.43,3.43,0,0,0,1.54,3.36l-5.4,12.41Z" transform="translate(-26.05 -15.07)"/><path class="cls-9" d="M327,273a2.28,2.28,0,0,0-2.24-.83l-1-5.69,16.58-7.27a2.28,2.28,0,1,0,.91-3.6l-16.78-38.29a3.41,3.41,0,1,0-4.57-4.39l-16.1-6.29a2.07,2.07,0,0,0-2-3.06L299.5,186.9a3.37,3.37,0,1,0-.1,0l2.33,16.71a2.07,2.07,0,0,0-1.64,2.84l-38.68,17a3.83,3.83,0,0,0-1.4-1.63l4.69-12.2a2.31,2.31,0,1,0-.1,0l-4.68,12.17a3.85,3.85,0,1,0-.51,6.83l5,11.44L251.58,246a2.44,2.44,0,1,0,0,.1l12.84-5.89,11.4,26a3.19,3.19,0,1,0,4.27,4.1l16.58,6.48a2.05,2.05,0,0,0,.32,2l-6,5.11a3.5,3.5,0,1,0,.25.28l-.18-.21,6-5.1a2.07,2.07,0,0,0,3.48-2.15l23.09-10.12,1,5.67A2.28,2.28,0,1,0,327,273Zm-46.93-5.3a3.18,3.18,0,0,0-2.65-1.85l.9-14.48,9.92,12.75Zm-1.74-16.49,1-15.71a2.06,2.06,0,0,0,.86-.15L292,262.49l-3.7,1.62ZM318,248.61l-7.08-2.79,4-10.43,4.89,11.16A3.42,3.42,0,0,0,318,248.61Zm-7.18-2.82-29.51-11.61a2.07,2.07,0,0,0,0-1.5l27.23-12,6.38,14.55Zm-49.3-22,28.8-4.45-9.72,12.44a2.07,2.07,0,0,0-3.15.86l-16-6.23A3.84,3.84,0,0,0,261.54,223.81Zm47.09-3.14,11.35-5a3.4,3.4,0,0,0,1.82,1.74L315,235.12Zm11.31-5.09-11.35,5-1.65-3.77,12.79-2A3.41,3.41,0,0,0,319.93,215.58Zm-11.45,5-27.23,12a2.06,2.06,0,0,0-.56-.72l9.79-12.53,16.33-2.52Zm-17.9-1.4,9.68-12.39a2.07,2.07,0,0,0,2.52.78l4,9.11Zm9.12-11.84-9.27,11.87-27.83,4.3-.12-.41,36.86-16.21Zm-38.23,19.15,16,6.23a2.07,2.07,0,0,0,0,1.34l-9.15,4.2-7.95-10.21A3.84,3.84,0,0,0,261.47,226.53Zm16,7.67,0,.1a2.07,2.07,0,0,0,1.72,1.23l-1,15.59-9.91-12.74Zm14.64,28.39,5.69,13a2.07,2.07,0,0,0-.35.21l-9-11.59Zm5.79,12.94-5.69-13,14.66-6.42-7.49,19.38A2.06,2.06,0,0,0,297.88,275.54Zm-5.73-13.08-11.88-27.11a2.07,2.07,0,0,0,1-1.07l29.51,11.61L306.9,256Zm18.75-16.53,7.09,2.79a3.42,3.42,0,0,0,.15,2.34h0L307,255.93Zm13.43,5.34,15.53,6.1a2.28,2.28,0,0,0,.43,1.79l-16.53,7.25-2.32-13.3a3.42,3.42,0,0,0,2.89-1.84Zm15.56,6-15.49-6.1a3.43,3.43,0,0,0-4.44-4.61L315,235.26l6.88-17.8a3.39,3.39,0,0,0,2.5-.06l16.78,38.29a2.26,2.26,0,0,0-1.29,1.53Zm-20-44.15a3.4,3.4,0,0,0-.18,1.66l-12.81,2-4-9.14a2.06,2.06,0,0,0,.89-.79ZM259.5,228.59a3.85,3.85,0,0,0,.73-.44l7.93,10.19L264.51,240Zm8.73,9.84,10,12.85-.9,14.6a3.17,3.17,0,0,0-1.37.24l-11.4-26Zm11.94,31.75a3.17,3.17,0,0,0,0-2.34l8.19-3.59,9,11.61a2.07,2.07,0,0,0-.6.8Zm20.37,6.4a2.07,2.07,0,0,0-1.08-1L307,256.07l11.2-4.91a3.43,3.43,0,0,0,3.14,2l2.33,13.33Z" transform="translate(-26.05 -15.07)"/></g><g id="net-8" data-name="net" class="cls-10"><path class="cls-9" d="M148.2,236.3a2.83,2.83,0,0,0,2.93.46l2.61,6.68-18.37,12.9a2.83,2.83,0,1,0-.22,4.6l29.79,42.4a4.23,4.23,0,1,0,6.63,4.21l21.1,3.69a2.57,2.57,0,0,0,3.17,3.23l6.94,19.74a4.17,4.17,0,1,0,.12-.05L196,314.43a2.57,2.57,0,0,0,1.3-3.85l42.82-30.16a4.75,4.75,0,0,0,2.1,1.64l-2.7,16a2.88,2.88,0,1,0,.13,0l2.7-15.94a4.78,4.78,0,1,0-1.05-8.43L232.36,261l14.15-10.31a3,3,0,1,0-.07-.11l-14.15,10.31L212,232.08a3.95,3.95,0,1,0-6.2-3.94l-21.74-3.8a2.55,2.55,0,0,0-.88-2.33l6-7.68a4.34,4.34,0,1,0-.37-.28l.27.21-6,7.68a2.57,2.57,0,0,0-3.71,3.46l-25.58,18-2.6-6.65a2.83,2.83,0,1,0-3-.41Zm58.33-5.09a4,4,0,0,0,3.67,1.6l2.47,17.82-15.19-13.06Zm6.16,19.61,2.68,19.33a2.55,2.55,0,0,0-1,.4l-21.09-30,4.1-2.88Zm-47.57,13,9.29,1.65-2.34,13.66-8.68-12.36A4.24,4.24,0,0,0,165.12,263.78Zm9.42,1.67,38.71,6.86a2.56,2.56,0,0,0,.4,1.81L183.5,295.35l-11.32-16.11Zm65.3,14.6-33.91,12.48L214.7,275a2.57,2.57,0,0,0,3.61-1.82l20.93,3.66A4.76,4.76,0,0,0,239.84,280ZM183.4,295.43l-12.57,8.85a4.21,4.21,0,0,0-2.64-1.67l4-23.19Zm-12.49,9,12.57-8.85,2.93,4.18-15.05,5.54A4.23,4.23,0,0,0,170.9,304.39Zm12.68-8.93,30.15-21.24a2.56,2.56,0,0,0,.85.74l-8.82,17.63-19.23,7.07Zm22.09-2.7-8.72,17.44a2.57,2.57,0,0,0-3.25-.33l-7.09-10.09ZM197,310.3l8.81-17.6,34.06-12.53.09.15-42.82,30.16Zm42.21-33.57-20.93-3.66a2.56,2.56,0,0,0-.3-1.63l10.09-7.35,12.17,10.46A4.77,4.77,0,0,0,239.26,276.72ZM218,271.33l-.07-.11a2.57,2.57,0,0,0-2.39-1.08L212.84,251,228,264Zm-24.77-30.9L183.09,226a2.57,2.57,0,0,0,.38-.34l13.8,11.86ZM183,226.11l10.11,14.38L176.86,251.9l4.34-25.39A2.56,2.56,0,0,0,183,226.11Zm10.18,14.49,21.09,30a2.56,2.56,0,0,0-1,1.55l-38.71-6.86,2.26-13.23Zm-18.73,24.69-9.3-1.65a4.24,4.24,0,0,0-.76-2.81h0l12.3-8.64Zm-17.63-3.19-20.37-3.6a2.82,2.82,0,0,0-1-2.07l18.31-12.86,6.09,15.59a4.24,4.24,0,0,0-3.06,2.95Zm-20.37-3.41,20.32,3.6a4.25,4.25,0,0,0,6.53,4.51L172,279.27l-4,23.32a4.21,4.21,0,0,0-3,.68l-29.79-42.4a2.8,2.8,0,0,0,1.19-2.18Zm35.15,48.74a4.22,4.22,0,0,0-.19-2.06l15.08-5.55,7.11,10.12a2.56,2.56,0,0,0-.88,1.18Zm69.57-33.69a4.77,4.77,0,0,0-.78.71L228.23,264l4-2.93Zm-13-9.82-15.31-13.16-2.49-18a3.93,3.93,0,0,0,1.61-.63L232.18,261Zm-22.31-35.65a3.93,3.93,0,0,0,.63,2.83l-9.08,6.38L183.55,225.6a2.57,2.57,0,0,0,.53-1.12ZM179.5,225.5a2.56,2.56,0,0,0,1.57,1L176.7,252l-12.41,8.72a4.26,4.26,0,0,0-4.3-1.61l-6.11-15.63Z" transform="translate(-26.05 -15.07)"/><path class="cls-9" d="M244.5,193.95a2.83,2.83,0,0,0,.58,2.91l-5.35,4.77L221.25,188.9a2.83,2.83,0,1,0-4.39,1.39L187.49,233a4.23,4.23,0,1,0-1.64,7.68l3.89,21.07a2.57,2.57,0,0,0-1.92,4.1l-16.09,13.38a4.17,4.17,0,1,0,.09.09l16.08-13.37a2.56,2.56,0,0,0,4.06-.13l43.19,29.63a4.75,4.75,0,0,0-.8,2.54l-15.92,3a2.87,2.87,0,1,0,0,.13l15.88-3a4.78,4.78,0,1,0,7.54-3.93l8.77-12.75,14.59,9.68a3,3,0,1,0,.07-.11l-14.59-9.68,20-29a3.95,3.95,0,1,0,1.53-7.18l-4-21.7a2.55,2.55,0,0,0,1.88-1.63l9.31,3a4.34,4.34,0,1,0,.14-.45c0,.11-.07.21-.1.32l-9.3-3a2.57,2.57,0,0,0-4.54-2.27L239.85,201.7l5.33-4.75a2.83,2.83,0,1,0-.68-3Zm25.09,52.9a4,4,0,0,0-.22,4l-15.84,8.52,6.95-18.78Zm-16.23,12.61-17.19,9.24a2.56,2.56,0,0,0-.72-.81l20.8-30.23,4.13,2.84Zm-28.71-40.08,1.69,9.28-13.62,2.57,8.56-12.44A4.24,4.24,0,0,0,224.65,219.38Zm1.72,9.41,7.05,38.67a2.56,2.56,0,0,0-1.56,1l-30.41-20.86,11.16-16.22Zm9.06,66.3-23.5-27.44,19.46,2.11a2.57,2.57,0,0,0,3,2.75l3.86,20.89A4.76,4.76,0,0,0,235.42,295.09Zm-34.08-47.55-12.68-8.7a4.21,4.21,0,0,0,.64-3.05l23.12-4.36Zm-12.75-8.59,12.68,8.7-2.89,4.2-10.43-12.18A4.22,4.22,0,0,0,188.59,238.95Zm12.78,8.77,30.41,20.86a2.56,2.56,0,0,0-.39,1.06l-19.6-2.13L198.47,252Zm10.23,19.77-19.38-2.1a2.57,2.57,0,0,0-.82-3.16l7-10.16Zm-19.44-2,19.57,2.12,23.61,27.56-.11.14L192,265.7Zm46.17,27.87-3.86-20.89a2.56,2.56,0,0,0,1.43-.85l10.4,6.9-5.57,15A4.77,4.77,0,0,0,238.33,293.38ZM236,271.54l.08-.11a2.57,2.57,0,0,0,.18-2.62l17.05-9.17-6.94,18.77Zm20.34-34,10-14.48a2.57,2.57,0,0,0,.45.23l-6.31,17.07ZM266.17,223l-10,14.48-16.35-11.25,25.31-4.78A2.56,2.56,0,0,0,266.17,223Zm-10,14.59-20.8,30.23a2.56,2.56,0,0,0-1.8-.39l-7.05-38.67,13.19-2.49Zm-29.67-9-1.69-9.29a4.24,4.24,0,0,0,2.37-1.69h0l12.38,8.52ZM223.32,211l-3.72-20.35A2.82,2.82,0,0,0,221.2,189l18.44,12.68-12.49,11.14a4.24,4.24,0,0,0-3.83-1.85Zm-3.9-20.28,3.7,20.31a4.25,4.25,0,0,0-2,7.69l-8.63,12.55-23.25,4.39a4.21,4.21,0,0,0-1.69-2.6L217,190.37a2.8,2.8,0,0,0,2.46.35ZM186,240.65a4.22,4.22,0,0,0,1.87-.89L198.3,252l-7,10.19a2.56,2.56,0,0,0-1.42-.42Zm55.81,53.47a4.77,4.77,0,0,0-.93-.48l5.56-15,4.15,2.75Zm4.67-15.63,7-18.94,16-8.59a3.93,3.93,0,0,0,1.15,1.29l-20,29Zm25.64-33.33a3.93,3.93,0,0,0-2.43,1.58l-9.14-6.29,6.33-17.1a2.57,2.57,0,0,0,1.23.11Zm-6.57-25.64a2.56,2.56,0,0,0-.38,1.81l-25.44,4.8-12.49-8.6a4.26,4.26,0,0,0,0-4.59l12.52-11.17Z" transform="translate(-26.05 -15.07)"/><path class="cls-9" d="M209.61,141.09a2.83,2.83,0,0,0,2.7,1.23l.73,7.13L191.89,157a2.83,2.83,0,1,0-1.44,4.37l17.38,48.82A4.23,4.23,0,1,0,213.1,216l19.35,9.19a2.57,2.57,0,0,0,2.2,4L236.06,250a4.17,4.17,0,1,0,.13,0l-1.41-20.87a2.57,2.57,0,0,0,2.28-3.37l49.32-17.63a4.75,4.75,0,0,0,1.59,2.14l-6.87,14.67a2.87,2.87,0,1,0,.12,0l6.86-14.64a4.78,4.78,0,1,0,1.23-8.41l-5.19-14.58,16.39-6.16a3,3,0,1,0,0-.12l-16.39,6.16-11.81-33.17a3.95,3.95,0,1,0-4.92-5.45l-19.94-9.47a2.55,2.55,0,0,0-.22-2.48l7.88-5.79a4.34,4.34,0,1,0-.28-.37l.2.27-7.87,5.78a2.57,2.57,0,0,0-4.5,2.35L213.17,149.4l-.73-7.1a2.83,2.83,0,1,0-2.83-1.21Zm57.57,10.67a4,4,0,0,0,3.11,2.52l-2.38,17.83-11.15-16.64Zm.7,20.54-2.58,19.34a2.56,2.56,0,0,0-1.08.11L251.92,157.2l4.72-1.68Zm-49.3-.22,8.51,4.07-5.9,12.54-5.07-14.23A4.24,4.24,0,0,0,218.58,172.08Zm8.63,4.12,35.47,16.95a2.56,2.56,0,0,0-.09,1.85l-34.72,12.41-6.61-18.55Zm59,31.51-36,3,13.12-14.53a2.57,2.57,0,0,0,4-.79l19.19,9.11A4.76,4.76,0,0,0,286.25,207.72Zm-58.5-.25-14.48,5.18a4.21,4.21,0,0,0-2.1-2.31l10-21.29Zm-14.43,5.3,14.48-5.18,1.71,4.81-16,1.32A4.22,4.22,0,0,0,213.31,212.77Zm14.6-5.22,34.72-12.41a2.56,2.56,0,0,0,.63.94L250,210.7l-20.42,1.68Zm22,3.3-13.06,14.47a2.57,2.57,0,0,0-3-1.19l-4.14-11.62Zm-13,14.6,13.19-14.61,36.17-3,0,.17L237,225.65Zm49.64-21.08-19.19-9.11a2.56,2.56,0,0,0,.15-1.65l11.68-4.39,8.93,13.33A4.77,4.77,0,0,0,286.57,204.36Zm-19.08-10.89,0-.13a2.57,2.57,0,0,0-2-1.68L268,172.47l11.14,16.63Zm-15.61-36.4L246,140.52a2.58,2.58,0,0,0,.45-.23l10.13,15.12Zm-6-16.52,5.9,16.56-18.69,6.66,11-23.31A2.56,2.56,0,0,0,245.86,140.56Zm5.94,16.68,12.31,34.57a2.56,2.56,0,0,0-1.37,1.23l-35.47-16.95L233,163.94ZM227.15,176,218.63,172a4.24,4.24,0,0,0,0-2.91h0l14.16-5ZM211,168.25l-18.67-8.91a2.82,2.82,0,0,0-.38-2.25l21.08-7.51,1.7,16.65a4.24,4.24,0,0,0-3.74,2Zm-18.72-8.73,18.62,8.9a4.25,4.25,0,0,0,5.09,6.09l5.11,14.35L211,210.28a4.21,4.21,0,0,0-3.09-.15l-17.38-48.82a2.8,2.8,0,0,0,1.73-1.78Zm20.86,56.36a4.22,4.22,0,0,0,.37-2l16-1.32,4.15,11.65a2.56,2.56,0,0,0-1.17.9Zm76-13.89a4.77,4.77,0,0,0-.94.47l-8.91-13.3,4.66-1.75Zm-9.93-12.94L268,172.28l2.4-18a3.92,3.92,0,0,0,1.72-.18L284,187.29Zm-12-40.31a3.93,3.93,0,0,0-.15,2.9l-10.45,3.72-10.15-15.15a2.57,2.57,0,0,0,.81-.94ZM242.66,139a2.56,2.56,0,0,0,1.25,1.37l-11,23.42-14.29,5.09a4.26,4.26,0,0,0-3.71-2.7l-1.71-16.69Z" transform="translate(-26.05 -15.07)"/><path class="cls-9" d="M346.43,165.1a2.83,2.83,0,0,0-2.85.81l-5.18-5,11.21-19.45a2.83,2.83,0,1,0-1.74-4.26L303,111.37a4.23,4.23,0,1,0-7.79-1l-20.69,5.56a2.57,2.57,0,0,0-4.24-1.59l-14.62-15a4.17,4.17,0,1,0-.09.1l14.61,15a2.57,2.57,0,0,0,.45,4l-26.09,45.42a4.75,4.75,0,0,0-2.6-.6l-4.29-15.62a2.88,2.88,0,1,0-.12,0l4.28,15.59a4.78,4.78,0,1,0,4.51,7.2l13.41,7.73-8.48,15.32a3,3,0,1,0,.11.07l8.48-15.32,30.51,17.58a3.95,3.95,0,1,0,7.28,1l21.31-5.73a2.55,2.55,0,0,0,1.78,1.75l-2.24,9.52a4.34,4.34,0,1,0,.46.1l-.33-.07,2.24-9.51a2.57,2.57,0,0,0,1.9-4.71l15.61-27.08L343.5,166a2.83,2.83,0,1,0,2.94-.91ZM295.7,194.32a4,4,0,0,0-4,.1l-9.75-15.11,19.28,5.43Zm-13.86-15.18-10.58-16.4A2.56,2.56,0,0,0,272,162l31.79,18.32-2.5,4.34Zm37.66-31.82-9.12,2.43-3.65-13.37,13.08,7.54A4.24,4.24,0,0,0,319.5,147.33Zm-9.24,2.46-38,10.11a2.56,2.56,0,0,0-1.13-1.47l18.37-32,17.06,9.83Zm-65.37,14.32,25.48-25.62-.55,19.57a2.57,2.57,0,0,0-2.51,3.18l-20.51,5.52A4.76,4.76,0,0,0,244.89,164.11Zm44.69-37.76L297.23,113a4.21,4.21,0,0,0,3.1.4l6.19,22.7Zm7.55-13.4-7.66,13.33L285,123.73l11.31-11.37A4.22,4.22,0,0,0,297.12,113Zm-7.72,13.44-18.37,32a2.56,2.56,0,0,0-1.09-.31l.56-19.71,14.45-14.53Zm-18.89,11.77.55-19.49a2.57,2.57,0,0,0,3.09-1.07l10.69,6.16Zm.42-19.54-.56,19.68L244.78,164l-.15-.09,26.09-45.42Zm-24.1,48.25,20.51-5.52a2.56,2.56,0,0,0,1,1.36l-6,10.92-15.44-4.35A4.77,4.77,0,0,0,246.83,166.87Zm21.58-4.09.11.07a2.57,2.57,0,0,0,2.62,0l10.5,16.27-19.26-5.43Zm35.49,17.57,15.23,8.78a2.57,2.57,0,0,0-.2.47l-17.52-4.93ZM319.2,189,304,180.24,313.87,163l6.78,24.85A2.56,2.56,0,0,0,319.2,189Zm-15.34-8.84-31.79-18.32a2.56,2.56,0,0,0,.24-1.82l38-10.11,3.53,13Zm6.56-30.29,9.12-2.43a4.24,4.24,0,0,0,1.87,2.23h0l-7.5,13Zm17.33-4.54,20-5.33a2.82,2.82,0,0,0,1.75,1.47l-11.17,19.39-12.1-11.56a4.24,4.24,0,0,0,1.53-4Zm19.91-5.5-19.95,5.31a4.25,4.25,0,0,0-7.83-1.34l-13.2-7.61-6.23-22.83a4.21,4.21,0,0,0,2.45-1.89l44.9,25.87a2.8,2.8,0,0,0-.16,2.48Zm-52.43-29.36a4.22,4.22,0,0,0,1,1.79l-11.33,11.4-10.71-6.17a2.56,2.56,0,0,0,.3-1.44Zm-48.85,59.9a4.77,4.77,0,0,0,.41-1l15.41,4.34-2.41,4.36Zm15.95,3.41,19.44,5.47,9.84,15.24a3.93,3.93,0,0,0-1.19,1.25l-30.51-17.58Zm35.26,22.9a3.93,3.93,0,0,0-1.77-2.3l5.54-9.61,17.55,4.94a2.57,2.57,0,0,0,0,1.24Zm25-8.59a2.56,2.56,0,0,0-1.84-.24l-6.81-25,7.57-13.14a4.26,4.26,0,0,0,4.57-.36L338.24,161Z" transform="translate(-26.05 -15.07)"/><path class="cls-9" d="M219.6,184.38a2.83,2.83,0,0,0-1.93,2.25l-7.05-1.28-1.36-22.41a2.83,2.83,0,1,0-3.8-2.6l-51.73,3.14a4.23,4.23,0,1,0-7.06,3.44l-14.2,16a2.57,2.57,0,0,0-4.41,1l-20.45-4.44a4.17,4.17,0,1,0,0,.13L128,184.11a2.56,2.56,0,0,0,2.6,3.12l3.24,52.28a4.75,4.75,0,0,0-2.5.93l-12.19-10.68a2.88,2.88,0,1,0-.08.11l12.16,10.65A4.78,4.78,0,1,0,139,244l15.45-.94,1.36,17.46a3,3,0,1,0,.13,0l-1.36-17.46L189.73,241a3.95,3.95,0,1,0,6.6-3.22L211,221.22a2.55,2.55,0,0,0,2.45.48l3.37,9.18a4.34,4.34,0,1,0,.44-.17l-.31.12-3.37-9.17a2.57,2.57,0,0,0-1-5l-1.9-31.2,7,1.27a2.83,2.83,0,1,0,1.95-2.38Zm-26.24,52.34a4,4,0,0,0-3.29,2.29l-16.47-7.24,19.08-6.09Zm-19.93-5-17.87-7.85a2.56,2.56,0,0,0,.19-1.06l36.62-2.23.3,5Zm13.9-47.3-6.27,7-10.41-9.15,15.07-.92A4.24,4.24,0,0,0,187.33,184.39ZM181,191.54,154.84,220.9a2.56,2.56,0,0,0-1.75-.61l-2.28-36.8,19.66-1.19Zm-46.66,48,7.15-35.41,10.32,16.63a2.57,2.57,0,0,0-.34,4l-14.08,15.9A4.76,4.76,0,0,0,134.31,239.5Zm16.49-56.13-1-15.34a4.21,4.21,0,0,0,2.8-1.37l17.67,15.53ZM149.72,168l1,15.34-5.09.31L148.75,168A4.22,4.22,0,0,0,149.72,168Zm1,15.47,2.28,36.8a2.56,2.56,0,0,0-1.07.34L141.5,203.9l4.05-20.08Zm-9.28,20.23-10.28-16.57a2.57,2.57,0,0,0,2-2.59l12.31-.75Zm-10-15.92,10,16.11-7,34.61-.43,0L130.81,188Zm6.08,52.93,14.08-15.9a2.56,2.56,0,0,0,1.55.6l1,12.44-15.28,4.88A4.77,4.77,0,0,0,137.45,240.74Zm15.76-15.3h.13a2.57,2.57,0,0,0,2.17-1.47l17.73,7.79-19.07,6.09Zm39.3-4.89,17.55-1.07a2.57,2.57,0,0,0,.09.5l-17.34,5.53Zm17.54-1.2-17.55,1.07-1.2-19.81,19.35,17A2.56,2.56,0,0,0,210,219.35Zm-17.68,1.07-36.62,2.23a2.56,2.56,0,0,0-.8-1.66l26.13-29.37,10.08,8.86Zm-11.21-28.89,6.28-7.05a4.24,4.24,0,0,0,2.79.83h0l.91,15Zm12-13.34,13.74-15.46a2.82,2.82,0,0,0,2.27.26l1.36,22.34-16.47-3a4.24,4.24,0,0,0-.9-4.15Zm13.58-15.56L193,178a4.25,4.25,0,0,0-7.27,3.2l-15.2.92-17.77-15.62a4.21,4.21,0,0,0,1-2.93l51.73-3.14a2.8,2.8,0,0,0,1.23,2.15ZM146.77,167a4.22,4.22,0,0,0,1.85.92l-3.18,15.76-12.34.75a2.56,2.56,0,0,0-.54-1.37ZM139,243.92a4.77,4.77,0,0,0-.19-1L154.06,238l.39,5ZM154.18,238l19.24-6.14,16.6,7.3a3.93,3.93,0,0,0-.3,1.7L154.57,243Zm42-.31a3.93,3.93,0,0,0-2.74-.95l-.67-11.07,17.37-5.54a2.57,2.57,0,0,0,.68,1Zm16.16-21a2.56,2.56,0,0,0-1.67.82l-19.44-17.09-.92-15.14a4.26,4.26,0,0,0,3.62-2.82l16.51,3Z" transform="translate(-26.05 -15.07)"/></g><path class="cls-9" d="M342.05,110.44a2.34,2.34,0,0,0,.9,2.28l-3.65,4.67-16.92-7.63a2.34,2.34,0,1,0-3.37,1.78l-17.62,39.07a3.49,3.49,0,1,0-.2,6.49l6.27,16.57a2.12,2.12,0,0,0-1,3.62l-11.13,13.26a3.45,3.45,0,1,0,.09.06l11.12-13.25a2.12,2.12,0,0,0,3.29-.7l39.51,17.76a3.93,3.93,0,0,0-.28,2.19l-12.51,4.81a2.37,2.37,0,1,0,0,.1l12.48-4.8a3.95,3.95,0,1,0,5.55-4.3l5.26-11.67,13.3,5.73a2.51,2.51,0,1,0,0-.1L360,180.63l12-26.54a3.27,3.27,0,1,0,.19-6.07L365.69,131a2.11,2.11,0,0,0,1.29-1.61l8,1.07a3.59,3.59,0,1,0,0-.38c0,.09,0,.18,0,.28l-8-1.06a2.13,2.13,0,0,0-4-1.18L339.4,117.43l3.64-4.65a2.34,2.34,0,1,0-1-2.34Zm28.2,39.36a3.27,3.27,0,0,0,.41,3.29L359,162.35,361.91,146Zm-11.36,12.65-12.63,10a2.11,2.11,0,0,0-.71-.55L358,144.29l3.77,1.7Zm-29.26-28.4,2.74,7.3-10.71,4.1,5.14-11.38A3.51,3.51,0,0,0,329.63,134.06Zm2.78,7.41,11.43,30.43a2.12,2.12,0,0,0-1.12,1l-27.81-12.5,6.7-14.85Zm17.12,52.62-23.16-18.87,16.15-1.14a2.12,2.12,0,0,0,2.82,1.8l6.22,16.43A3.93,3.93,0,0,0,349.54,194.08ZM314.81,160.4l-11.6-5.21a3.48,3.48,0,0,0,.07-2.58l18.17-7Zm-11.64-5.11,11.6,5.21L313,164.34,302.75,156A3.49,3.49,0,0,0,303.17,155.28Zm11.69,5.26L342.68,173a2.11,2.11,0,0,0-.16.92l-16.26,1.15-13.14-10.7Zm11.23,14.58L310,176.26a2.13,2.13,0,0,0-1.13-2.45l4.19-9.3ZM310,176.37l16.24-1.15,23.27,19-.07.13-39.51-17.76Zm41.68,15.89-6.22-16.43a2.12,2.12,0,0,0,1-.9L356,179l-2.32,13.06A3.94,3.94,0,0,0,351.65,192.27Zm-5.13-17.43.05-.1a2.13,2.13,0,0,0-.24-2.16l12.53-10L356,178.91Zm11.56-30.65,6-13.25a2.13,2.13,0,0,0,.4.12l-2.63,14.82ZM364,130.9l-6,13.25-15-6.75,19.89-7.61A2.12,2.12,0,0,0,364,130.9Zm-6,13.35-12.48,27.66a2.12,2.12,0,0,0-1.52,0l-11.43-30.44,10.37-4Zm-25.46-2.93L329.73,134a3.51,3.51,0,0,0,1.68-1.72h0l11.33,5.11Zm-5.15-13.89-6-16a2.33,2.33,0,0,0,1.07-1.56l16.87,7.61-8.53,10.9a3.5,3.5,0,0,0-3.39-.94Zm-6.16-15.93,6,16a3.52,3.52,0,0,0-.46,6.55l-5.18,11.48-18.28,7a3.48,3.48,0,0,0-1.76-1.86l17.62-39.07a2.32,2.32,0,0,0,2.05-.07ZM301.29,157a3.49,3.49,0,0,0,1.39-1l10.31,8.4-4.21,9.32a2.12,2.12,0,0,0-1.21-.13Zm53.28,35.31a4,4,0,0,0-.83-.26l2.31-13,3.78,1.63Zm1.5-13.4L359,162.51l11.74-9.34a3.25,3.25,0,0,0,1.13.88l-12,26.54Zm16-30.89a3.25,3.25,0,0,0-1.75,1.64l-8.36-3.77,2.63-14.85a2.12,2.12,0,0,0,1-.1Zm-9.12-19.9a2.12,2.12,0,0,0,0,1.53l-20,7.65-11.43-5.16a3.52,3.52,0,0,0-.67-3.73l8.55-10.93Z" transform="translate(-26.05 -15.07)"/><path class="cls-9" d="M412.77,161.12a2.34,2.34,0,0,0-1.82,1.64L405.3,161l1.26-18.52a2.34,2.34,0,1,0-2.84-2.54L361,137a3.49,3.49,0,1,0-6.16,2.07l-13.35,11.65a2.12,2.12,0,0,0-3.73.36l-16.3-5.81a3.45,3.45,0,1,0,0,.1l16.29,5.81a2.12,2.12,0,0,0,1.8,2.84l-2.89,43.22a3.93,3.93,0,0,0-2.15.5l-8.86-10a2.38,2.38,0,1,0-.07.08l8.84,10a3.95,3.95,0,1,0,6,3.71l12.77.87-.74,14.46a2.51,2.51,0,1,0,.11,0l.74-14.46,29.05,2a3.27,3.27,0,1,0,5.76-1.94l13.75-12a2.11,2.11,0,0,0,2,.65l1.79,7.88a3.59,3.59,0,1,0,.38-.09l-.27.06-1.79-7.88a2.13,2.13,0,0,0-.3-4.19l1.76-25.79,5.63,1.79a2.34,2.34,0,1,0,1.85-1.74Zm-27.08,40.14a3.27,3.27,0,0,0-2.94,1.53L370,195.11l16.29-3ZM369.88,195l-13.82-8.34a2.12,2.12,0,0,0,.27-.85l30.27,2.06-.28,4.13Zm16.42-37.32-5.89,5.12-7.57-8.61,12.46.85A3.51,3.51,0,0,0,386.3,157.71Zm-6,5.19-24.55,21.31a2.12,2.12,0,0,0-1.37-.68l2-30.43,16.25,1.11ZM337,197.28,346.59,169l6.7,14.74a2.12,2.12,0,0,0-.71,3.27l-13.24,11.55A3.93,3.93,0,0,0,337,197.28ZM356.45,153l.85-12.69a3.48,3.48,0,0,0,2.44-.83l12.85,14.61Zm.74-12.69L356.34,153l-4.21-.29,4.27-12.56A3.49,3.49,0,0,0,357.19,140.29Zm-.85,12.79-2,30.43a2.11,2.11,0,0,0-.92.17l-6.74-14.84,5.46-16Zm-9.76,15.61L339.91,154a2.12,2.12,0,0,0,1.9-1.92l10.18.69ZM339.79,154l6.73,14.82-9.67,28.42-.14,0L339.61,154Zm-.38,44.6,13.24-11.55a2.12,2.12,0,0,0,1.2.66L353.33,198l-13.05,2.38A3.94,3.94,0,0,0,339.41,198.63ZM354,187.75h.11a2.13,2.13,0,0,0,1.94-1l13.71,8.27-16.28,3Zm32.75.16,14.5,1a2.13,2.13,0,0,0,0,.42L386.43,192Zm14.51.88-14.5-1,1.11-16.37,14.06,16A2.12,2.12,0,0,0,401.22,188.79Zm-14.61-1-30.27-2.06a2.12,2.12,0,0,0-.48-1.44L380.4,163l7.33,8.34Zm-6.13-24.89,5.9-5.12a3.51,3.51,0,0,0,2.2,1h0l-.84,12.4Zm11.22-9.67L404.62,142a2.33,2.33,0,0,0,1.83.46l-1.26,18.46L392,156.74a3.5,3.5,0,0,0-.3-3.5Zm12.79-11.32L391.61,153.1a3.52,3.52,0,0,0-6.3,1.85l-12.57-.86-12.92-14.7a3.48,3.48,0,0,0,1.13-2.3L403.72,140a2.32,2.32,0,0,0,.78,1.9Zm-49.62-2.76a3.49,3.49,0,0,0,1.42,1L352,152.69l-10.2-.69a2.12,2.12,0,0,0-.3-1.18ZM340.34,201.4a4,4,0,0,0,0-.87l13-2.37-.21,4.11Zm13.09-3.26,16.43-3,12.84,7.75a3.25,3.25,0,0,0-.43,1.36l-29.05-2ZM388,202.34a3.25,3.25,0,0,0-2.15-1.07l.62-9.15,14.83-2.7a2.12,2.12,0,0,0,.44.92Zm15.48-15.48a2.12,2.12,0,0,0-1.45.49l-14.13-16.08.85-12.51a3.52,3.52,0,0,0,3.27-1.93L405.19,161Z" transform="translate(-26.05 -15.07)"/><path class="cls-9" d="M428.36,172.78a2.34,2.34,0,0,0,.26,2.44l-4.77,3.52-14.27-11.88a2.34,2.34,0,1,0-3.72.81l-27.42,32.94a3.49,3.49,0,1,0-1.93,6.2l1.62,17.64a2.12,2.12,0,0,0-1.89,3.23L362,237.5a3.45,3.45,0,1,0,.07.09l14.25-9.8a2.12,2.12,0,0,0,3.36.2L413,255.66a3.93,3.93,0,0,0-.85,2L398.81,259a2.38,2.38,0,1,0,0,.11l13.3-1.29a3.95,3.95,0,1,0,6.5-2.66l8.19-9.84,11.29,9.07a2.51,2.51,0,1,0,.07-.08l-11.29-9.07,18.63-22.38a3.27,3.27,0,1,0,1.8-5.8l-1.66-18.18a2.11,2.11,0,0,0,1.67-1.2l7.44,3.17a3.59,3.59,0,1,0,.15-.36c0,.08-.07.17-.11.26l-7.43-3.16a2.13,2.13,0,0,0-3.57-2.21l-19.87-16.54,4.75-3.51a2.34,2.34,0,1,0-.33-2.52ZM445,218.25a3.27,3.27,0,0,0-.48,3.27l-13.69,5.82L438,212.4Zm-14.32,9.16-14.85,6.31a2.11,2.11,0,0,0-.53-.72l19.41-23.32,3.18,2.65Zm-20.61-35.18.69,7.77-11.41,1.09,8-9.6A3.51,3.51,0,0,0,410.08,192.23Zm.7,7.88,2.88,32.38a2.12,2.12,0,0,0-1.36.71l-23.46-19.48,10.42-12.52Zm2.45,55.29L396,231l15.87,3.21a2.12,2.12,0,0,0,2.23,2.49l1.6,17.49A3.93,3.93,0,0,0,413.24,255.39Zm-24.47-41.74L379,205.53a3.48,3.48,0,0,0,.76-2.47l19.37-1.85Zm-9.85-8,9.78,8.12L386,217l-7.67-10.82A3.49,3.49,0,0,0,378.91,205.62Zm9.87,8.19,23.46,19.48a2.12,2.12,0,0,0-.4.84l-16-3.23-9.8-13.82Zm6.93,17.05-15.8-3.2a2.13,2.13,0,0,0-.44-2.67l6.52-7.84Zm-15.86-3.1,16,3.23,17.36,24.48-.1.11-33.33-27.67Zm35.92,26.45-1.6-17.49a2.12,2.12,0,0,0,1.24-.59l8,6.46-5.72,12A3.94,3.94,0,0,0,415.76,254.21ZM415.47,236l.08-.08a2.13,2.13,0,0,0,.34-2.14l14.74-6.26-7.14,14.93Zm19.32-26.45,9.3-11.17a2.14,2.14,0,0,0,.35.23L438,212.23ZM444,198.35l-9.3,11.17L422.1,199l21.2-2A2.12,2.12,0,0,0,444,198.35Zm-9.37,11.26-19.41,23.32a2.12,2.12,0,0,0-1.45-.45l-2.88-32.38L421.95,199ZM410.88,200l-.69-7.78a3.51,3.51,0,0,0,2.08-1.21h0l9.55,8Zm-1.26-14.76-1.53-17a2.33,2.33,0,0,0,1.44-1.22l14.22,11.84L412.64,187a3.5,3.5,0,0,0-3-1.81Zm-1.68-17,1.51,17a3.52,3.52,0,0,0-2.19,6.19l-8.06,9.68L379.73,203a3.48,3.48,0,0,0-1.2-2.26L406,167.75a2.32,2.32,0,0,0,2,.48Zm-31.32,38.59a3.49,3.49,0,0,0,1.6-.59l7.69,10.84-6.54,7.86a2.11,2.11,0,0,0-1.13-.45Zm41.92,48.26a4,4,0,0,0-.73-.47l5.71-11.95,3.21,2.58Zm5-12.52,7.2-15.07,13.8-5.87a3.25,3.25,0,0,0,.85,1.15l-18.63,22.38ZM447.21,217a3.25,3.25,0,0,0-2.12,1.12L438,212.3l6.5-13.6a2.12,2.12,0,0,0,1,.18Zm-3.47-21.61a2.12,2.12,0,0,0-.45,1.47l-21.31,2-9.64-8a3.52,3.52,0,0,0,.35-3.78l11.16-8.25Z" transform="translate(-26.05 -15.07)"/><path class="cls-9" d="M225.78,114.5a2.34,2.34,0,0,0-1.78-1.68l1.34-5.77,18.56-.22a2.34,2.34,0,1,0,2.3-3l-.51-42.85a3.49,3.49,0,1,0-2.56-6L230.46,42.58a2.12,2.12,0,0,0-.66-3.69l4.49-16.71a3.45,3.45,0,1,0-.11,0l-4.49,16.7a2.12,2.12,0,0,0-2.68,2l-43.31.57a3.93,3.93,0,0,0-.67-2.1l9.31-9.64a2.39,2.39,0,1,0-.09-.07L183,39.27a3.95,3.95,0,1,0-3.22,6.25l.15,12.8-14.48.42a2.51,2.51,0,1,0,0,.11l14.48-.42.34,29.12a3.27,3.27,0,1,0,2.39,5.58l13.06,12.75a2.11,2.11,0,0,0-.49,2l-7.72,2.42a3.59,3.59,0,1,0,.12.37c0-.09-.06-.18-.09-.27l7.71-2.41a2.13,2.13,0,0,0,4.15-.63l25.85-.31-1.34,5.75a2.34,2.34,0,1,0,1.89,1.7ZM183.6,90.71a3.27,3.27,0,0,0-1.76-2.81l6.64-13.31,4.26,16Zm5-16.26L195.77,60a2.11,2.11,0,0,0,.87.2L197,90.55l-4.14,0Zm38.51,13.4-5.57-5.47,8-8.23.15,12.49A3.51,3.51,0,0,0,227.07,87.84Zm-5.65-5.54-23.2-22.77a2.12,2.12,0,0,0,.57-1.42l30.49-.4L229.48,74ZM183.69,41.82l29,7.33L198.5,57a2.12,2.12,0,0,0-3.32-.45L182.62,44.29A3.93,3.93,0,0,0,183.69,41.82Zm45.7,15.89,12.71-.17a3.48,3.48,0,0,0,1,2.37l-13.54,14Zm12.71-.27-12.71.17-.05-4.22,12.86,3.26A3.49,3.49,0,0,0,242.11,57.43Zm-12.82.17-30.49.4a2.11,2.11,0,0,0-.24-.9l14.26-7.91,16.42,4.16Zm-16.34-8.48,14.1-7.82A2.13,2.13,0,0,0,229.11,43l.12,10.2ZM227,41.19,212.8,49.08l-29.1-7.37s0-.1,0-.14L227,41C227,41.06,227,41.12,227,41.19Zm-44.49,3.18,12.57,12.27a2.12,2.12,0,0,0-.56,1.25l-10.32.3-3.41-12.82A3.94,3.94,0,0,0,182.54,44.36Zm12,13.63s0,.07,0,.11A2.13,2.13,0,0,0,195.67,60l-7.15,14.33-4.26-16ZM197,90.66l.17,14.54a2.13,2.13,0,0,0-.42.06l-3.87-14.54Zm.28,14.54-.17-14.54,16.41-.19-14.82,15.29A2.12,2.12,0,0,0,197.28,105.19Zm-.17-14.64-.36-30.34a2.12,2.12,0,0,0,1.4-.6l23.2,22.77-7.73,8Zm24.32-8.09L227,87.93a3.51,3.51,0,0,0-.8,2.27h0l-12.43.15ZM232,92.87l12.22,12a2.33,2.33,0,0,0-.31,1.86l-18.51.22,3.13-13.48a3.5,3.5,0,0,0,3.47-.58Zm12.31,11.85-12.18-12a3.52,3.52,0,0,0-2.35-6.13L229.59,74,243.21,60a3.48,3.48,0,0,0,2.38.95l.51,42.85a2.32,2.32,0,0,0-1.83.93ZM243.06,55a3.49,3.49,0,0,0-.84,1.49l-12.89-3.26L229.22,43a2.12,2.12,0,0,0,1.16-.39Zm-63.21-9.53a4,4,0,0,0,.86-.12l3.41,12.8-4.12.12Zm4.3,12.79,4.29,16.14-6.7,13.42a3.25,3.25,0,0,0-1.39-.32L180,58.42ZM182.71,93a3.25,3.25,0,0,0,.89-2.23l9.17-.11,3.88,14.57a2.12,2.12,0,0,0-.88.52Zm16.66,14.2a2.12,2.12,0,0,0-.61-1.41l14.9-15.37,12.54-.15a3.52,3.52,0,0,0,2.18,3.1l-3.14,13.52Z" transform="translate(-26.05 -15.07)"/></g></svg>