<svg xmlns="http://www.w3.org/2000/svg" viewBox="0 0 666 57" width="666" height="57"><style>tspan { white-space:pre }.shp0 { fill: #d3e3e3 } </style><g ><path class="shp0" d="M0.02 53.25C0.03 51.19 1.02 46.8 2.23 43.5C3.7 39.5 5.94 35.99 8.97 32.98C11.46 30.49 15.3 27.8 17.5 27C20.91 25.76 43.02 25.47 166.5 25.02C287.7 24.59 312.07 24.27 315 23.1C316.93 22.33 319.74 20.86 321.25 19.85C322.76 18.83 324.86 16.31 325.91 14.25C326.96 12.19 328.31 8.36 328.91 5.75C329.93 1.29 330.2 1 333.25 0.98C336.26 0.96 336.56 1.26 337.25 4.98C337.66 7.19 338.86 10.69 339.9 12.75C340.95 14.81 342.86 17.49 344.15 18.69C345.44 19.9 348.3 21.7 350.5 22.69C354.28 24.4 362.45 24.53 499 25.02C599.05 25.38 644.42 25.87 646.5 26.62C648.15 27.22 650.85 28.41 652.5 29.26C654.15 30.12 656.74 32.1 658.25 33.66C659.76 35.22 662.13 39.54 663.5 43.25C664.88 46.96 666 51.58 666 53.5C666 56.33 665.62 57 664 57C662.49 57 661.73 55.96 660.89 52.75C660.28 50.41 658.93 46.81 657.89 44.75C656.85 42.69 654.54 40 652.75 38.79C650.96 37.57 647.02 36 644 35.3C639.69 34.31 608.57 34.03 500.5 34.02C403.88 34.01 360.7 33.68 356.5 32.9C353.2 32.3 348.93 30.99 347 30C345.07 29.01 342.51 27.14 341.31 25.85C340.1 24.56 338.23 21.48 337.16 19C336.08 16.52 334.93 12.59 334.6 10.25C334.27 7.91 333.66 5.99 333.25 5.98C332.84 5.98 332.16 8.11 331.74 10.73C331.32 13.36 329.94 17.75 328.68 20.5C327.41 23.25 325.06 26.48 323.44 27.68C321.82 28.88 318.48 30.68 316 31.68C311.74 33.4 303.81 33.53 166.5 34L21.5 34.5C13.59 38.48 10.44 41.13 8.78 43.5C7.25 45.7 5.54 49.64 4.99 52.25C4.21 56 3.58 57 2 57C0.35 57 0 56.34 0.02 53.25Z" /></g></svg>