<svg xmlns="http://www.w3.org/2000/svg" viewBox="0 0 64 64"><defs><style>.cls-1,.cls-2{fill:#28193a;.cls-2{fill-rule:evenodd;}</style></defs><path class="cls-1" d="M26.58,4.05A22.66,22.66,0,1,1,3.92,26.71,22.68,22.68,0,0,1,26.58,4.05m0-4A26.66,26.66,0,1,0,53.24,26.71,26.66,26.66,0,0,0,26.58.05Z"/><path class="cls-1" d="M44.25,50.55l12,12c4.1,4.1,10.47-2.26,6.36-6.36l-12-12c-4.1-4.1-10.47,2.26-6.36,6.36Z"/><polyline class="cls-2" points="18.98 47.8 24.49 31.35 14.96 25.94 32.27 4.65 28.12 21.6 39.35 25.81"/></svg>