<svg xmlns="http://www.w3.org/2000/svg" viewBox="0 0 462.57 509.62"><defs><style>.cls-1{isolation:isolate;}.cls-2{mix-blend-mode:multiply;}.cls-3{fill:#94afb8;}.cls-4{fill:#638015;}.cls-5{fill:#155880;}.cls-6{fill:#dbd643;}.cls-7{fill:#80406d;}.cls-8{fill:#13806c;}.cls-9{fill:#cca048;}.cls-10{fill:#806530;}.cls-11{fill:#037780;}.cls-12{fill:#6c8015;}.cls-13{fill:#c46264;}.cls-14{fill:#547aa7;}.cls-15{fill:#407080;}.cls-16{fill:#dd2a8a;}.cls-17{fill:#f653d0;}.cls-18{fill:#8ca6c4;}.cls-19{fill:#e25257;}.cls-20{fill:#4f0d95;}.cls-21{fill:#825307;}.cls-22{fill:#674080;}.cls-23{fill:#534080;}.cls-24,.cls-26{fill:#28193a;}.cls-24{opacity:0.4;}.cls-25{opacity:0.8;}</style></defs><title>mind</title><g class="cls-1"><g id="brain"><g class="cls-2"><path class="cls-3" d="M289.62,110.48l.3,1-41.55,13-.15-.48-.5,0,2.3-47,1,0-1.34,27.43a13.18,13.18,0,0,0,17.09,13.22Z"/><path class="cls-3" d="M247.75,407.61l20.77,66.5,1-.3-10.07-32.23a10.6,10.6,0,0,1,16.68-11.48l24.22,19.13,3.94,27.6-14.88,20.78.81.58,1.21-1.68a17.42,17.42,0,0,1,27.77-.72l1.94,2.43.78-.62-16.63-20.83-1-7.24a9.16,9.16,0,0,1,13.94-9.06l3.06,1.92.75-.31,5.28-23.45a3.24,3.24,0,0,1,6.3-.05l5.8,23.82h0l8.42,29.71,1-.27-5.15-18.17a7,7,0,0,1,8.11-8.74,49.71,49.71,0,0,1,22,10.6l4.58,3.84.64-.77L364.5,466.49l-11.89-2.43a20,20,0,0,1-15.43-14.86l-1.57-6.46a10.19,10.19,0,0,1,13.59-11.91A178.19,178.19,0,0,1,392.46,455l7,5.32.6-.8L373,439,330.5,422.51l-61.79-37.15a5.87,5.87,0,0,1,3-10.9h56.1A21,21,0,0,1,342,380l47.57,43.49H421v-1h-8.24a58.77,58.77,0,0,1-39.66-15.4l-29-26.53a5.46,5.46,0,0,1,2-9.23l24.56-7.84a51.7,51.7,0,0,1,31.2-.08l39.48,12.39.3-1-55.4-17.38-30.68,9.8a5.46,5.46,0,0,1-5.84-8.7l26.9-32.12a21.31,21.31,0,0,1,29.42-3.17l12.49,9.69,29.63,4.52.15-1-14.27-2.18a58.77,58.77,0,0,1-27.16-11.67l-1-.75a9.71,9.71,0,0,1,3.26-17l12.07-3.48,33.35-22,.13-1L400,255.52l-41-28.37a4.95,4.95,0,0,1,3.86-8.9l38.8,8.39a30.06,30.06,0,0,1,19.47,14l5.7,9.57.86-.51-4-6.72a15.33,15.33,0,0,1,6-21.38l20.58-10.95-.47-.88-25.16,13.38a30.73,30.73,0,0,1-20.93,2.9l-42.14-9.12a10.65,10.65,0,0,1-3.77-19.2l8.36-5.74a24.27,24.27,0,0,1,21.4-3l29.32,9.77.32-.95-25.6-8.53a3,3,0,0,1,.64-5.85l47.61-5-.1-1L376,184.13l.05.5-.28-.41-21.65,14.86a20.74,20.74,0,0,1-29.27-6L324,191.8a12,12,0,0,1,4.27-16.85l3.61-2a105.2,105.2,0,0,1,51.5-13.47h16.51l25.38-17.19-.56-.83-10.19,6.91a58.77,58.77,0,0,1-33,10.11h-5.23a15.57,15.57,0,0,1-15.11-19.35l3.86-15.43a28.9,28.9,0,0,1,14.34-18.44l16.76-9-.47-.88-28.45,15.5-9.51,38.06a23.26,23.26,0,0,1-11.18,14.64l-23.46,13.17a17.3,17.3,0,0,1-13.81,1.37L267,164.33a5,5,0,0,1,.28-9.68c.45-.12,54.22-14.12,54.62-14.37l24.55-29-.76-.65-8.14,9.62a79.78,79.78,0,0,1-40.72,25.64l-26.33,6.88a4.34,4.34,0,0,1-3.82-7.58l46.65-37.64a37.27,37.27,0,0,1,7.73-4.81l54.67-25.33-.42-.91-38.79,18A10.53,10.53,0,0,1,321.76,82.7l3.44-15.93a21.19,21.19,0,0,1,7.72-12.26l15.66-12.16-.61-.79-7.71,6a13.3,13.3,0,0,1-20.41-5.32L308.23,14.76l-.92.39,15.93,37.67a21.19,21.19,0,0,1,1.19,12.74l-3.38,15.61a11.16,11.16,0,0,1-19.39,4.9L288.62,70.84a43,43,0,0,1-10.34-28V15h-1V28.78A9.57,9.57,0,0,1,260,34.53l-4.54-6-.8.6,22.67,30.17,27.56,32.16a16.32,16.32,0,0,1-2.14,23.32l-54.33,43.83.31.39-.15.48L309.07,179a1.91,1.91,0,0,1-.08,3.66L260.37,196l-12,42.59-.51.44.33.38-.37.33,43.33,48.65a8.42,8.42,0,0,1-6.29,14H248.22v.5l-.37.34,31.3,34,.37-.34,0,.5,47.59-3a3,3,0,0,1,1.34,5.72L247.8,374l67.47,40.57A23.31,23.31,0,0,1,326,439.62a15.62,15.62,0,0,1-23.55,9.8l-1.39-.87-52.53-41.48ZM329.3,320.2a7.32,7.32,0,0,1-3.65,13.37l-25.48,1.6a43,43,0,0,1-34.31-13.79l-1.82-2a9.51,9.51,0,0,1,7-15.94h22.28A36.79,36.79,0,0,1,314,309.8Zm-39.4-88.56a12.51,12.51,0,0,1,14.21,8L311.84,261a35.1,35.1,0,0,1-.69,25.67,10.59,10.59,0,0,1-17.65,2.91l-32-36a10.6,10.6,0,0,1,5.84-17.44Zm19.84,7.08a7.49,7.49,0,0,1,8.21-1.28L362.52,258a6,6,0,0,1-.89,11.28L355.69,271l-10,.65a37.76,37.76,0,0,1-37.94-24.82A7.49,7.49,0,0,1,309.74,238.72Zm-51.07-8.86a3.55,3.55,0,0,1-5.73-3.66l4.62-16.44a23.68,23.68,0,0,1,16.53-16.44l35.17-9.65a1.16,1.16,0,0,1,1.06,2Zm89.19,103.31.64-1,.06-.09-36-24.38a10.59,10.59,0,0,1-3.8-12.9A35.81,35.81,0,0,1,339.45,273l3.16-.2a59.84,59.84,0,0,1,25.32,3.86l28.66,11,.36-.93-28.75-11a3.87,3.87,0,0,1,.33-7.33,40,40,0,0,1,20.56-.31l25.55,6.39.24-1-19.95-5a175.53,175.53,0,0,1-31-10.91L301,228.5l-.21.45-.1-.49-37.33,7.46a3.55,3.55,0,0,1-3-6.18l45.61-39a12,12,0,0,1,17.91,2.7l11.89,18.81.42-.27-.28.41,63.59,44,.28-.41-.19.46,36.27,15.06a10.22,10.22,0,0,1,1.71,18l-16.74,11-31.33,9-47.24,56.41a21,21,0,0,1-16.11,7.52H271.2a4,4,0,0,1-1.54-7.67Z"/></g><g class="cls-2"><circle class="cls-4" cx="255.11" cy="28.79" r="10.06"/><circle class="cls-5" cx="274.5" cy="8.29" r="8.29"/><circle class="cls-6" cx="307.77" cy="14.96" r="10.23"/><circle class="cls-7" cx="374.11" cy="76.96" r="13.05"/><circle class="cls-8" cx="395.98" cy="95.78" r="11.07"/><circle class="cls-9" cx="346.03" cy="110.96" r="11.66"/><circle class="cls-10" cx="289.77" cy="110.96" r="8.55"/><circle class="cls-11" cx="250.52" cy="76.96" r="9.87"/><circle class="cls-12" cx="425.02" cy="141.85" r="9.83"/><circle class="cls-13" cx="450.02" cy="210.21" r="9.53"/><circle class="cls-14" cx="427.27" cy="251.46" r="9.47"/><circle class="cls-15" cx="414.77" cy="228.96" r="10.2"/><circle class="cls-16" cx="356.28" cy="158.96" r="11.26"/><circle class="cls-12" cx="317.25" cy="180.96" r="10.81"/><circle class="cls-17" cx="260.77" cy="198.29" r="13.73"/><circle class="cls-18" cx="302.77" cy="228.96" r="11.87"/><circle class="cls-7" cx="248.77" cy="239.21" r="9.96"/><circle class="cls-19" cx="250.52" cy="158.96" r="12.99"/><circle class="cls-20" cx="248.22" cy="123.96" r="8.99"/><circle class="cls-15" cx="250.52" cy="302.96" r="11.1"/><circle class="cls-13" cx="304.77" cy="302.96" r="11.59"/><circle class="cls-19" cx="279.52" cy="334.71" r="11.01"/><circle class="cls-10" cx="439.77" cy="177.96" r="12.42"/><circle class="cls-20" cx="317.25" cy="273.96" r="14.53"/><circle class="cls-13" cx="396.77" cy="287.21" r="6.49"/><circle class="cls-14" cx="414.77" cy="273.96" r="6.95"/><circle class="cls-5" cx="336.63" cy="211.96" r="18.67"/><circle class="cls-8" cx="348.27" cy="332.46" r="15.43"/><circle class="cls-6" cx="250.52" cy="373.96" r="13.87"/><circle class="cls-7" cx="338.02" cy="373.96" r="19.77"/><circle class="cls-10" cx="389.77" cy="309.96" r="12.17"/><circle class="cls-18" cx="388.4" cy="357.96" r="12.2"/><circle class="cls-17" cx="441.52" cy="375.29" r="11.68"/><circle class="cls-4" cx="447.27" cy="336.96" r="14.6"/><circle class="cls-15" cx="453.77" cy="278.46" r="8.79"/><circle class="cls-18" cx="421.02" cy="422.96" r="11.15"/><circle class="cls-15" cx="398.65" cy="459.96" r="12.46"/><circle class="cls-20" cx="378.15" cy="478.96" r="10.5"/><circle class="cls-8" cx="348.27" cy="491.96" r="10.6"/><circle class="cls-13" cx="330.27" cy="422.96" r="12.07"/><circle class="cls-21" cx="321.48" cy="461.96" r="12.67"/><circle class="cls-10" cx="289.77" cy="497.9" r="8.96"/><circle class="cls-7" cx="321.48" cy="497.9" r="11.72"/><circle class="cls-15" cx="269.27" cy="473.96" r="12.91"/><circle class="cls-19" cx="250.52" cy="412.71" r="10.1"/><circle class="cls-17" cx="389.77" cy="422.96" r="12"/><circle class="cls-22" cx="399.77" cy="255.96" r="11.59"/><circle class="cls-20" cx="417.02" cy="196.46" r="12.26"/><circle class="cls-23" cx="316.59" cy="104.24" r="12.19"/><circle class="cls-13" cx="321.48" cy="139.21" r="8.98"/><circle class="cls-13" cx="346.88" cy="42.21" r="10.01"/><circle class="cls-17" cx="277.77" cy="58.96" r="9.3"/></g><polygon class="cls-24" points="212.57 124.43 171.03 111.43 171.32 110.48 212.19 123.27 209.93 76.98 210.92 76.93 213.22 123.93 212.72 123.96 212.57 124.43"/><path class="cls-24" d="M42,332,12.6,336.46l.15,1,29.63-4.52.1-.08,28.62-22.2L123.28,373l-48.6-15.52-.15,0L19.28,374.81l.3,1,55.1-17.29,49.12,15.69L71,422.46H39.92v1H71.37l.14-.13L125,374.46h85.41l-79.92,48.05L87.87,439.06l-27,20.5.61.8L88.42,439.9,130,423.77l-9.2,37.76-24.31,5-.1.08L82,478.57l.64.77L96.9,467.42l23.57-4.81-8.28,29.21,1,.27,8.42-29.71h0l.07-.28h0v0l9-36.93L139,462.07l.49-.11.27.42L159.53,450l-3.83,26.8-16.63,20.83.78.62,16.3-20.42,14.62,20.4.81-.58L156.7,476.83l3.94-27.6,51.12-40.37-20.29,65,1,.3,20.77-66.5-.48-.15-.31-.39-52.53,41.48L139.8,461.16l-8.55-38L214,373.46h-1.7l-96.13-40.09,65.24,4.09,0-.5.37.34,31.3-34-.37-.34v-.5H157.29l55.81-62.67-.37-.33.33-.38-.52-.44-12-42.59L145.8,181l66.53-21.58-.15-.48.31-.39-67.41-54.39,38.48-44.9-.38-.33.4.3,22.67-30.17-.8-.6-21.77,29,3.27-49.17h-1l-3.27,50.48-38,44.38L135.09,59l18.55-43.85-.92-.39-18.36,43.4L113,41.56l-.61.79,21.75,16.89,9.55,44.13L87.05,66.25l-.42.91,57.46,37.51,66,53.21-70.31-18.37L115.3,110.63l-.76.65,24.55,29,.38-.32-.13.48L210.4,159l-66,21.4-38.81-21.79-12-48-.19-.11L65.21,95.34l-.47.88,28,15.07,11.79,47.16H61.33l-25.12-17-.56.83L61,159.46h44l38.61,21.67v0l-19,30.09-39.42-27-.28.41.05-.5-63.75-6.67-.1,1,61.45,6.43L43.77,197.82l.32.95,40.76-13.59,38.68,26.54L46.25,228.43,11.16,209.76l-.47.88,34.79,18.5L33.25,249.7l.86.51L46.49,229.4,122.42,213,60.93,255.51,7,278l.38.92,54-22.5-.19-.46.28.41,63.59-44-.28-.41.42.27,19.29-30.51,66.47,56.88-50.67-10.12-.1.49-.21-.45-78,36-36,9,.24,1,35.87-9,21.43,6.05L64,286.74l.36.93L105.25,272l38.28,2.47,12,28.34L112.39,332l.06.09-2.75-.17-.06,1,3.45.22,96.59,40.28H125L71.46,309.52l-31.33-9-32.69-20-.52.85,32.87,20.05,30.3,8.73Zm169.8-92.21L156.33,302l-11.92-28.09,16.09-44.41ZM83.61,264.84l75.68-34.93-15.77,43.52L105.26,271Zm127.55-27.38L146.7,182.3l53.07,14.56Zm-29.95,99-67.31-4.22,42.42-28.76h55.26Z"/><g class="cls-25"><circle class="cls-26" cx="205.84" cy="28.79" r="7.17"/><circle class="cls-26" cx="186.45" cy="8.29" r="7.17"/><circle class="cls-26" cx="153.17" cy="14.96" r="7.17"/><circle class="cls-26" cx="86.84" cy="66.71" r="7.17"/><circle class="cls-26" cx="64.97" cy="95.78" r="7.17"/><circle class="cls-26" cx="114.92" cy="110.96" r="7.17"/><circle class="cls-26" cx="171.17" cy="110.96" r="7.17"/><circle class="cls-26" cx="210.42" cy="76.96" r="7.17"/><circle class="cls-26" cx="35.92" cy="141.85" r="7.17"/><circle class="cls-26" cx="10.92" cy="210.21" r="7.17"/><circle class="cls-26" cx="33.67" cy="251.46" r="7.17"/><circle class="cls-26" cx="46.17" cy="228.96" r="7.17"/><circle class="cls-26" cx="104.67" cy="158.96" r="7.17"/><circle class="cls-26" cx="143.7" cy="180.96" r="7.17"/><circle class="cls-26" cx="200.17" cy="198.29" r="7.17"/><circle class="cls-26" cx="158.17" cy="228.96" r="7.17"/><circle class="cls-26" cx="212.17" cy="239.21" r="7.17"/><circle class="cls-26" cx="210.42" cy="158.96" r="7.17"/><circle class="cls-26" cx="212.72" cy="123.96" r="7.17"/><circle class="cls-26" cx="210.42" cy="302.96" r="7.17"/><circle class="cls-26" cx="156.17" cy="302.96" r="7.17"/><circle class="cls-26" cx="181.42" cy="334.71" r="7.17"/><circle class="cls-26" cx="21.17" cy="177.96" r="7.17"/><circle class="cls-26" cx="143.7" cy="273.96" r="7.17"/><circle class="cls-26" cx="64.17" cy="287.21" r="7.17"/><circle class="cls-26" cx="46.17" cy="273.96" r="7.17"/><circle class="cls-26" cx="124.32" cy="211.96" r="7.17"/><circle class="cls-26" cx="112.67" cy="332.46" r="7.17"/><circle class="cls-26" cx="210.42" cy="373.96" r="7.17"/><circle class="cls-26" cx="122.92" cy="373.96" r="7.17"/><circle class="cls-26" cx="71.17" cy="309.96" r="7.17"/><circle class="cls-26" cx="72.55" cy="357.96" r="7.17"/><circle class="cls-26" cx="19.42" cy="375.29" r="7.17"/><circle class="cls-26" cx="13.67" cy="336.96" r="7.17"/><circle class="cls-26" cx="7.17" cy="278.46" r="7.17"/><circle class="cls-26" cx="39.92" cy="422.96" r="7.17"/><circle class="cls-26" cx="62.3" cy="459.96" r="7.17"/><circle class="cls-26" cx="82.8" cy="478.96" r="7.17"/><circle class="cls-26" cx="112.67" cy="491.96" r="7.17"/><circle class="cls-26" cx="130.67" cy="422.96" r="7.17"/><circle class="cls-26" cx="139.46" cy="461.96" r="7.17"/><circle class="cls-26" cx="171.17" cy="497.9" r="7.17"/><circle class="cls-26" cx="139.46" cy="497.9" r="7.17"/><circle class="cls-26" cx="191.67" cy="473.96" r="7.17"/><circle class="cls-26" cx="210.42" cy="412.71" r="7.17"/><circle class="cls-26" cx="71.17" cy="422.96" r="7.17"/><circle class="cls-26" cx="61.17" cy="255.96" r="7.17"/><circle class="cls-26" cx="43.92" cy="196.46" r="7.17"/><circle class="cls-26" cx="144.36" cy="104.24" r="7.17"/><circle class="cls-26" cx="139.46" cy="139.21" r="7.17"/><circle class="cls-26" cx="114.07" cy="42.21" r="7.17"/><circle class="cls-26" cx="183.17" cy="58.96" r="7.17"/></g></g></g></svg>