<svg width="176" height="50" viewBox="0 0 176 50" fill="none" xmlns="http://www.w3.org/2000/svg">
<path d="M163.609 20.6846C163.464 20.7211 163.282 21.0488 163.282 21.2673C163.245 22.5419 163.209 25.8922 163.209 28.1865C163.209 28.2593 163.318 28.3685 163.391 28.3685C163.864 28.405 164.993 28.4414 165.976 28.4414C167.324 28.4414 168.125 28.2593 168.562 28.0772C169.691 27.4945 170.237 26.2564 170.237 24.909C170.237 21.85 168.089 20.6482 164.884 20.6482C164.702 20.5754 164.083 20.5754 163.609 20.6846ZM171.767 34.8507C171.767 31.7189 169.472 29.9709 165.284 29.9709C165.102 29.9709 163.755 29.9345 163.464 30.0073C163.354 30.0437 163.245 30.1165 163.245 30.1894C163.245 32.4472 163.209 36.016 163.318 37.3999C163.391 38.0189 163.828 38.8565 164.374 39.1114C164.957 39.4392 166.231 39.4756 167.142 39.4756C169.582 39.4756 171.767 38.0918 171.767 34.8507ZM157.127 18.9366C157.455 18.9366 158.402 19.0459 160.842 19.0459C163.136 19.0459 164.993 18.9731 167.251 18.9731C170.019 18.9731 173.806 19.9563 173.806 24.0714C173.806 26.1107 172.386 27.713 170.528 28.5142C170.419 28.5506 170.419 28.6235 170.528 28.6235C173.187 29.279 175.518 30.9177 175.518 34.0495C175.518 37.0721 173.624 39.0386 170.856 40.2404C169.181 40.9687 167.105 41.2236 164.957 41.2236C163.354 41.2236 159.021 41.0415 156.581 41.1144C156.326 41.0051 156.799 39.8762 157.018 39.6941C157.601 39.6577 158.038 39.6213 158.62 39.4392C159.458 39.2207 159.567 38.9658 159.713 37.6548C159.786 36.5623 159.786 32.6293 159.786 29.8252C159.786 26.0015 159.822 23.3795 159.786 22.1413C159.749 21.1581 159.421 20.8303 158.693 20.6482C158.147 20.539 157.273 20.4297 156.544 20.3205C156.399 20.1384 156.945 19.0459 157.127 18.9366ZM138.882 38.638C139.647 39.2571 141.14 39.4756 142.451 39.4756C144.163 39.4756 145.874 39.1479 147.513 37.6548C149.188 36.1253 150.354 33.7946 150.354 30.0437C150.354 26.4749 149.006 23.5616 146.202 21.85C144.636 20.8667 142.597 20.4661 140.266 20.4661C139.574 20.4661 138.919 20.5026 138.482 20.6846C138.373 20.7575 138.154 21.0488 138.154 21.1945C138.081 21.8136 138.081 26.6934 138.081 29.5703C138.081 32.52 138.081 36.6351 138.154 37.1085C138.191 37.5819 138.409 38.3103 138.882 38.638ZM131.672 18.9366C132.291 18.9366 134.585 19.0459 135.678 19.0459C137.681 19.0459 139.101 18.9366 142.852 18.9366C146.02 18.9366 148.678 19.7742 150.572 21.413C152.866 23.4159 154.105 26.1471 154.105 29.5339C154.105 34.3045 151.92 37.0721 149.735 38.638C147.55 40.2404 144.709 41.1872 140.63 41.1872C138.482 41.1872 134.767 41.1144 131.708 41.0779H131.672C131.526 40.7866 131.927 39.6941 132.182 39.6577C133.019 39.5484 133.238 39.5484 133.638 39.3664C134.294 39.1114 134.44 38.7473 134.512 37.582C134.622 35.397 134.585 32.775 134.585 29.7888C134.585 27.6766 134.622 23.5251 134.549 22.1777C134.44 21.0852 133.966 20.7939 133.019 20.6118C132.546 20.5026 131.927 20.3933 131.016 20.2841C130.944 20.102 131.526 19.1187 131.672 18.9366Z" fill="#C7C7C7"/>
<path d="M93.3617 39.8762C92.5605 39.7669 92.0143 39.6577 91.286 39.3299C91.1767 39.2571 91.031 38.9658 91.031 38.8201C90.9582 37.7276 90.9582 34.5594 90.9582 32.4108C90.9582 30.6992 90.6669 29.2061 89.9385 28.15C89.101 26.9483 87.8628 26.2564 86.2605 26.2564C84.8766 26.2564 82.983 27.2032 81.4535 28.5506C81.4171 28.587 81.1621 28.8055 81.1986 28.4414C81.1986 28.0772 81.2714 27.3853 81.3078 26.9119C81.3442 26.4749 81.0893 26.2564 81.0893 26.2564C80.0696 26.7662 77.2291 27.4217 76.1731 27.531C75.4083 27.6766 75.2262 28.405 76.0274 28.6599H76.0638C76.9014 28.9148 77.4841 29.2061 77.9211 29.4975C78.2488 29.7524 78.2124 30.1165 78.2124 30.3715C78.2488 32.7385 78.2488 36.3802 78.1396 38.3831C78.1031 39.1843 77.8846 39.4756 77.302 39.5849L77.3748 39.5484C76.9378 39.6577 76.5736 39.7305 76.0274 39.8034C75.8453 39.9854 75.8453 41.0051 76.0274 41.2236C76.3916 41.2236 78.2124 41.1144 79.7419 41.1144C81.8176 41.1144 82.9101 41.2236 83.4564 41.2236C83.6749 40.9687 83.7477 40.0219 83.6021 39.8034C82.983 39.7669 82.546 39.6941 82.1454 39.5849C81.5627 39.4756 81.417 39.1843 81.3806 38.4924C81.3078 36.8172 81.3078 33.2848 81.3078 30.8449C81.3078 30.1894 81.4899 29.8616 81.672 29.6795C82.4003 29.0605 83.5656 28.587 84.6217 28.587C85.6414 28.587 86.2969 28.9148 86.8067 29.3154C87.4986 29.898 87.7171 30.6992 87.8264 31.3183C87.972 32.6657 87.9356 35.3605 87.9356 37.7276C87.9356 39.0022 87.8264 39.2935 87.353 39.4756C87.1345 39.5849 86.5518 39.6941 85.8963 39.7669C85.6778 39.9854 85.7506 40.9687 85.8963 41.1872C86.8067 41.1872 87.8992 41.0779 89.4651 41.0779C91.4316 41.0779 92.7062 41.1872 93.216 41.1872C93.4345 41.0415 93.5074 40.1311 93.3617 39.8762ZM102.138 27.7859C100.463 27.7859 99.4069 29.0969 99.4069 31.0998C99.4069 33.1755 100.317 35.5426 102.939 35.5426C103.376 35.5426 104.214 35.3605 104.578 34.9235C105.197 34.3409 105.598 33.2119 105.598 32.0102C105.598 29.3518 104.287 27.7859 102.138 27.7859ZM101.92 41.7699C101.301 41.7699 100.827 41.9519 100.572 42.134C99.2248 42.9716 98.6421 43.8092 98.6421 44.7924C98.6421 45.7028 99.0063 46.4312 99.7346 47.0867C100.645 47.8878 101.92 48.252 103.522 48.252C106.763 48.252 108.183 46.504 108.183 44.7924C108.183 43.5907 107.564 42.7895 106.362 42.3525C105.452 41.9519 103.85 41.7699 101.92 41.7699ZM102.138 50C100.208 50 98.8242 49.5994 97.6224 48.6526C96.4571 47.7786 95.9473 46.4312 95.9473 45.5208C95.9473 45.2658 96.0201 44.5739 96.5664 43.9548C96.9305 43.5907 97.6589 42.8623 99.4797 41.6242C99.5525 41.5878 99.5889 41.5513 99.5889 41.5149C99.5889 41.4421 99.5161 41.4057 99.4797 41.3693C97.9866 40.7866 97.5496 39.8762 97.4039 39.3664V39.2571C97.3675 39.075 97.2947 38.8929 97.586 38.6744C97.8045 38.5288 98.1323 38.3103 98.46 38.0918C99.0063 37.764 99.5525 37.4363 99.9167 37.1449C99.9895 37.0721 99.9895 37.0357 99.9895 36.9629C99.9895 36.89 99.9167 36.8536 99.8803 36.8172C97.6589 36.0889 96.5664 34.4501 96.5664 31.9738C96.5664 30.3715 97.2947 28.9148 98.6057 27.968C99.4797 27.276 101.701 26.402 103.158 26.402H103.267C104.76 26.4385 105.561 26.7662 106.763 27.1668C107.382 27.3853 108.001 27.4945 108.839 27.4945C110.077 27.4945 110.623 27.1304 111.06 26.657C111.097 26.7298 111.169 26.8755 111.169 27.276C111.206 27.6766 111.06 28.2957 110.769 28.7327C110.514 29.0969 109.931 29.3518 109.385 29.3518H109.239C108.657 29.279 108.402 29.2425 108.402 29.2425L108.293 29.3154C108.256 29.3882 108.293 29.4246 108.329 29.5339L108.365 29.6067C108.438 29.898 108.547 30.7356 108.547 30.9541C108.547 33.5397 107.491 34.705 106.399 35.5426C105.306 36.3438 104.105 36.8536 102.684 36.9629C102.648 36.9629 102.539 36.9629 102.247 36.9993C102.102 36.9993 101.883 37.0357 101.847 37.0357H101.81C101.555 37.1085 100.936 37.3999 100.936 37.9461C100.936 38.4195 101.228 39.0022 102.575 39.075C102.866 39.1114 103.158 39.1114 103.449 39.1479C105.27 39.2571 107.491 39.4392 108.547 39.7669C110.004 40.3132 110.915 41.5878 110.915 43.1537C110.915 45.4843 109.239 47.6693 106.435 49.0532C104.979 49.6723 103.631 50 102.138 50ZM120.201 27.9315C119.545 27.9315 118.926 28.0772 118.489 28.405C117.251 29.1697 116.632 30.6992 116.632 32.8842C116.632 37.0357 118.708 39.949 121.694 39.949C122.568 39.949 123.26 39.6941 123.879 39.1843C124.789 38.4195 125.263 36.89 125.263 34.7779C125.263 30.6992 123.187 27.9315 120.201 27.9315ZM120.747 41.4785C115.357 41.4785 113.427 37.5091 113.427 33.831C113.427 31.2455 114.483 29.2425 116.559 27.8223C118.052 26.9119 119.837 26.402 121.402 26.402C125.518 26.402 128.394 29.3518 128.394 33.5761C128.394 36.453 127.266 38.7473 125.081 40.1311C124.061 40.823 122.24 41.4785 120.747 41.4785ZM64.3377 27.9315C63.6822 27.9315 63.0631 28.0772 62.6261 28.405C61.3879 29.1697 60.7688 30.6992 60.7688 32.8842C60.7688 37.0357 62.8446 39.949 65.8307 39.949C66.7047 39.949 67.3967 39.6941 68.0157 39.1843C68.9262 38.4195 69.3996 36.89 69.3996 34.7779C69.3996 30.6992 67.3602 27.9315 64.3377 27.9315ZM64.9203 41.4785C59.5307 41.4785 57.6006 37.5091 57.6006 33.831C57.6006 31.2455 58.6567 29.2425 60.7324 27.8223C62.2255 26.9119 64.0099 26.402 65.5758 26.402C69.6909 26.402 72.5678 29.3518 72.5678 33.5761C72.5678 36.453 71.4389 38.7473 69.2539 40.1311C68.2342 40.823 66.4134 41.4785 64.9203 41.4785ZM28.7222 41.1508C28.6494 41.0415 28.613 40.7866 28.613 40.4224C28.613 40.1675 28.6858 40.0219 28.7222 39.949C29.3777 39.8398 29.7419 39.7669 30.1061 39.6577C30.7251 39.512 30.9801 39.1479 31.0165 38.3467C31.1257 36.453 31.1257 32.8478 31.0893 30.335V30.2622C31.0893 29.9709 31.0893 29.6431 30.7251 29.3882C30.2153 29.0605 29.6326 28.7691 28.8315 28.5506C28.5401 28.4414 28.3581 28.2957 28.3945 28.1136C28.3945 27.9315 28.5766 27.713 29.0136 27.6402C30.0696 27.531 32.7645 26.8755 33.857 26.402C33.9298 26.4749 34.0026 26.657 34.0026 26.9119L33.9662 27.276C33.9298 27.6402 33.8934 28.0408 33.8934 28.4414C33.8934 28.5506 34.0026 28.6599 34.1483 28.6599C34.2211 28.6599 34.2576 28.6235 34.3304 28.587C36.3697 27.0211 38.1905 26.4385 39.1374 26.4385C40.7033 26.4385 41.905 27.1668 42.8155 28.6963C42.8883 28.8055 42.9247 28.8055 43.034 28.8055C43.1068 28.8055 43.1796 28.7691 43.216 28.6963C45.0733 27.276 46.9669 26.402 48.2051 26.402C51.1549 26.402 52.9029 28.587 52.9029 32.3015C52.9029 33.3576 52.9029 34.705 52.8664 35.9432C52.8664 37.0357 52.83 38.0554 52.83 38.7837C52.83 38.9294 53.0485 39.4392 53.4127 39.5484C53.8497 39.7669 54.4688 39.8762 55.2335 39.9854H55.2699C55.3428 40.2039 55.1971 41.0415 55.0878 41.1872C54.9058 41.1872 54.6144 41.1872 54.2867 41.1508C53.6676 41.1144 52.83 41.0779 51.8832 41.0779C49.9167 41.0779 48.897 41.1144 47.9138 41.1872C47.8409 40.9323 47.8045 40.1675 47.9138 39.9854C48.4964 39.8762 48.7514 39.8034 49.1155 39.6941C49.7346 39.512 49.9167 39.2207 49.9531 38.3831C49.9531 37.764 50.0624 32.6657 49.8803 31.4275C49.6982 30.153 48.7514 28.6599 46.6392 28.6599C45.838 28.6599 44.5999 28.9876 43.3981 29.898C43.3253 29.9709 43.2889 30.1165 43.2889 30.2258V30.2622C43.3981 30.9177 43.3981 31.6825 43.3981 32.8478V34.9235C43.3981 36.3438 43.3617 37.6912 43.3981 38.6744C43.3981 39.3664 43.7987 39.512 44.1629 39.6577C44.345 39.6941 44.4906 39.7305 44.6363 39.7669C44.9276 39.8398 45.219 39.8762 45.656 39.9854C45.7288 40.0947 45.7288 40.5317 45.6195 40.8594C45.5831 41.0415 45.5103 41.1508 45.5103 41.1872C44.4178 41.1508 43.3253 41.1144 41.723 41.1144C41.2495 41.1144 40.412 41.1508 39.72 41.1508C39.1374 41.1508 38.6275 41.1872 38.2998 41.1872C38.2634 41.1144 38.1905 40.8959 38.1905 40.5681C38.1905 40.2768 38.2634 40.0583 38.2998 39.9854C38.4455 39.949 38.5911 39.9126 38.7368 39.9126C39.101 39.8398 39.4287 39.8034 39.7565 39.7305C40.3027 39.5849 40.4848 39.2935 40.5212 38.6016C40.6305 37.0357 40.7033 32.4836 40.4848 31.3547C40.1206 29.5339 39.0645 28.587 37.3894 28.587C36.4061 28.587 35.168 29.0605 34.1483 29.8252C34.0026 29.9345 33.857 30.2622 33.857 30.5535V32.4108C33.857 34.705 33.857 37.5455 33.8934 38.7837C33.9298 39.1479 34.0391 39.6213 34.7674 39.7669C34.9131 39.8034 35.168 39.8762 35.4957 39.8762L36.0784 39.9854C36.1512 40.1675 36.1148 40.9323 35.9691 41.1872C35.6414 41.1872 35.2772 41.1508 34.8402 41.1508C34.1847 41.1144 33.3107 41.0779 32.3639 41.0779C31.2714 41.0779 30.4702 41.1144 29.8147 41.1508C29.4506 41.1508 29.0864 41.1508 28.7222 41.1508Z" fill="#C7C7C7"/>
<path d="M12.0434 48.7618L10.7324 48.3248C10.7324 48.3248 10.8781 41.697 8.511 41.2236C6.94509 39.4028 8.76592 -36.6715 14.4469 40.9687C14.4469 40.9687 12.4804 41.9519 12.1527 43.6271C11.7885 45.2658 12.0434 48.7618 12.0434 48.7618Z" fill="#C7C7C7"/>
<path d="M12.0434 48.7618L10.7324 48.3248C10.7324 48.3248 10.8781 41.697 8.511 41.2236C6.94509 39.4028 8.76592 -36.6715 14.4469 40.9687C14.4469 40.9687 12.4804 41.9519 12.1527 43.6271C11.7885 45.2658 12.0434 48.7618 12.0434 48.7618Z" fill="#C7C7C7"/>
<path d="M12.7353 42.3525C12.7353 42.3525 24.0973 34.8871 21.4389 19.3372C18.8897 8.04809 12.8082 4.33359 12.1527 2.91335C11.4243 1.89368 10.7324 0.109268 10.7324 0.109268L11.2058 31.5368C11.2423 31.6096 10.259 41.1872 12.7353 42.3525Z" fill="#C7C7C7"/>
<path d="M12.7353 42.3525C12.7353 42.3525 24.0973 34.8871 21.4389 19.3372C18.8897 8.04809 12.8082 4.33359 12.1527 2.91335C11.4243 1.89368 10.7324 0.109268 10.7324 0.109268L11.2058 31.5368C11.2423 31.6096 10.259 41.1872 12.7353 42.3525Z" fill="#C7C7C7"/>
<path d="M10.0769 42.7895C10.0769 42.7895 -0.593148 35.5062 0.0259341 22.6875C0.645016 9.8689 8.14684 3.56883 9.6035 2.4035C10.5868 1.38383 10.6232 1.01966 10.696 0C11.3515 1.42025 11.2422 21.3037 11.3151 23.6708C11.6064 32.6657 10.8052 41.0779 10.0769 42.7895Z" fill="#C7C7C7"/>
<path d="M10.0769 42.7895C10.0769 42.7895 -0.593148 35.5062 0.0259341 22.6875C0.645016 9.8689 8.14684 3.56883 9.6035 2.4035C10.5868 1.38383 10.6232 1.01966 10.696 0C11.3515 1.42025 11.2422 21.3037 11.3151 23.6708C11.6064 32.6657 10.8052 41.0779 10.0769 42.7895Z" fill="#C7C7C7"/>
</svg>
