<svg width="175" height="50" viewBox="0 0 175 50" fill="none" xmlns="http://www.w3.org/2000/svg">
<path d="M38 45.5585H41.2194V32.9469L46.2706 43.9136C46.8256 45.2295 47.6582 45.723 49.268 45.723C50.8777 45.723 51.5993 45.2295 52.2098 43.9136L57.2055 32.9469V45.5585H60.4249V32.9469C60.4249 31.7406 59.9253 31.1375 58.8707 30.8085C56.4284 30.0956 54.7632 30.6988 54.0416 32.3438L49.1569 43.2007L44.3833 32.3438C43.6617 30.6988 41.9965 30.0956 39.5542 30.8085C38.4996 31.1375 38 31.6858 38 32.9469V45.5585Z" fill="#C7C7C7"/>
<path d="M63.0893 35.3047H66.3087V42.2137C66.3087 42.5975 66.4197 43.4749 68.1959 43.5297C69.1395 43.5297 75.1898 43.5297 75.2453 43.5297V35.2499H78.4647C78.4647 35.2499 78.4647 46.5455 78.4647 46.6003C78.4647 49.3968 74.9678 50 73.3581 50H63.2003V47.8615H73.4136C75.4674 47.6422 75.2453 46.6003 75.2453 46.2713V45.4488H68.3624C65.143 45.4488 63.0893 44.0232 63.0893 42.433C63.0893 42.2685 63.2003 35.3596 63.0893 35.3047Z" fill="#C7C7C7"/>
<path d="M132.695 27.2443C130.697 27.1895 129.198 27.4088 127.866 27.9023C127.478 28.0668 126.922 28.0668 126.867 28.5055C127.089 28.7248 127.089 28.999 127.256 29.2731C127.533 29.7666 128.088 30.4246 128.532 30.7536C129.032 31.1374 129.587 31.5213 130.142 31.9051C131.086 32.5083 132.196 32.8373 133.139 33.4404C133.694 33.7694 134.249 34.2081 134.749 34.5919C135.027 34.8113 135.193 35.0854 135.526 35.2499V35.1951C135.36 34.9758 135.304 34.6468 135.138 34.4274C134.915 34.2081 134.638 33.9888 134.416 33.7146C133.694 32.7824 132.806 31.9051 131.863 31.2471C131.086 30.6988 129.309 29.986 129.032 29.0538C129.032 29.0538 129.032 29.0538 128.976 28.999C129.531 28.9441 130.142 28.7796 130.697 28.6151C131.53 28.3958 132.307 28.4506 133.195 28.2313C133.583 28.1216 133.972 28.012 134.36 27.9023C134.36 27.8475 134.36 27.7378 134.36 27.683C133.916 27.2443 133.583 26.6411 133.139 26.2573C131.863 25.1607 130.475 24.1188 129.032 23.2415C128.255 22.748 127.256 22.419 126.478 22.0352C126.201 21.8707 125.701 21.8158 125.535 21.5965C125.091 21.0482 124.813 20.3353 124.536 19.7322C123.814 18.3614 123.148 16.8809 122.482 15.4552C122.038 14.5231 121.76 13.5361 121.205 12.6587C118.652 8.49142 115.877 5.9691 111.602 3.50162C110.659 3.00812 109.604 2.78879 108.439 2.51462C107.828 2.51462 107.217 2.45979 106.607 2.40496C106.218 2.24046 105.83 1.74696 105.441 1.52763C104.054 0.650301 100.39 -1.26885 99.3354 1.25346C98.6693 2.84362 100.335 4.43378 100.89 5.20144C101.334 5.74977 101.833 6.40777 102.166 7.01093C102.333 7.44959 102.388 7.88826 102.555 8.32692C102.943 9.42358 103.332 10.5751 103.831 11.6169C104.109 12.1104 104.387 12.6587 104.775 13.1522C104.997 13.4264 105.33 13.5361 105.386 13.9747C105.053 14.4682 104.997 15.181 104.831 15.7842C103.943 18.5259 104.276 21.9803 105.552 24.0092C105.941 24.6123 106.884 25.9831 108.161 25.4348C109.271 24.9962 109.049 23.6253 109.327 22.3642C109.382 22.09 109.327 21.8707 109.493 21.7062V21.761C109.826 22.419 110.159 23.1318 110.492 23.7898C111.269 24.9962 112.602 26.2573 113.712 27.0798C114.322 27.5185 114.766 28.2861 115.543 28.5603V28.5055C115.543 28.5055 115.543 28.5055 115.488 28.5055C115.321 28.2861 115.099 28.1765 114.933 28.012C114.489 27.5733 113.989 27.025 113.656 26.5315C112.602 25.1607 111.714 23.6253 110.881 22.09C110.492 21.3223 110.159 20.4998 109.826 19.7322C109.66 19.458 109.66 19.0194 109.438 18.8549C109.049 19.4032 108.494 19.8419 108.272 20.4998C107.828 21.5417 107.772 22.8577 107.606 24.1737C107.495 24.1737 107.55 24.1737 107.495 24.2285C106.718 24.0092 106.44 23.2415 106.107 22.5287C105.386 20.774 105.219 17.9775 105.885 16.0035C106.052 15.51 106.829 13.8651 106.496 13.3716C106.329 12.9329 105.83 12.6587 105.552 12.2749C105.219 11.8362 104.886 11.2331 104.664 10.6847C104.054 9.31392 103.776 7.77859 103.11 6.40777C102.832 5.74977 102.277 5.09177 101.889 4.54344C101.445 3.88545 100.89 3.39195 100.501 2.62429C100.39 2.35012 100.224 1.91146 100.39 1.63729C100.446 1.41796 100.557 1.36313 100.723 1.3083C101.056 1.03413 101.944 1.36313 102.277 1.52763C103.221 1.91146 103.943 2.24046 104.72 2.73395C105.053 2.95329 105.441 3.44678 105.885 3.55645C106.052 3.55645 106.218 3.55645 106.385 3.55645C107.162 3.72095 108.05 3.61128 108.827 3.83061C110.159 4.26928 111.325 4.87244 112.38 5.53044C115.599 7.55926 118.319 10.4654 120.095 13.9199C120.373 14.4682 120.539 15.0165 120.761 15.5649C121.261 16.7712 121.927 17.9775 122.426 19.1839C122.926 20.3353 123.426 21.4868 124.203 22.4738C124.591 22.9673 126.034 23.2415 126.756 23.5157C127.256 23.735 128.033 23.9543 128.477 24.1737C129.309 24.6672 130.142 25.2703 130.974 25.8186C131.363 26.1476 132.64 26.7508 132.695 27.2443Z" fill="#C7C7C7"/>
<path d="M107.439 6.02393C106.995 6.02393 106.718 6.07876 106.44 6.13359C106.44 6.13359 106.44 6.13359 106.44 6.18843C106.44 6.18843 106.44 6.18843 106.496 6.18843C106.718 6.57226 107.051 6.84642 107.273 7.17542C107.495 7.55925 107.661 7.94308 107.828 8.32691L107.883 8.27208C108.217 8.05275 108.383 7.61408 108.383 7.06575C108.217 6.90125 108.217 6.73676 108.106 6.57226C107.939 6.29809 107.606 6.18842 107.439 6.02393Z" fill="#C7C7C7"/>
<path d="M80.9626 45.5585H90.2878C91.3979 45.5585 92.397 45.3392 93.2851 44.9554C94.6728 44.2974 95.3389 43.4749 95.3389 42.3234V39.9656C95.3389 39.0334 94.5618 38.2109 93.0631 37.6077C92.286 37.3336 91.2869 37.1691 90.2878 37.1691H86.4023C85.0701 37.1691 84.4595 36.7852 84.293 35.9079C84.293 35.7983 84.293 35.6886 84.293 35.6338V34.2081C84.293 34.1533 84.293 34.0436 84.293 33.9339C84.4595 33.2759 84.7925 33.1114 85.9582 33.0018C86.0692 33.0018 86.1802 33.0018 86.2357 33.0018H95.4499V30.8633H86.4023C85.0701 30.8633 84.404 30.9181 83.7934 31.1374C81.9062 31.7406 81.0181 32.6728 81.0181 34.3178V36.0724C81.0181 37.4981 82.6278 38.7592 85.4031 39.0334C85.6807 39.0334 86.0137 39.0334 86.3468 39.0334H89.6772C89.7882 39.0334 89.8992 39.0334 90.0102 39.0334C91.0094 39.1431 91.4534 39.3076 91.7865 39.6914C92.0085 39.9107 92.0085 40.0752 92.0085 40.2946V42.1589C92.0085 42.3782 91.842 42.6524 91.5644 42.9265C91.2869 43.2007 90.7873 43.3652 90.1767 43.3652C90.0657 43.3652 89.9547 43.3652 89.8437 43.3652H80.9626V45.5585Z" fill="#C7C7C7"/>
<path d="M115.488 41.8299C115.488 44.0232 117.153 45.2295 120.484 45.4489C120.817 45.4489 121.094 45.5037 121.427 45.5037H129.864V43.3652H121.372C119.485 43.3652 118.763 42.9265 118.763 41.775V30.8084H115.544L115.488 41.8299Z" fill="#C7C7C7"/>
<path d="M97.3927 41.9395V34.3726C97.3927 32.4534 98.7803 31.2471 101.5 30.9181C101.778 30.9181 102.111 30.8633 102.388 30.8633H108.55C108.883 30.8633 109.16 30.8633 109.493 30.9181C112.213 31.3019 113.545 32.4534 113.545 34.3726V41.9395C113.545 43.5297 112.99 44.3522 111.658 44.9005L114.822 47.7518H111.103L108.55 45.4489L105.941 45.6134H102.499C101.944 45.6134 101.278 45.5585 100.612 45.394C98.3918 44.7909 97.3927 43.6942 97.3927 41.9395ZM100.89 41.775C100.89 41.8847 100.945 41.9944 100.945 42.104C101.112 42.9814 101.944 43.4749 103.221 43.4749H106.163L103.498 41.0622H107.217L109.549 43.1459C109.993 42.9265 110.27 42.5427 110.381 42.104C110.381 41.9944 110.381 41.8847 110.381 41.775V34.5371C110.381 34.4274 110.381 34.3178 110.381 34.2629C110.215 33.4404 109.382 32.9469 108.106 32.9469H103.221C101.778 32.9469 100.834 33.5501 100.834 34.5371L100.89 41.775Z" fill="#C7C7C7"/>
<path d="M131.308 45.5585H131.752V43.749H132.362V43.3652H130.641V43.749H131.308V45.5585ZM134.915 45.5585H135.36V43.42H134.693L134.138 44.9005L133.528 43.42H132.862V45.5585H133.306V43.9135L133.916 45.5585H134.249L134.86 43.9135L134.915 45.5585Z" fill="#C7C7C7"/>
</svg>
