<svg width="175" height="50" viewBox="0 0 175 50" fill="none" xmlns="http://www.w3.org/2000/svg">
<g clip-path="url(#clip0)">
<path d="M130.609 19.5348C128.362 20.7522 128.455 24.6856 130.89 25.6221C133.513 26.5586 136.322 26.6522 138.944 27.3078C139.6 27.4951 140.255 27.7761 140.536 28.4316C141.192 29.7427 140.63 31.7094 139.132 32.1776C136.978 32.8332 134.449 32.8332 132.389 31.9903C130.984 31.4284 130.328 30.0237 130.235 28.7126C129.673 28.7126 129.017 28.7126 128.455 28.8062C128.549 30.1173 128.83 31.5221 129.86 32.365C131.546 33.6761 133.7 33.8634 135.76 33.957C137.633 33.957 139.694 33.7697 141.286 32.7396C143.159 31.4284 143.346 27.9634 141.098 26.8395C139.038 25.8094 136.697 25.7157 134.543 25.2475C133.513 24.9665 132.295 24.8729 131.359 24.2173C130.141 23.0935 130.703 20.7522 132.295 20.3776C134.355 19.8157 136.603 19.7221 138.57 20.4713C139.787 20.8459 140.255 22.157 140.443 23.1871C141.005 23.1871 141.567 23.1871 142.222 23.1871C142.222 22.0633 141.848 20.8459 140.911 20.0967C139.413 18.8792 137.352 18.7856 135.573 18.7856C133.981 18.6919 132.202 18.6919 130.609 19.5348Z" fill="#C7C7C7"/>
<path d="M63.8363 20.003C62.8997 19.1602 61.495 18.8792 60.2775 18.8792C57.5616 18.8792 54.8458 18.9729 52.1299 18.9729C52.1299 23.7491 52.1299 28.6189 52.1299 33.3951C52.5981 33.3951 53.0664 33.3951 53.5346 33.3951C53.5346 31.3348 53.441 29.2745 53.5346 27.3078C55.8759 27.3078 58.1235 27.3078 60.4648 27.3078C62.1505 27.2142 64.1172 26.4649 64.7728 24.7792C65.3347 23.1872 65.1474 21.1268 63.8363 20.003ZM63.0871 24.4983C62.6188 25.7157 61.214 26.0903 59.9966 26.184C57.8426 26.2776 55.6886 26.184 53.6283 26.184C53.6283 24.2173 53.6283 22.157 53.6283 20.1903C55.6886 20.1903 57.7489 20.1903 59.8093 20.1903C60.8394 20.1903 62.0569 20.3776 62.7124 21.2205C63.368 22.0633 63.4617 23.3745 63.0871 24.4983Z" fill="#C7C7C7"/>
<path d="M162.544 18.9729C162.544 23.7491 162.544 28.5253 162.544 33.3951C166.665 33.3951 170.879 33.3951 175 33.3951C175 33.0205 175 32.6459 175 32.1777C171.441 32.084 167.883 32.1777 164.23 32.084C164.23 27.6824 164.23 23.2808 164.23 18.8792C163.668 18.9729 163.106 18.9729 162.544 18.9729Z" fill="#C7C7C7"/>
<path d="M90.6204 20.8459C90.6204 21.876 90.6204 22.9062 90.6204 23.9364C89.9649 23.9364 89.403 23.9364 88.7474 23.9364C88.7474 24.2173 88.7474 24.5919 88.7474 24.8729C89.403 24.8729 90.0585 24.8729 90.6204 24.8729C90.6204 27.0268 90.6204 29.2745 90.6204 31.4284C90.6204 32.084 90.8077 32.7396 91.3697 33.1142C92.3998 33.5824 93.5236 33.4888 94.6474 33.3951C94.6474 33.1142 94.6474 32.7396 94.6474 32.4586C93.8982 32.5523 93.149 32.6459 92.4935 32.2713C92.0252 31.9903 92.1189 31.4284 92.0252 30.9602C92.0252 28.8999 92.0252 26.9332 92.0252 24.8729C92.8681 24.8729 93.7109 24.8729 94.5538 24.8729C94.5538 24.4983 94.5538 24.2173 94.4601 23.8427C93.6173 23.8427 92.7744 23.8427 91.9316 23.8427C91.9316 22.8125 91.9316 21.7824 91.9316 20.7522C91.6506 20.8459 91.0887 20.8459 90.6204 20.8459Z" fill="#C7C7C7"/>
<path d="M78.7268 24.4983C77.4157 25.3411 77.4157 27.7761 79.0077 28.4316C81.1617 29.1808 83.5966 28.9935 85.8442 29.6491C86.9681 30.0237 87.0617 31.7094 86.0316 32.2713C84.5331 33.0205 82.7538 32.9269 81.1617 32.6459C80.0379 32.4586 79.1014 31.7094 79.0077 30.4919C78.4458 30.4919 77.8839 30.4919 77.4157 30.4919C77.603 31.3348 77.7903 32.2713 78.5395 32.8332C79.7569 33.6761 81.349 33.6761 82.7538 33.7697C84.2522 33.7697 85.8442 33.6761 87.1554 32.9269C88.2792 32.2713 88.6538 30.7729 87.9982 29.7427C87.53 28.9935 86.6871 28.7126 85.8442 28.5253C84.0649 28.1507 82.1919 28.1507 80.4125 27.7761C79.7569 27.5888 79.195 27.1205 79.195 26.4649C79.195 25.5284 80.2252 25.0602 81.068 24.8729C82.3792 24.6856 83.8776 24.5919 85.1887 25.1538C85.9379 25.4348 86.1252 26.184 86.3125 26.9332C86.8744 26.9332 87.3427 26.9332 87.9046 26.9332C87.8109 26.0903 87.53 25.1538 86.7808 24.6856C85.376 23.7491 83.6903 23.7491 82.0982 23.8427C80.9744 23.7491 79.7569 23.8427 78.7268 24.4983Z" fill="#C7C7C7"/>
<path d="M111.973 24.03C111.317 24.311 110.943 24.9665 110.568 25.6221C110.568 25.0602 110.568 24.4983 110.568 24.03C110.1 24.03 109.632 24.03 109.07 24.03C108.976 27.2141 109.07 30.3046 109.07 33.4888C109.538 33.4888 110.006 33.4888 110.474 33.4888C110.474 31.8967 110.474 30.211 110.474 28.6189C110.474 27.4951 110.849 26.184 111.786 25.5284C112.816 24.7792 114.127 24.9665 115.344 24.9665C115.344 24.5919 115.344 24.1237 115.344 23.7491C114.22 23.6554 113.097 23.5618 111.973 24.03Z" fill="#C7C7C7"/>
<path d="M147.186 19.7221C149.246 18.6919 151.587 18.5046 153.835 18.6919C155.989 18.8792 158.143 19.6284 159.548 21.3141C161.327 23.1872 161.702 26.184 160.952 28.6189C160.578 30.0237 159.641 31.0538 158.611 31.9904C159.454 32.5523 160.297 33.1142 161.14 33.7697C160.765 34.1443 160.39 34.4253 160.016 34.7999C159.173 34.238 158.33 33.5824 157.487 33.1142C156.832 33.1142 156.176 33.4888 155.427 33.6761C153.554 34.0507 151.494 34.0507 149.621 33.6761C147.56 33.3015 145.5 32.084 144.376 30.211C143.252 28.4316 143.159 26.0903 143.627 24.1237C144.189 22.157 145.5 20.5649 147.186 19.7221ZM149.995 20.0967C148.029 20.5649 146.155 21.9697 145.5 23.9364C144.844 26.0903 145.032 28.6189 146.624 30.3983C148.029 31.9904 150.089 32.6459 152.149 32.6459C154.397 32.7396 156.832 32.084 158.33 30.3046C160.39 27.6824 160.11 23.4681 157.394 21.4078C155.333 19.6284 152.524 19.5348 149.995 20.0967Z" fill="#C7C7C7"/>
<path d="M90.6205 20.8459C91.0887 20.8459 91.557 20.8459 92.1189 20.8459C92.1189 21.876 92.1189 22.9062 92.1189 23.9364C92.9617 23.9364 93.8046 23.9364 94.6474 23.9364C94.6474 24.311 94.6474 24.5919 94.7411 24.9665C93.8982 24.9665 93.0554 24.9665 92.2125 24.9665C92.2125 27.0268 92.2125 28.9935 92.2125 31.0538C92.2125 31.5221 92.2125 32.084 92.6808 32.3649C93.3363 32.6459 94.0855 32.5522 94.8347 32.5522C94.8347 32.8332 94.8347 33.2078 94.8347 33.4888C93.7109 33.5824 92.5871 33.6761 91.557 33.2078C90.9014 32.9269 90.7141 32.1776 90.8078 31.5221C90.8078 29.3681 90.8078 27.1205 90.8078 24.9665C90.1522 24.9665 89.4966 24.9665 88.9347 24.9665C88.9347 24.6856 88.9347 24.311 88.9347 24.03C89.5903 24.03 90.1522 24.03 90.8078 24.03C90.6204 22.9062 90.6205 21.876 90.6205 20.8459Z" fill="#C7C7C7"/>
<path d="M74.5125 24.4983C72.8268 23.5618 70.7664 23.4681 68.8934 23.7491C67.3014 24.03 65.8029 24.8729 65.1474 26.3713C64.4918 27.8697 64.4918 29.6491 65.241 31.1475C66.0839 32.7396 67.8633 33.5824 69.549 33.6761C71.703 33.8634 74.1379 33.5824 75.7299 31.8967C77.4157 29.7427 77.0411 25.903 74.5125 24.4983ZM74.2315 31.5221C73.3887 32.365 72.1712 32.7396 71.0474 32.7396C69.7363 32.8332 68.3315 32.5523 67.395 31.7094C66.1775 30.5856 65.9902 28.7126 66.4585 27.1205C66.9268 25.7157 68.2379 24.8729 69.6426 24.6856C70.9537 24.4983 72.4522 24.5919 73.6696 25.3411C74.6061 25.903 75.0744 26.9332 75.168 27.9634C75.3553 29.2745 75.168 30.5856 74.2315 31.5221Z" fill="#C7C7C7"/>
<path d="M78.7268 24.4983C79.6633 23.8427 80.8807 23.7491 82.0046 23.6554C83.5966 23.5618 85.376 23.5618 86.6871 24.4983C87.4363 24.9665 87.7173 25.903 87.8109 26.7459C87.249 26.7459 86.7808 26.7459 86.2189 26.7459C86.1252 25.9967 85.8442 25.3411 85.095 24.9665C83.7839 24.4046 82.3792 24.4046 80.9744 24.6856C80.1315 24.7792 79.1014 25.2475 79.1014 26.2776C79.0077 26.9332 79.6633 27.4951 80.3188 27.5888C82.0982 28.057 83.9712 27.9634 85.7506 28.338C86.5935 28.5253 87.4363 28.8999 87.9046 29.5554C88.5601 30.5856 88.1855 32.1777 87.0617 32.7396C85.7506 33.4888 84.1585 33.5824 82.6601 33.5824C81.2554 33.4888 79.6633 33.4888 78.4458 32.6459C77.6966 32.084 77.4157 31.2411 77.322 30.3046C77.8839 30.3046 78.4458 30.3046 78.9141 30.3046C78.9141 31.5221 79.9442 32.365 81.068 32.4586C82.6601 32.6459 84.4395 32.8332 85.9379 32.084C86.9681 31.5221 86.8744 29.8364 85.7506 29.4618C83.503 28.8062 81.0681 28.9935 78.9141 28.2443C77.4157 27.7761 77.4157 25.3411 78.7268 24.4983Z" fill="#C7C7C7"/>
<path d="M99.1427 23.8427C100.641 23.4681 102.327 23.4681 103.825 23.9364C104.668 24.2173 105.324 24.8729 105.979 25.4348C105.979 24.8729 106.073 24.4046 106.073 23.9364C106.541 23.9364 107.009 23.9364 107.478 23.9364C107.571 26.8395 107.478 29.7427 107.571 32.6459C107.665 33.8634 107.384 35.1745 106.447 36.0173C105.23 37.1411 103.451 37.3284 101.859 37.3284C100.454 37.3284 98.9554 37.2348 97.6443 36.5792C96.8014 36.111 96.3332 35.1745 96.1459 34.238C96.6141 34.238 97.0824 34.238 97.5506 34.238C97.8316 34.8935 98.1125 35.6427 98.7681 35.9237C99.7982 36.3919 100.922 36.3919 102.046 36.3919C103.263 36.2983 104.668 36.111 105.417 35.0808C106.167 34.0507 105.979 32.7395 105.979 31.5221C104.481 33.1142 102.14 33.3951 100.079 33.1142C98.7681 32.9269 97.457 32.4586 96.5205 31.4284C95.4903 30.1173 95.3967 28.338 95.7713 26.8395C96.1459 25.3411 97.6443 24.2173 99.1427 23.8427ZM100.36 24.7792C99.33 24.9665 98.2062 25.4348 97.6443 26.3713C96.9887 27.4951 96.9887 28.9935 97.3633 30.1173C97.8316 31.3348 99.2363 31.9903 100.454 32.1776C102.046 32.3649 103.919 32.1776 105.043 30.9602C106.354 29.3681 106.167 26.6522 104.481 25.4348C103.357 24.5919 101.765 24.5919 100.36 24.7792Z" fill="#C7C7C7"/>
<path d="M111.973 24.03C113.097 23.5618 114.22 23.6554 115.344 23.6554C115.344 24.03 115.344 24.4983 115.344 24.8729C114.127 24.8729 112.816 24.6856 111.786 25.4348C110.849 26.0903 110.474 27.4015 110.474 28.5253C110.474 30.1173 110.474 31.803 110.474 33.3951C110.006 33.3951 109.538 33.3951 109.07 33.3951C108.976 30.211 108.976 27.1205 109.07 23.9364C109.538 23.9364 110.006 23.9364 110.568 23.9364C110.568 24.4983 110.568 25.0602 110.568 25.5284C110.943 24.9665 111.317 24.311 111.973 24.03Z" fill="#C7C7C7"/>
<path d="M115.906 25.9967C116.843 24.4046 118.809 23.7491 120.589 23.6554C122.462 23.5618 124.522 23.8427 125.833 25.2475C126.863 26.184 127.144 27.5888 127.238 28.9935C123.679 28.9935 120.214 28.9935 116.655 28.9935C116.749 29.93 117.03 30.9602 117.779 31.6158C119.184 32.8332 121.244 33.0205 122.93 32.5523C124.054 32.2713 124.99 31.4285 125.365 30.3046C125.927 30.3046 126.489 30.3046 126.957 30.3046C126.489 31.8967 125.084 33.0205 123.492 33.3951C121.338 33.8634 118.809 33.7697 116.936 32.4586C115.063 31.1475 114.689 28.057 115.906 25.9967ZM118.622 25.2475C117.592 25.8094 117.03 26.9332 116.843 28.057C119.84 28.057 122.836 28.057 125.833 28.057C125.74 27.4015 125.552 26.6522 125.084 26.184C123.492 24.311 120.589 24.1237 118.622 25.2475Z" fill="#C7C7C7"/>
<path d="M29.7473 21.0332C30.3092 20.6586 31.0584 20.6586 31.6203 20.8459C31.6203 21.5951 30.6838 22.157 30.0282 21.7824C29.8409 21.6887 29.4663 21.3141 29.7473 21.0332Z" fill="#C7C7C7"/>
<path d="M16.5425 21.1268C17.1044 20.9395 17.76 21.0332 18.2282 21.4078C18.5092 21.6887 18.2282 22.157 17.9473 22.2506C17.2917 22.7189 16.2616 22.2506 16.1679 21.5014C16.1679 21.3141 16.3552 21.1268 16.5425 21.1268Z" fill="#C7C7C7"/>
<path d="M26.5632 10.6379C28.9044 10.076 31.5267 10.1697 33.7743 11.0125C35.3664 11.5744 36.7711 12.6982 37.8013 14.0093C38.3632 14.6649 38.3632 15.5078 38.3632 16.257C38.3632 18.13 37.9886 19.9094 37.5203 21.7824C36.5838 25.0602 35.2727 28.2443 33.4933 31.1475C33.306 31.4284 33.1187 31.7094 32.9314 31.9903C32.9314 31.8967 32.8378 31.7094 32.8378 31.7094C33.0251 31.1475 33.3997 30.5856 33.4933 30.0237C33.9616 28.3379 33.587 26.5586 33.3997 24.8729C33.2124 23.2808 33.7743 21.6887 33.7743 20.0967C33.8679 19.3475 33.4933 18.5982 33.2124 17.849C32.0886 15.4141 30.4029 13.2601 28.1552 11.7617C27.7806 11.2935 27.1251 11.0125 26.5632 10.6379Z" fill="#C7C7C7"/>
<path d="M20.0076 10.8252C22.9108 10.4506 26.0013 11.2935 28.3425 13.0728C30.2156 14.5713 31.8076 16.6316 32.5568 18.9729C31.2457 18.9729 29.6536 18.8792 28.5298 19.8157C27.4997 20.6586 27.406 22.0633 27.5933 23.2808C28.1552 26.184 29.841 28.6189 31.0584 31.1475C31.3394 31.803 31.8076 32.2713 32.2759 32.8332C31.714 33.1142 31.2457 33.3015 30.9648 33.8634C30.4965 34.7062 30.6838 35.6427 30.4965 36.5792C30.2156 39.1078 29.9346 41.6364 29.56 44.165C29.3727 45.3824 28.8108 46.6936 27.687 47.2555C26.5632 47.8174 25.1584 48.192 23.8473 48.0047C22.6298 47.8174 21.787 46.5999 21.506 45.4761C21.2251 44.5396 21.2251 43.5094 21.1314 42.5729C21.0378 40.2316 21.0378 37.8904 21.0378 35.5491C21.1314 34.6126 20.6632 33.6761 19.8203 33.2078C19.4457 33.0205 18.9774 32.9268 18.5092 32.9268C18.8838 31.2411 19.9139 29.7427 20.2885 27.9633C20.7568 25.8094 20.4759 23.6554 20.0076 21.5014C19.8203 20.4713 18.9774 19.5348 17.9473 19.2538C16.2616 18.8792 14.6695 19.4411 13.1711 20.1903C13.3584 17.849 14.0139 15.4141 15.4187 13.4474C16.5425 12.0427 18.2282 11.1062 20.0076 10.8252Z" fill="#C7C7C7"/>
<path d="M7.55201 11.0125C10.1742 10.5443 12.7965 11.0125 15.325 11.7617C14.2012 12.9792 13.3584 14.384 12.8901 15.976C12.2346 18.0363 11.9536 20.284 12.0473 22.5316C12.1409 24.1237 12.1409 25.6221 11.86 27.2141C11.579 29.1808 12.4219 31.2411 13.9203 32.6459C12.8901 33.8634 11.86 34.9872 10.8298 36.2046C10.3615 36.7666 9.79964 37.3285 9.05043 37.1412C8.20757 36.8602 7.64567 36.111 7.17741 35.3618C5.8663 33.3015 5.11709 30.9602 4.36788 28.6189C3.52502 25.903 2.86947 23.0935 2.49486 20.1903C2.30756 18.0363 2.40121 15.6951 3.52502 13.8221C4.36788 12.3236 5.8663 11.3871 7.55201 11.0125Z" fill="#C7C7C7"/>
<path d="M29.3727 20.6586C30.3092 20.003 31.6203 20.0967 32.6505 20.1903C32.5568 21.6887 32.0886 23.1872 32.2759 24.7792C32.4632 26.6522 32.9314 28.7126 32.0886 30.5856C30.8711 28.1507 29.279 25.903 28.8108 23.1872C28.7171 22.3443 28.7171 21.3141 29.3727 20.6586ZM29.7473 21.0332C29.4664 21.3141 29.7473 21.6887 30.0283 21.7824C30.6838 22.157 31.6203 21.5951 31.6203 20.8459C31.0584 20.6586 30.3092 20.6586 29.7473 21.0332Z" fill="#C7C7C7"/>
<path d="M13.1711 21.6887C14.3885 20.9395 15.7933 20.284 17.1981 20.3776C17.9473 20.3776 18.6028 20.9395 18.7901 21.6887C19.4457 24.311 19.633 27.2142 18.4155 29.7427C17.9473 30.6792 17.5727 31.7094 17.2917 32.7396C15.1377 32.7396 13.3584 30.9602 12.9838 28.9935C12.7028 27.8697 13.0774 26.7459 13.0774 25.6221C13.2647 24.2173 13.1711 22.9999 13.1711 21.6887ZM16.5425 21.1268C16.3552 21.2205 16.1679 21.3141 16.1679 21.5014C16.2616 22.2507 17.2917 22.7189 17.9473 22.2506C18.2282 22.0633 18.5092 21.6887 18.2282 21.4078C17.76 21.0332 17.1044 20.9395 16.5425 21.1268Z" fill="#C7C7C7"/>
<path d="M32.1822 34.3316C32.4632 34.1443 32.9314 33.8634 33.306 34.1443C34.8045 34.9872 36.5838 34.5189 38.2695 34.3316C37.2394 35.2681 35.9283 35.7364 34.5235 35.9237C33.587 36.0173 32.6505 36.111 31.8076 35.7364C31.8076 35.2681 31.8076 34.7062 32.1822 34.3316Z" fill="#C7C7C7"/>
<path d="M16.7298 36.2046C17.5727 35.7364 17.9473 34.7062 18.7901 34.1443C19.633 34.0507 20.3822 35.3618 19.633 36.0173C18.3219 37.7967 15.606 38.1713 13.733 37.1412C14.6695 36.7665 15.7933 36.7665 16.7298 36.2046Z" fill="#C7C7C7"/>
<path d="M24.5965 8.7649C27.1251 8.10934 29.841 7.82839 32.4632 8.29664C34.8045 8.67124 37.0521 9.88871 38.8315 11.5744C39.5807 12.3236 40.3299 13.1665 40.6108 14.1967C41.1727 16.0697 40.8918 17.9427 40.6108 19.8157C39.768 24.2173 38.0822 28.4316 35.8346 32.3649C36.8648 32.3649 37.8013 32.084 38.8315 31.9903C39.768 31.8967 40.8918 32.5522 41.0791 33.4888C41.36 34.5189 40.7045 35.5491 39.9553 36.2046C37.8949 37.984 35.0854 38.5459 32.5568 38.4523C32.3695 41.1681 32.3695 43.884 31.2457 46.4126C30.6838 47.5364 29.9346 48.4729 28.9044 49.1285C27.8743 49.784 26.7505 50.065 25.6267 50.2523C24.4092 50.4396 23.0044 50.3459 21.8806 49.5967C20.8505 48.9412 20.2885 47.911 19.9139 46.7872C19.0711 44.4459 19.1647 42.011 18.9774 39.5761C17.1981 40.3253 15.2314 40.3253 13.452 39.6697C12.7965 39.4824 12.2346 39.1078 11.7663 38.6396C10.8298 39.3888 9.61234 39.7634 8.39488 39.4824C6.89646 39.1078 5.8663 37.7967 5.02344 36.5792C3.61867 34.3316 2.77582 31.803 2.02661 29.2745C1.18375 26.3713 0.434541 23.4681 0.0599366 20.3776C-0.127365 17.6617 0.059937 14.8522 1.55835 12.5109C2.68216 10.6379 4.74249 9.3268 6.89646 8.85855C9.98694 8.20299 13.1711 8.85855 16.0743 9.70141C17.0108 9.23315 17.9473 8.7649 18.9774 8.57759C20.9441 8.29664 22.8171 8.48394 24.5965 8.7649ZM24.5028 9.88871C24.3155 9.98236 24.0346 9.79506 23.8473 9.79506C21.3187 9.23315 18.5092 9.5141 16.3552 10.9189C13.733 9.98236 10.9235 9.42045 8.11392 9.70141C6.0536 9.88871 3.89963 10.9189 2.77582 12.6046C1.2774 14.8522 1.0901 17.6617 1.2774 20.1903C1.74565 23.6554 2.58851 27.0268 3.61867 30.3046C4.36788 32.3649 5.11709 34.4253 6.33455 36.2046C6.99011 37.0475 7.83297 37.984 8.95678 38.0777C9.98694 38.1713 10.8298 37.6094 11.4854 36.8602C12.6092 35.5491 13.6393 34.3316 14.7631 33.1142C15.5124 33.4888 16.3552 33.6761 17.1044 33.7697C16.6362 34.3316 16.2616 34.9872 15.606 35.1745C14.6695 35.5491 13.5457 35.4554 12.7028 36.111C12.2346 36.4856 12.1409 37.2348 12.6092 37.6094C13.3584 38.3586 14.5758 38.5459 15.606 38.6396C17.1044 38.7332 18.6028 38.265 19.7266 37.2348C19.7266 39.5761 19.7266 42.011 20.0076 44.3523C20.1012 45.757 20.7568 47.1618 21.787 48.0047C22.7235 48.8475 24.2219 49.0348 25.4394 48.8475C26.6568 48.5666 27.9679 48.192 28.9044 47.4428C29.9346 46.5062 30.4029 45.1951 30.5902 43.884C30.9648 41.5427 31.2457 39.2015 31.5267 36.7665C34.1489 37.2348 37.1457 36.6729 39.1124 34.7999C39.487 34.4253 39.9553 33.6761 39.487 33.2078C39.1124 32.7395 38.3632 32.8332 37.8013 32.9269C36.4902 33.2078 34.9918 33.4888 33.6806 32.8332C36.0219 29.0872 37.8949 25.0602 38.9251 20.7522C39.2997 19.1602 39.5807 17.4744 39.5807 15.7887C39.487 14.8522 39.3934 13.822 38.8315 13.0728C37.4267 11.1998 35.3664 9.88871 33.1187 9.23315C30.4029 8.85855 27.3124 9.04585 24.5028 9.88871Z" fill="#C7C7C7"/>
</g>
<defs>
<clipPath id="clip0">
<rect width="175" height="50" fill="white"/>
</clipPath>
</defs>
</svg>
