<svg id="Layer1" xmlns="http://www.w3.org/2000/svg" xmlns:xlink="http://www.w3.org/1999/xlink" viewBox="0 0 662 429.25"><defs><style>.cls-1{fill:#e6e6e6;}.cls-2{fill:url(#_780);}.cls-3{fill:url(#_528);}.cls-4{fill:url(#linear-gradient);}.cls-5{fill:url(#_1219);}</style><linearGradient id="_780" x1="391.79" y1="177.49" x2="256.64" y2="404.01" gradientUnits="userSpaceOnUse"><stop offset="0" stop-color="#113192"/><stop offset="0.06" stop-color="#2b3092"/><stop offset="0.25" stop-color="#7b2f91"/><stop offset="0.38" stop-color="#ad2d91"/><stop offset="0.44" stop-color="#c02d91"/><stop offset="0.63" stop-color="#d76072"/><stop offset="0.88" stop-color="#f4a14b"/><stop offset="1" stop-color="#ffba3c"/></linearGradient><linearGradient id="_528" x1="293.27" y1="67.19" x2="401.36" y2="305.97" gradientUnits="userSpaceOnUse"><stop offset="0" stop-color="#113192"/><stop offset="0.02" stop-color="#213192"/><stop offset="0.1" stop-color="#513092"/><stop offset="0.18" stop-color="#792f91"/><stop offset="0.25" stop-color="#982e91"/><stop offset="0.33" stop-color="#ae2d91"/><stop offset="0.4" stop-color="#bb2d91"/><stop offset="0.46" stop-color="#c02d91"/><stop offset="0.64" stop-color="#d76072"/><stop offset="0.88" stop-color="#f4a14b"/><stop offset="1" stop-color="#ffba3c"/></linearGradient><linearGradient id="linear-gradient" x1="217.55" y1="308.82" x2="396.77" y2="129.6" gradientUnits="userSpaceOnUse"><stop offset="0" stop-color="#113192"/><stop offset="0.05" stop-color="#253192"/><stop offset="0.27" stop-color="#782f91"/><stop offset="0.43" stop-color="#ac2d91"/><stop offset="0.5" stop-color="#c02d91"/><stop offset="0.57" stop-color="#c4378b"/><stop offset="0.68" stop-color="#d0517b"/><stop offset="0.82" stop-color="#e37b62"/><stop offset="0.99" stop-color="#fdb63e"/><stop offset="1" stop-color="#ffba3c"/></linearGradient><linearGradient id="_1219" x1="298.57" y1="273.37" x2="404.15" y2="110.63" gradientUnits="userSpaceOnUse"><stop offset="0" stop-color="#113192"/><stop offset="0.23" stop-color="#542f92"/><stop offset="0.57" stop-color="#c02d91"/><stop offset="0.63" stop-color="#c5378b"/><stop offset="0.73" stop-color="#d1537a"/><stop offset="0.85" stop-color="#e57f5f"/><stop offset="1" stop-color="#ffba3c"/></linearGradient></defs><title>roadmap</title><circle class="cls-1" cx="260.49" cy="15" r="15"/><circle class="cls-1" cx="15" cy="195" r="15"/><circle class="cls-1" cx="222.99" cy="375" r="15"/><circle class="cls-1" cx="647" cy="135" r="15"/><circle class="cls-1" cx="488.98" cy="315" r="15"/><path class="cls-1" d="M265.51,130.54a15,15,0,0,1,15-15h-68a15,15,0,0,1,0,30h68A15,15,0,0,1,265.51,130.54Z" transform="translate(-26.52 -25.54)"/><path class="cls-1" d="M197.51,190.54a15,15,0,0,1,15-15h-68a15,15,0,0,1,0,30h68A15,15,0,0,1,197.51,190.54Z" transform="translate(-26.52 -25.54)"/><path class="cls-1" d="M425.51,145.54h-300a15,15,0,0,0,0,30h300a15,15,0,0,0,0-30Z" transform="translate(-26.52 -25.54)"/><path class="cls-1" d="M410.51,85.54h-217a15,15,0,0,0,0,30h217a15,15,0,0,0,0-30Z" transform="translate(-26.52 -25.54)"/><path class="cls-1" d="M576.5,190.54a15,15,0,0,1,15-15h-68a15,15,0,0,1,0,30h68A15,15,0,0,1,576.5,190.54Z" transform="translate(-26.52 -25.54)"/><path class="cls-1" d="M485.5,250.54a15,15,0,0,1,15-15h-68a15,15,0,0,1,0,30h68A15,15,0,0,1,485.5,250.54Z" transform="translate(-26.52 -25.54)"/><path class="cls-1" d="M362,310.54a15,15,0,0,1,15-15H264.51a15,15,0,0,1,0,30H377A15,15,0,0,1,362,310.54Z" transform="translate(-26.52 -25.54)"/><path class="cls-1" d="M438.43,370.54a15,15,0,0,1,15-15H397.6a15,15,0,0,1,0,30h55.83A15,15,0,0,1,438.43,370.54Z" transform="translate(-26.52 -25.54)"/><path class="cls-1" d="M231.51,250.54a15,15,0,0,1,15-15h-68a15,15,0,0,1,0,30h68A15,15,0,0,1,231.51,250.54Z" transform="translate(-26.52 -25.54)"/><path class="cls-1" d="M650.5,205.54h-300a15,15,0,0,0,0,30h300a15,15,0,0,0,0-30Z" transform="translate(-26.52 -25.54)"/><path class="cls-1" d="M515,265.54H167a15,15,0,0,0,0,30H515a15,15,0,0,0,0-30Z" transform="translate(-26.52 -25.54)"/><path class="cls-1" d="M461.69,325.54H254a15,15,0,0,0,0,30H461.69a15,15,0,0,0,0-30Z" transform="translate(-26.52 -25.54)"/><path class="cls-1" d="M610.51,145.54H474a15,15,0,0,0,0,30h136.5a15,15,0,0,0,0-30Z" transform="translate(-26.52 -25.54)"/><path class="cls-1" d="M548.51,85.54h-82a15,15,0,0,0,0,30h82a15,15,0,0,0,0-30Z" transform="translate(-26.52 -25.54)"/><path class="cls-1" d="M197.51,325.54h-82a15,15,0,0,0,0,30h82a15,15,0,0,0,0-30Z" transform="translate(-26.52 -25.54)"/><path class="cls-1" d="M425.51,25.54h-82a15,15,0,0,0,0,30h82a15,15,0,0,0,0-30Z" transform="translate(-26.52 -25.54)"/><path class="cls-1" d="M297.85,205.54H89.53a15,15,0,0,0,0,30H297.85a15,15,0,0,0,0-30Z" transform="translate(-26.52 -25.54)"/><path class="cls-1" d="M469.19,385.54H320.35a15,15,0,0,0,0,30H469.19a15,15,0,0,0,0-30Z" transform="translate(-26.52 -25.54)"/><g id="ARC"><path class="cls-2" d="M398.4,119.05A100,100,0,0,0,266.26,251.18l91.25,203.6,45-100.46,0-.05,46.2-103.09A100,100,0,0,0,398.4,119.05ZM357.51,270.27h-1.4a60,60,0,0,1-56.58-44.6c-.11-.43-.23-.87-.33-1.3a60,60,0,1,1,116.75-27.61,0,0,0,0,1,0,.05,60,60,0,0,1-58.45,73.47Z" transform="translate(-26.52 -25.54)"/><path class="cls-3" d="M448.75,251.18l-46.2,103.09A239.42,239.42,0,0,0,416,196.8a0,0,0,0,0,0-.05A60,60,0,1,0,299.2,224.36c.1.43.22.87.33,1.3a60,60,0,0,0,56.58,44.6,160,160,0,0,1-94.59-32,100,100,0,1,1,187.23,12.9Z" transform="translate(-26.52 -25.54)"/><path class="cls-4" d="M357.51,150.31h.34v-40a100,100,0,0,0-96.33,128,160,160,0,0,0,94.59,32,60,60,0,0,1-56.58-44.6c-.11-.43-.23-.87-.33-1.3a60,60,0,0,1,58.31-74.05Z" transform="translate(-26.52 -25.54)"/><path class="cls-5" d="M453.41,182q-.41-1.41-.87-2.8c-.1-.32-.22-.63-.32-.95q-.32-.94-.65-1.87l-.45-1.23q-.34-.91-.7-1.82c-.19-.47-.37-.93-.56-1.4q-.42-1-.86-2a100,100,0,0,0-155.47-36.52,239.36,239.36,0,0,0,5.53,90.35c-.15-.63-.26-1.27-.38-1.91-.07-.37-.16-.73-.22-1.1-.14-.79-.25-1.58-.36-2.38,0-.36-.11-.71-.15-1.06-.1-.84-.16-1.69-.23-2.55,0-.32-.06-.63-.08-1q-.1-1.76-.11-3.54a59.74,59.74,0,0,1,15.19-39.87l.39-.45c.33-.36.68-.71,1-1.07s.64-.69,1-1l.57-.55c.5-.49,1-1,1.51-1.44l.2-.17a59.75,59.75,0,0,1,40.13-15.41h1.4a160,160,0,0,1,94.58,32Z" transform="translate(-26.52 -25.54)"/></g></svg>