<svg xmlns="http://www.w3.org/2000/svg" viewBox="0 0 666 57" width="666" height="57"><style>tspan { white-space:pre }.shp0 { fill: #ccc } </style><g ><path class="shp0" d="M0.02 3.75C0.03 5.81 1.02 10.2 2.23 13.5C3.7 17.5 5.94 21.01 8.97 24.02C11.46 26.51 15.3 29.2 17.5 30C20.91 31.24 43.02 31.53 166.5 31.98C287.7 32.41 312.07 32.73 315 33.9C316.93 34.67 319.74 36.14 321.25 37.15C322.76 38.17 324.86 40.69 325.91 42.75C326.96 44.81 328.31 48.64 328.91 51.25C329.93 55.71 330.2 56 333.25 56.02C336.26 56.04 336.56 55.74 337.25 52.02C337.66 49.81 338.86 46.31 339.9 44.25C340.95 42.19 342.86 39.51 344.15 38.31C345.44 37.1 348.3 35.3 350.5 34.31C354.28 32.6 362.45 32.47 499 31.98C599.05 31.62 644.42 31.13 646.5 30.38C648.15 29.78 650.85 28.59 652.5 27.74C654.15 26.88 656.74 24.9 658.25 23.34C659.76 21.78 662.13 17.46 663.5 13.75C664.88 10.04 666 5.42 666 3.5C666 0.67 665.62 0 664 0C662.49 0 661.73 1.04 660.89 4.25C660.28 6.59 658.93 10.19 657.89 12.25C656.85 14.31 654.54 17 652.75 18.21C650.96 19.43 647.02 21 644 21.7C639.69 22.69 608.57 22.97 500.5 22.98C403.88 22.99 360.7 23.32 356.5 24.1C353.2 24.7 348.93 26.01 347 27C345.07 27.99 342.51 29.86 341.31 31.15C340.1 32.44 338.23 35.52 337.16 38C336.08 40.48 334.93 44.41 334.6 46.75C334.27 49.09 333.66 51.01 333.25 51.02C332.84 51.02 332.16 48.89 331.74 46.27C331.32 43.64 329.94 39.25 328.68 36.5C327.41 33.75 325.06 30.52 323.44 29.32C321.82 28.12 318.48 26.32 316 25.32C311.74 23.6 303.81 23.47 166.5 23L21.5 22.5C13.59 18.52 10.44 15.87 8.78 13.5C7.25 11.3 5.54 7.36 4.99 4.75C4.21 1 3.58 0 2 0C0.35 0 0 0.66 0.02 3.75Z" /></g></svg>